<?xml version="1.0" encoding="UTF-8" standalone="no"?>
<!-- Created with Inkscape (http://www.inkscape.org/) -->

<svg
   xmlns:dc="http://purl.org/dc/elements/1.1/"
   xmlns:cc="http://creativecommons.org/ns#"
   xmlns:rdf="http://www.w3.org/1999/02/22-rdf-syntax-ns#"
   xmlns:svg="http://www.w3.org/2000/svg"
   xmlns="http://www.w3.org/2000/svg"
   xmlns:sodipodi="http://sodipodi.sourceforge.net/DTD/sodipodi-0.dtd"
   xmlns:inkscape="http://www.inkscape.org/namespaces/inkscape"
   id="svg3343"
   version="1.1"
   inkscape:version="0.91 r13725"
   xml:space="preserve"
   width="3750"
   height="3750"
   viewBox="0 0 3750 3750"
   sodipodi:docname="1.svg"><metadata
     id="metadata3349"><rdf:RDF><cc:Work
         rdf:about=""><dc:format>image/svg+xml</dc:format><dc:type
           rdf:resource="http://purl.org/dc/dcmitype/StillImage" /><dc:title></dc:title></cc:Work></rdf:RDF></metadata><defs
     id="defs3347"><radialGradient
       fx="0"
       fy="0"
       cx="0"
       cy="0"
       r="1"
       gradientUnits="userSpaceOnUse"
       gradientTransform="matrix(1500,0,0,-1500,1500,1500)"
       spreadMethod="pad"
       id="radialGradient3365"><stop
         style="stop-opacity:1;stop-color:#5cb13c"
         offset="0"
         id="stop3367" /><stop
         style="stop-opacity:1;stop-color:#e2ebbe"
         offset="1"
         id="stop3369" /></radialGradient><clipPath
       clipPathUnits="userSpaceOnUse"
       id="clipPath3377"><path
         d="m 0,3000 3000,0 L 3000,0 0,0 0,3000 Z"
         id="path3379"
         inkscape:connector-curvature="0" /></clipPath><clipPath
       clipPathUnits="userSpaceOnUse"
       id="clipPath3387"><path
         d="m 0,3000 3000,0 L 3000,0 0,0 0,3000 Z"
         id="path3389"
         inkscape:connector-curvature="0" /></clipPath><clipPath
       clipPathUnits="userSpaceOnUse"
       id="clipPath3411"><path
         d="m 0,3000 3000,0 L 3000,0 0,0 0,3000 Z"
         id="path3413"
         inkscape:connector-curvature="0" /></clipPath><clipPath
       clipPathUnits="userSpaceOnUse"
       id="clipPath4331"><path
         d="m 0,3000 3000,0 L 3000,0 0,0 0,3000 Z"
         id="path4333"
         inkscape:connector-curvature="0" /></clipPath><clipPath
       clipPathUnits="userSpaceOnUse"
       id="clipPath4347"><path
         d="m 0,3000 3000,0 L 3000,0 0,0 0,3000 Z"
         id="path4349"
         inkscape:connector-curvature="0" /></clipPath><clipPath
       clipPathUnits="userSpaceOnUse"
       id="clipPath4363"><path
         d="m 0,3000 3000,0 L 3000,0 0,0 0,3000 Z"
         id="path4365"
         inkscape:connector-curvature="0" /></clipPath><clipPath
       clipPathUnits="userSpaceOnUse"
       id="clipPath4379"><path
         d="m 0,3000 3000,0 L 3000,0 0,0 0,3000 Z"
         id="path4381"
         inkscape:connector-curvature="0" /></clipPath><clipPath
       clipPathUnits="userSpaceOnUse"
       id="clipPath4395"><path
         d="m 0,3000 3000,0 L 3000,0 0,0 0,3000 Z"
         id="path4397"
         inkscape:connector-curvature="0" /></clipPath><clipPath
       clipPathUnits="userSpaceOnUse"
       id="clipPath4411"><path
         d="m 0,3000 3000,0 L 3000,0 0,0 0,3000 Z"
         id="path4413"
         inkscape:connector-curvature="0" /></clipPath><clipPath
       clipPathUnits="userSpaceOnUse"
       id="clipPath4787"><path
         d="m 0,3000 3000,0 L 3000,0 0,0 0,3000 Z"
         id="path4789"
         inkscape:connector-curvature="0" /></clipPath><clipPath
       clipPathUnits="userSpaceOnUse"
       id="clipPath4907"><path
         d="m 0,3000 3000,0 L 3000,0 0,0 0,3000 Z"
         id="path4909"
         inkscape:connector-curvature="0" /></clipPath><clipPath
       clipPathUnits="userSpaceOnUse"
       id="clipPath5883"><path
         d="m 0,3000 3000,0 L 3000,0 0,0 0,3000 Z"
         id="path5885"
         inkscape:connector-curvature="0" /></clipPath><clipPath
       clipPathUnits="userSpaceOnUse"
       id="clipPath5891"><path
         d="m 1269.23,1950.63 400.2,0 0,-645.05 -400.2,0 0,645.05 z"
         id="path5893"
         inkscape:connector-curvature="0" /></clipPath><clipPath
       clipPathUnits="userSpaceOnUse"
       id="clipPath5907"><path
         d="m 1282.3,1910.43 333.08,0 0,-335.96 -333.08,0 0,335.96 z"
         id="path5909"
         inkscape:connector-curvature="0" /></clipPath><clipPath
       clipPathUnits="userSpaceOnUse"
       id="clipPath5923"><path
         d="m 1275.54,1862.49 332.53,0 0,-370.26 -332.53,0 0,370.26 z"
         id="path5925"
         inkscape:connector-curvature="0" /></clipPath><clipPath
       clipPathUnits="userSpaceOnUse"
       id="clipPath6067"><path
         d="m 0,3000 3000,0 L 3000,0 0,0 0,3000 Z"
         id="path6069"
         inkscape:connector-curvature="0" /></clipPath><clipPath
       clipPathUnits="userSpaceOnUse"
       id="clipPath6083"><path
         d="m 789.129,2641.88 1575.421,0 0,-1679.73 -1575.421,0 0,1679.73 z"
         id="path6085"
         inkscape:connector-curvature="0" /></clipPath><clipPath
       clipPathUnits="userSpaceOnUse"
       id="clipPath6099"><path
         d="m 1823.37,2460.74 374.02,0 0,-471.9 -374.02,0 0,471.9 z"
         id="path6101"
         inkscape:connector-curvature="0" /></clipPath><clipPath
       clipPathUnits="userSpaceOnUse"
       id="clipPath6175"><path
         d="m 0,3000 3000,0 L 3000,0 0,0 0,3000 Z"
         id="path6177"
         inkscape:connector-curvature="0" /></clipPath></defs><sodipodi:namedview
     pagecolor="#ffffff"
     bordercolor="#666666"
     borderopacity="1"
     objecttolerance="10"
     gridtolerance="10"
     guidetolerance="10"
     inkscape:pageopacity="0"
     inkscape:pageshadow="2"
     inkscape:window-width="1920"
     inkscape:window-height="1017"
     id="namedview3345"
     showgrid="false"
     inkscape:zoom="0.17800235"
     inkscape:cx="1489.8968"
     inkscape:cy="1941.9242"
     inkscape:window-x="-8"
     inkscape:window-y="-8"
     inkscape:window-maximized="1"
     inkscape:current-layer="g3351" /><g
     id="g3351"
     inkscape:groupmode="layer"
     inkscape:label="Tree Guy"
     transform="matrix(1.25,0,0,-1.25,0,3750)"><g
       id="g3373"><g
         id="g3375"
         clip-path="url(#clipPath3377)"><path
           d="m 0,3000 3000,0 L 3000,0 0,0 0,3000 Z"
           style="fill:none;stroke:#9b9b9b;stroke-width:1;stroke-linecap:butt;stroke-linejoin:miter;stroke-miterlimit:10;stroke-dasharray:none;stroke-opacity:1"
           id="path3381"
           inkscape:connector-curvature="0" /></g></g><g
       id="g4327"><g
         id="g4329"
         clip-path="url(#clipPath4331)"><g
           id="g4335"
           transform="translate(1836.6338,1940.8229)"><path
             d="m 0,0 77.696,-12.823 c 7.317,-1.208 14.635,-2.415 21.952,-3.623 1.662,-0.521 3.323,-0.595 4.985,-0.223 1.663,0.075 3.212,0.57 4.647,1.483 2.593,1.518 5.066,4.491 5.745,7.471 0.729,3.199 0.571,6.791 -1.26,9.632 -1.658,2.57 -4.322,5.224 -7.471,5.744 C 80.396,11.935 54.497,16.21 28.598,20.484 21.281,21.692 13.963,22.899 6.646,24.107 4.984,24.628 3.323,24.702 1.661,24.33 -0.002,24.255 -1.551,23.76 -2.986,22.847 -5.579,21.33 -8.052,18.356 -8.731,15.376 -9.459,12.177 -9.302,8.585 -7.47,5.745 -5.813,3.174 -3.149,0.52 0,0"
             style="fill:#2e2b2b;fill-opacity:1;fill-rule:nonzero;stroke:none"
             id="path4337"
             inkscape:connector-curvature="0" /></g><g
           id="g4339"
           transform="translate(1482.2456,1976.5236)"><path
             d="m 0,0 c -27.991,-2.596 -55.878,-6.631 -83.437,-12.181 -7.495,-1.509 -14.966,-3.134 -22.413,-4.866 -2.985,-0.694 -5.946,-3.139 -7.47,-5.744 -1.568,-2.68 -2.232,-6.629 -1.26,-9.632 2.154,-6.658 8.547,-10.32 15.376,-8.731 18.379,4.276 36.913,7.877 55.558,10.78 5.305,0.825 10.618,1.593 15.938,2.308 l -3.323,-0.446 c 10.319,1.379 20.665,2.551 31.031,3.512 3.383,0.314 6.362,1.184 8.839,3.661 2.168,2.168 3.8,5.725 3.661,8.839 -0.145,3.233 -1.207,6.586 -3.661,8.839 C 6.526,-1.538 3.257,0.302 0,0"
             style="fill:#2e2b2b;fill-opacity:1;fill-rule:nonzero;stroke:none"
             id="path4341"
             inkscape:connector-curvature="0" /></g></g></g></g><g
     inkscape:groupmode="layer"
     id="layer1"
     inkscape:label="Tree Guy 1" /></svg>