<?xml version="1.0" encoding="UTF-8" standalone="no"?>
<!-- Created with Inkscape (http://www.inkscape.org/) -->

<svg
   xmlns:dc="http://purl.org/dc/elements/1.1/"
   xmlns:cc="http://creativecommons.org/ns#"
   xmlns:rdf="http://www.w3.org/1999/02/22-rdf-syntax-ns#"
   xmlns:svg="http://www.w3.org/2000/svg"
   xmlns="http://www.w3.org/2000/svg"
   xmlns:sodipodi="http://sodipodi.sourceforge.net/DTD/sodipodi-0.dtd"
   xmlns:inkscape="http://www.inkscape.org/namespaces/inkscape"
   id="svg3343"
   version="1.1"
   inkscape:version="0.91 r13725"
   xml:space="preserve"
   width="3750"
   height="3750"
   viewBox="0 0 3750 3750"
   sodipodi:docname="2.svg"><metadata
     id="metadata3349"><rdf:RDF><cc:Work
         rdf:about=""><dc:format>image/svg+xml</dc:format><dc:type
           rdf:resource="http://purl.org/dc/dcmitype/StillImage" /><dc:title></dc:title></cc:Work></rdf:RDF></metadata><defs
     id="defs3347"><radialGradient
       fx="0"
       fy="0"
       cx="0"
       cy="0"
       r="1"
       gradientUnits="userSpaceOnUse"
       gradientTransform="matrix(1500,0,0,-1500,1500,1500)"
       spreadMethod="pad"
       id="radialGradient3365"><stop
         style="stop-opacity:1;stop-color:#5cb13c"
         offset="0"
         id="stop3367" /><stop
         style="stop-opacity:1;stop-color:#e2ebbe"
         offset="1"
         id="stop3369" /></radialGradient><clipPath
       clipPathUnits="userSpaceOnUse"
       id="clipPath3377"><path
         d="m 0,3000 3000,0 L 3000,0 0,0 0,3000 Z"
         id="path3379"
         inkscape:connector-curvature="0" /></clipPath><clipPath
       clipPathUnits="userSpaceOnUse"
       id="clipPath3387"><path
         d="m 0,3000 3000,0 L 3000,0 0,0 0,3000 Z"
         id="path3389"
         inkscape:connector-curvature="0" /></clipPath><clipPath
       clipPathUnits="userSpaceOnUse"
       id="clipPath3411"><path
         d="m 0,3000 3000,0 L 3000,0 0,0 0,3000 Z"
         id="path3413"
         inkscape:connector-curvature="0" /></clipPath><clipPath
       clipPathUnits="userSpaceOnUse"
       id="clipPath4331"><path
         d="m 0,3000 3000,0 L 3000,0 0,0 0,3000 Z"
         id="path4333"
         inkscape:connector-curvature="0" /></clipPath><clipPath
       clipPathUnits="userSpaceOnUse"
       id="clipPath4347"><path
         d="m 0,3000 3000,0 L 3000,0 0,0 0,3000 Z"
         id="path4349"
         inkscape:connector-curvature="0" /></clipPath><clipPath
       clipPathUnits="userSpaceOnUse"
       id="clipPath4363"><path
         d="m 0,3000 3000,0 L 3000,0 0,0 0,3000 Z"
         id="path4365"
         inkscape:connector-curvature="0" /></clipPath><clipPath
       clipPathUnits="userSpaceOnUse"
       id="clipPath4379"><path
         d="m 0,3000 3000,0 L 3000,0 0,0 0,3000 Z"
         id="path4381"
         inkscape:connector-curvature="0" /></clipPath><clipPath
       clipPathUnits="userSpaceOnUse"
       id="clipPath4395"><path
         d="m 0,3000 3000,0 L 3000,0 0,0 0,3000 Z"
         id="path4397"
         inkscape:connector-curvature="0" /></clipPath><clipPath
       clipPathUnits="userSpaceOnUse"
       id="clipPath4411"><path
         d="m 0,3000 3000,0 L 3000,0 0,0 0,3000 Z"
         id="path4413"
         inkscape:connector-curvature="0" /></clipPath><clipPath
       clipPathUnits="userSpaceOnUse"
       id="clipPath4787"><path
         d="m 0,3000 3000,0 L 3000,0 0,0 0,3000 Z"
         id="path4789"
         inkscape:connector-curvature="0" /></clipPath><clipPath
       clipPathUnits="userSpaceOnUse"
       id="clipPath4907"><path
         d="m 0,3000 3000,0 L 3000,0 0,0 0,3000 Z"
         id="path4909"
         inkscape:connector-curvature="0" /></clipPath><clipPath
       clipPathUnits="userSpaceOnUse"
       id="clipPath5883"><path
         d="m 0,3000 3000,0 L 3000,0 0,0 0,3000 Z"
         id="path5885"
         inkscape:connector-curvature="0" /></clipPath><clipPath
       clipPathUnits="userSpaceOnUse"
       id="clipPath5891"><path
         d="m 1269.23,1950.63 400.2,0 0,-645.05 -400.2,0 0,645.05 z"
         id="path5893"
         inkscape:connector-curvature="0" /></clipPath><clipPath
       clipPathUnits="userSpaceOnUse"
       id="clipPath5907"><path
         d="m 1282.3,1910.43 333.08,0 0,-335.96 -333.08,0 0,335.96 z"
         id="path5909"
         inkscape:connector-curvature="0" /></clipPath><clipPath
       clipPathUnits="userSpaceOnUse"
       id="clipPath5923"><path
         d="m 1275.54,1862.49 332.53,0 0,-370.26 -332.53,0 0,370.26 z"
         id="path5925"
         inkscape:connector-curvature="0" /></clipPath><clipPath
       clipPathUnits="userSpaceOnUse"
       id="clipPath6067"><path
         d="m 0,3000 3000,0 L 3000,0 0,0 0,3000 Z"
         id="path6069"
         inkscape:connector-curvature="0" /></clipPath><clipPath
       clipPathUnits="userSpaceOnUse"
       id="clipPath6083"><path
         d="m 789.129,2641.88 1575.421,0 0,-1679.73 -1575.421,0 0,1679.73 z"
         id="path6085"
         inkscape:connector-curvature="0" /></clipPath><clipPath
       clipPathUnits="userSpaceOnUse"
       id="clipPath6099"><path
         d="m 1823.37,2460.74 374.02,0 0,-471.9 -374.02,0 0,471.9 z"
         id="path6101"
         inkscape:connector-curvature="0" /></clipPath><clipPath
       clipPathUnits="userSpaceOnUse"
       id="clipPath6175"><path
         d="m 0,3000 3000,0 L 3000,0 0,0 0,3000 Z"
         id="path6177"
         inkscape:connector-curvature="0" /></clipPath></defs><sodipodi:namedview
     pagecolor="#ffffff"
     bordercolor="#666666"
     borderopacity="1"
     objecttolerance="10"
     gridtolerance="10"
     guidetolerance="10"
     inkscape:pageopacity="0"
     inkscape:pageshadow="2"
     inkscape:window-width="1920"
     inkscape:window-height="1017"
     id="namedview3345"
     showgrid="false"
     inkscape:zoom="0.17800235"
     inkscape:cx="1489.8968"
     inkscape:cy="1941.9242"
     inkscape:window-x="-8"
     inkscape:window-y="-8"
     inkscape:window-maximized="1"
     inkscape:current-layer="g3351" /><g
     id="g3351"
     inkscape:groupmode="layer"
     inkscape:label="Tree Guy"
     transform="matrix(1.25,0,0,-1.25,0,3750)"><g
       id="g3373"><g
         id="g3375"
         clip-path="url(#clipPath3377)"><path
           d="m 0,3000 3000,0 L 3000,0 0,0 0,3000 Z"
           style="fill:none;stroke:#9b9b9b;stroke-width:1;stroke-linecap:butt;stroke-linejoin:miter;stroke-miterlimit:10;stroke-dasharray:none;stroke-opacity:1"
           id="path3381"
           inkscape:connector-curvature="0" /></g></g><g
       id="g4343"><g
         id="g4345"
         clip-path="url(#clipPath4347)"><g
           id="g4351"
           transform="translate(1322.033,1870.1237)"><path
             d="m 0,0 c 14.51,-2.289 29.097,-3.039 43.749,-1.893 14.633,1.145 29.189,3.699 43.35,7.553 27.086,7.371 52.876,19.281 77.381,32.839 6.618,3.661 13.161,7.457 19.652,11.338 3.311,1.98 6.608,3.982 9.896,6 3.131,1.921 6.206,4.053 9.601,5.491 -0.996,-0.42 -1.991,-0.84 -2.987,-1.26 1.39,0.555 2.793,0.942 4.278,1.143 -1.108,-0.149 -2.216,-0.298 -3.323,-0.447 2.088,0.221 4.155,0.09 6.232,-0.18 -1.108,0.149 -2.215,0.297 -3.323,0.446 7.307,-1.028 14.573,-2.484 21.843,-3.745 7.301,-1.267 14.603,-2.534 21.904,-3.801 3.392,-0.588 6.561,-0.537 9.632,1.26 2.593,1.518 5.066,4.491 5.744,7.471 0.729,3.2 0.571,6.791 -1.26,9.632 -1.666,2.584 -4.315,5.197 -7.47,5.744 -9.816,1.703 -19.633,3.406 -29.449,5.11 -5.863,1.017 -11.716,2.132 -17.621,2.883 -3.439,0.437 -6.584,0.231 -10.03,-0.33 -3.058,-0.499 -6.004,-1.838 -8.737,-3.249 -3.998,-2.063 -7.758,-4.658 -11.601,-6.995 -4.023,-2.445 -8.062,-4.863 -12.124,-7.242 -8.055,-4.718 -16.201,-9.282 -24.478,-13.599 -9.286,-4.843 -18.739,-9.366 -28.386,-13.444 l 2.986,1.26 C 99.477,35.257 82.953,29.79 65.952,26.304 61.089,25.306 56.194,24.477 51.275,23.813 c 1.108,0.149 2.216,0.298 3.323,0.447 C 38.812,22.167 22.797,21.901 6.998,24.013 8.105,23.864 9.213,23.715 10.321,23.566 9.094,23.734 7.869,23.914 6.646,24.107 4.984,24.628 3.323,24.702 1.661,24.33 -0.002,24.255 -1.551,23.76 -2.986,22.847 -5.579,21.329 -8.052,18.356 -8.73,15.376 -9.459,12.177 -9.302,8.585 -7.47,5.745 -5.821,3.186 -3.143,0.496 0,0"
             style="fill:#2e2b2b;fill-opacity:1;fill-rule:nonzero;stroke:none"
             id="path4353"
             inkscape:connector-curvature="0" /></g><g
           id="g4355"
           transform="translate(2039.7174,1912.9656)"><path
             d="m 0,0 c -9.128,-3.315 -18.59,-5.612 -28.211,-6.918 1.108,0.149 2.215,0.298 3.323,0.447 -12.666,-1.683 -25.515,-1.639 -38.177,0.061 l 3.323,-0.446 c -12.526,1.716 -24.795,5.046 -36.447,9.956 0.995,-0.42 1.99,-0.84 2.986,-1.261 -11.344,4.819 -21.788,11.162 -31.539,18.676 0.843,-0.651 1.686,-1.303 2.53,-1.954 -9.328,7.208 -18.323,15.13 -28.703,20.826 -5.416,2.972 -11.278,5.498 -17.31,6.897 -7.082,1.643 -14.459,2.078 -21.691,1.447 -8.317,-0.725 -16.5,-2.357 -24.643,-4.134 -2.969,-0.647 -5.968,-3.175 -7.471,-5.744 -1.568,-2.679 -2.232,-6.628 -1.26,-9.632 0.979,-3.025 2.853,-5.943 5.745,-7.471 3.066,-1.619 6.218,-2.004 9.632,-1.26 5.646,1.232 11.301,2.436 17.032,3.212 -1.108,-0.149 -2.215,-0.298 -3.323,-0.447 5.99,0.783 12.035,1.065 18.043,0.306 -1.108,0.149 -2.215,0.298 -3.323,0.447 4.453,-0.605 8.752,-1.809 12.899,-3.535 -0.996,0.42 -1.991,0.84 -2.986,1.26 7.883,-3.345 14.897,-8.319 21.645,-13.524 -0.843,0.652 -1.686,1.303 -2.529,1.955 8.924,-6.903 17.569,-14.204 27.25,-20.051 9.49,-5.732 19.745,-10.327 30.245,-13.866 10.616,-3.577 21.553,-5.714 32.667,-7.006 10.169,-1.181 20.467,-1.282 30.654,-0.267 12.38,1.232 24.578,3.667 36.285,7.919 3.11,1.13 5.754,2.811 7.47,5.745 1.568,2.679 2.233,6.628 1.261,9.632 -0.979,3.024 -2.854,5.942 -5.745,7.47 C 6.793,0.24 3.136,1.139 0,0"
             style="fill:#2e2b2b;fill-opacity:1;fill-rule:nonzero;stroke:none"
             id="path4357"
             inkscape:connector-curvature="0" /></g></g></g></g><g
     inkscape:groupmode="layer"
     id="layer1"
     inkscape:label="Tree Guy 1" /></svg>