<?xml version="1.0" encoding="UTF-8" standalone="no"?>
<!-- Created with Inkscape (http://www.inkscape.org/) -->

<svg
   xmlns:dc="http://purl.org/dc/elements/1.1/"
   xmlns:cc="http://creativecommons.org/ns#"
   xmlns:rdf="http://www.w3.org/1999/02/22-rdf-syntax-ns#"
   xmlns:svg="http://www.w3.org/2000/svg"
   xmlns="http://www.w3.org/2000/svg"
   xmlns:sodipodi="http://sodipodi.sourceforge.net/DTD/sodipodi-0.dtd"
   xmlns:inkscape="http://www.inkscape.org/namespaces/inkscape"
   id="svg3343"
   version="1.1"
   inkscape:version="0.91 r13725"
   xml:space="preserve"
   width="3750"
   height="3750"
   viewBox="0 0 3750 3750"
   sodipodi:docname="3.svg"><metadata
     id="metadata3349"><rdf:RDF><cc:Work
         rdf:about=""><dc:format>image/svg+xml</dc:format><dc:type
           rdf:resource="http://purl.org/dc/dcmitype/StillImage" /><dc:title></dc:title></cc:Work></rdf:RDF></metadata><defs
     id="defs3347"><radialGradient
       fx="0"
       fy="0"
       cx="0"
       cy="0"
       r="1"
       gradientUnits="userSpaceOnUse"
       gradientTransform="matrix(1500,0,0,-1500,1500,1500)"
       spreadMethod="pad"
       id="radialGradient3365"><stop
         style="stop-opacity:1;stop-color:#5cb13c"
         offset="0"
         id="stop3367" /><stop
         style="stop-opacity:1;stop-color:#e2ebbe"
         offset="1"
         id="stop3369" /></radialGradient><clipPath
       clipPathUnits="userSpaceOnUse"
       id="clipPath3377"><path
         d="m 0,3000 3000,0 L 3000,0 0,0 0,3000 Z"
         id="path3379"
         inkscape:connector-curvature="0" /></clipPath><clipPath
       clipPathUnits="userSpaceOnUse"
       id="clipPath3387"><path
         d="m 0,3000 3000,0 L 3000,0 0,0 0,3000 Z"
         id="path3389"
         inkscape:connector-curvature="0" /></clipPath><clipPath
       clipPathUnits="userSpaceOnUse"
       id="clipPath3411"><path
         d="m 0,3000 3000,0 L 3000,0 0,0 0,3000 Z"
         id="path3413"
         inkscape:connector-curvature="0" /></clipPath><clipPath
       clipPathUnits="userSpaceOnUse"
       id="clipPath4331"><path
         d="m 0,3000 3000,0 L 3000,0 0,0 0,3000 Z"
         id="path4333"
         inkscape:connector-curvature="0" /></clipPath><clipPath
       clipPathUnits="userSpaceOnUse"
       id="clipPath4347"><path
         d="m 0,3000 3000,0 L 3000,0 0,0 0,3000 Z"
         id="path4349"
         inkscape:connector-curvature="0" /></clipPath><clipPath
       clipPathUnits="userSpaceOnUse"
       id="clipPath4363"><path
         d="m 0,3000 3000,0 L 3000,0 0,0 0,3000 Z"
         id="path4365"
         inkscape:connector-curvature="0" /></clipPath><clipPath
       clipPathUnits="userSpaceOnUse"
       id="clipPath4379"><path
         d="m 0,3000 3000,0 L 3000,0 0,0 0,3000 Z"
         id="path4381"
         inkscape:connector-curvature="0" /></clipPath><clipPath
       clipPathUnits="userSpaceOnUse"
       id="clipPath4395"><path
         d="m 0,3000 3000,0 L 3000,0 0,0 0,3000 Z"
         id="path4397"
         inkscape:connector-curvature="0" /></clipPath><clipPath
       clipPathUnits="userSpaceOnUse"
       id="clipPath4411"><path
         d="m 0,3000 3000,0 L 3000,0 0,0 0,3000 Z"
         id="path4413"
         inkscape:connector-curvature="0" /></clipPath><clipPath
       clipPathUnits="userSpaceOnUse"
       id="clipPath4787"><path
         d="m 0,3000 3000,0 L 3000,0 0,0 0,3000 Z"
         id="path4789"
         inkscape:connector-curvature="0" /></clipPath><clipPath
       clipPathUnits="userSpaceOnUse"
       id="clipPath4907"><path
         d="m 0,3000 3000,0 L 3000,0 0,0 0,3000 Z"
         id="path4909"
         inkscape:connector-curvature="0" /></clipPath><clipPath
       clipPathUnits="userSpaceOnUse"
       id="clipPath5883"><path
         d="m 0,3000 3000,0 L 3000,0 0,0 0,3000 Z"
         id="path5885"
         inkscape:connector-curvature="0" /></clipPath><clipPath
       clipPathUnits="userSpaceOnUse"
       id="clipPath5891"><path
         d="m 1269.23,1950.63 400.2,0 0,-645.05 -400.2,0 0,645.05 z"
         id="path5893"
         inkscape:connector-curvature="0" /></clipPath><clipPath
       clipPathUnits="userSpaceOnUse"
       id="clipPath5907"><path
         d="m 1282.3,1910.43 333.08,0 0,-335.96 -333.08,0 0,335.96 z"
         id="path5909"
         inkscape:connector-curvature="0" /></clipPath><clipPath
       clipPathUnits="userSpaceOnUse"
       id="clipPath5923"><path
         d="m 1275.54,1862.49 332.53,0 0,-370.26 -332.53,0 0,370.26 z"
         id="path5925"
         inkscape:connector-curvature="0" /></clipPath><clipPath
       clipPathUnits="userSpaceOnUse"
       id="clipPath6067"><path
         d="m 0,3000 3000,0 L 3000,0 0,0 0,3000 Z"
         id="path6069"
         inkscape:connector-curvature="0" /></clipPath><clipPath
       clipPathUnits="userSpaceOnUse"
       id="clipPath6083"><path
         d="m 789.129,2641.88 1575.421,0 0,-1679.73 -1575.421,0 0,1679.73 z"
         id="path6085"
         inkscape:connector-curvature="0" /></clipPath><clipPath
       clipPathUnits="userSpaceOnUse"
       id="clipPath6099"><path
         d="m 1823.37,2460.74 374.02,0 0,-471.9 -374.02,0 0,471.9 z"
         id="path6101"
         inkscape:connector-curvature="0" /></clipPath><clipPath
       clipPathUnits="userSpaceOnUse"
       id="clipPath6175"><path
         d="m 0,3000 3000,0 L 3000,0 0,0 0,3000 Z"
         id="path6177"
         inkscape:connector-curvature="0" /></clipPath></defs><sodipodi:namedview
     pagecolor="#ffffff"
     bordercolor="#666666"
     borderopacity="1"
     objecttolerance="10"
     gridtolerance="10"
     guidetolerance="10"
     inkscape:pageopacity="0"
     inkscape:pageshadow="2"
     inkscape:window-width="1920"
     inkscape:window-height="1017"
     id="namedview3345"
     showgrid="false"
     inkscape:zoom="0.17800235"
     inkscape:cx="1489.8968"
     inkscape:cy="1941.9242"
     inkscape:window-x="-8"
     inkscape:window-y="-8"
     inkscape:window-maximized="1"
     inkscape:current-layer="g3351" /><g
     id="g3351"
     inkscape:groupmode="layer"
     inkscape:label="Tree Guy"
     transform="matrix(1.25,0,0,-1.25,0,3750)"><g
       id="g3373"><g
         id="g3375"
         clip-path="url(#clipPath3377)"><path
           d="m 0,3000 3000,0 L 3000,0 0,0 0,3000 Z"
           style="fill:none;stroke:#9b9b9b;stroke-width:1;stroke-linecap:butt;stroke-linejoin:miter;stroke-miterlimit:10;stroke-dasharray:none;stroke-opacity:1"
           id="path3381"
           inkscape:connector-curvature="0" /></g></g><g
       id="g4375"><g
         id="g4377"
         clip-path="url(#clipPath4379)"><g
           id="g4383"
           transform="translate(1382.1268,1885.2473)"><path
             d="m 0,0 c -1.668,0.273 -3.336,0.545 -5.003,0.818 -3.266,0.534 -6.697,0.632 -9.632,-1.26 -2.322,-1.497 -4.036,-3.422 -5.115,-5.978 -1.048,-2.484 -1.483,-5.501 -0.63,-8.139 0.962,-2.972 2.843,-6.041 5.745,-7.47 14.583,-7.184 29.135,-14.435 43.755,-21.542 7.652,-3.72 15.42,-7.279 23.423,-10.179 7.231,-2.621 14.665,-4.395 22.265,-5.548 9.556,-1.451 19.186,-2.264 28.761,-3.551 l -3.323,0.447 c 12.695,-1.733 24.835,-5.367 37.127,-8.851 5.908,-1.674 11.852,-3.263 17.892,-4.391 6.717,-1.256 13.631,-2.189 20.481,-1.981 4.254,0.129 8.558,0.663 12.717,1.551 4.242,0.906 8.193,2.49 12.157,4.234 2.678,1.177 5.004,4.782 5.745,7.47 0.824,2.992 0.452,6.976 -1.26,9.632 -1.721,2.669 -4.283,5.019 -7.471,5.744 -1.107,0.149 -2.215,0.298 -3.323,0.447 -2.256,-0.007 -4.359,-0.576 -6.309,-1.707 -0.261,-0.116 -0.524,-0.23 -0.787,-0.341 0.995,0.42 1.99,0.84 2.986,1.26 -3.863,-1.613 -7.893,-2.686 -12.036,-3.267 1.108,0.149 2.215,0.298 3.323,0.447 -5.934,-0.783 -11.916,-0.554 -17.835,0.24 1.108,-0.148 2.215,-0.297 3.323,-0.446 -10.585,1.47 -20.839,4.605 -31.082,7.552 -5.151,1.483 -10.314,2.934 -15.541,4.124 -6.467,1.471 -13.031,2.383 -19.608,3.202 -6.438,0.802 -12.9,1.407 -19.331,2.269 l 3.323,-0.447 c -5.701,0.776 -11.38,1.756 -16.935,3.27 -5.449,1.486 -10.751,3.447 -15.951,5.641 0.995,-0.421 1.99,-0.841 2.986,-1.261 -7.271,3.089 -14.339,6.626 -21.423,10.115 L 10.907,-6.809 c -4.308,2.122 -8.616,4.244 -12.924,6.367 -3.211,-7.616 -6.422,-15.232 -9.632,-22.847 1.668,-0.273 3.335,-0.545 5.003,-0.818 1.662,-0.521 3.323,-0.595 4.985,-0.223 1.663,0.075 3.212,0.57 4.647,1.483 2.593,1.517 5.066,4.491 5.744,7.471 0.729,3.199 0.572,6.791 -1.26,9.631 C 5.815,-3.177 3.148,-0.514 0,0"
             style="fill:#2e2b2b;fill-opacity:1;fill-rule:nonzero;stroke:none"
             id="path4385"
             inkscape:connector-curvature="0" /></g><g
           id="g4387"
           transform="translate(2011.3463,1944.3785)"><path
             d="m 0,0 c -16.972,11.725 -37.531,17.38 -57.989,18.317 -10.522,0.481 -21.059,-0.512 -31.424,-2.31 -9.408,-1.632 -18.649,-4.218 -27.559,-7.646 -10.166,-3.91 -19.963,-8.672 -29.31,-14.263 -9.605,-5.745 -18.647,-12.314 -27.442,-19.223 -16.336,-12.832 -31.248,-27.356 -45.83,-42.117 -16.271,-16.47 -32.401,-33.079 -48.593,-49.626 -2.039,-2.084 -4.077,-4.167 -6.116,-6.251 -2.258,-2.307 -3.661,-5.598 -3.661,-8.839 0,-3.066 1.361,-6.728 3.661,-8.839 2.382,-2.186 5.51,-3.81 8.839,-3.661 3.294,0.148 6.481,1.252 8.839,3.661 14.091,14.401 28.182,28.802 42.274,43.203 12.375,12.648 24.722,25.343 37.774,37.301 7.223,6.617 14.665,12.998 22.417,18.991 -0.844,-0.652 -1.687,-1.303 -2.53,-1.955 13.86,10.679 28.785,20.179 44.935,27.009 -0.995,-0.42 -1.99,-0.84 -2.986,-1.26 11.905,4.997 24.423,8.486 37.221,10.222 l -3.323,-0.447 c 10.9,1.446 21.958,1.601 32.867,0.149 -1.108,0.148 -2.216,0.297 -3.323,0.446 8.731,-1.195 17.292,-3.424 25.428,-6.827 -0.995,0.42 -1.99,0.84 -2.986,1.26 5.689,-2.408 11.116,-5.37 16.199,-8.882 2.55,-1.762 6.737,-2.057 9.632,-1.26 2.899,0.799 6.042,3.04 7.47,5.745 1.533,2.901 2.301,6.415 1.261,9.632 C 4.699,-4.24 2.799,-1.934 0,0"
             style="fill:#2e2b2b;fill-opacity:1;fill-rule:nonzero;stroke:none"
             id="path4389"
             inkscape:connector-curvature="0" /></g></g></g></g><g
     inkscape:groupmode="layer"
     id="layer1"
     inkscape:label="Tree Guy 1" /></svg>