<?xml version="1.0" encoding="UTF-8" standalone="no"?>
<!-- Created with Inkscape (http://www.inkscape.org/) -->

<svg
   xmlns:dc="http://purl.org/dc/elements/1.1/"
   xmlns:cc="http://creativecommons.org/ns#"
   xmlns:rdf="http://www.w3.org/1999/02/22-rdf-syntax-ns#"
   xmlns:svg="http://www.w3.org/2000/svg"
   xmlns="http://www.w3.org/2000/svg"
   xmlns:sodipodi="http://sodipodi.sourceforge.net/DTD/sodipodi-0.dtd"
   xmlns:inkscape="http://www.inkscape.org/namespaces/inkscape"
   id="svg3343"
   version="1.1"
   inkscape:version="0.91 r13725"
   xml:space="preserve"
   width="3750"
   height="3750"
   viewBox="0 0 3750 3750"
   sodipodi:docname="4.svg"><metadata
     id="metadata3349"><rdf:RDF><cc:Work
         rdf:about=""><dc:format>image/svg+xml</dc:format><dc:type
           rdf:resource="http://purl.org/dc/dcmitype/StillImage" /><dc:title></dc:title></cc:Work></rdf:RDF></metadata><defs
     id="defs3347"><radialGradient
       fx="0"
       fy="0"
       cx="0"
       cy="0"
       r="1"
       gradientUnits="userSpaceOnUse"
       gradientTransform="matrix(1500,0,0,-1500,1500,1500)"
       spreadMethod="pad"
       id="radialGradient3365"><stop
         style="stop-opacity:1;stop-color:#5cb13c"
         offset="0"
         id="stop3367" /><stop
         style="stop-opacity:1;stop-color:#e2ebbe"
         offset="1"
         id="stop3369" /></radialGradient><clipPath
       clipPathUnits="userSpaceOnUse"
       id="clipPath3377"><path
         d="m 0,3000 3000,0 L 3000,0 0,0 0,3000 Z"
         id="path3379"
         inkscape:connector-curvature="0" /></clipPath><clipPath
       clipPathUnits="userSpaceOnUse"
       id="clipPath3387"><path
         d="m 0,3000 3000,0 L 3000,0 0,0 0,3000 Z"
         id="path3389"
         inkscape:connector-curvature="0" /></clipPath><clipPath
       clipPathUnits="userSpaceOnUse"
       id="clipPath3411"><path
         d="m 0,3000 3000,0 L 3000,0 0,0 0,3000 Z"
         id="path3413"
         inkscape:connector-curvature="0" /></clipPath><clipPath
       clipPathUnits="userSpaceOnUse"
       id="clipPath4331"><path
         d="m 0,3000 3000,0 L 3000,0 0,0 0,3000 Z"
         id="path4333"
         inkscape:connector-curvature="0" /></clipPath><clipPath
       clipPathUnits="userSpaceOnUse"
       id="clipPath4347"><path
         d="m 0,3000 3000,0 L 3000,0 0,0 0,3000 Z"
         id="path4349"
         inkscape:connector-curvature="0" /></clipPath><clipPath
       clipPathUnits="userSpaceOnUse"
       id="clipPath4363"><path
         d="m 0,3000 3000,0 L 3000,0 0,0 0,3000 Z"
         id="path4365"
         inkscape:connector-curvature="0" /></clipPath><clipPath
       clipPathUnits="userSpaceOnUse"
       id="clipPath4379"><path
         d="m 0,3000 3000,0 L 3000,0 0,0 0,3000 Z"
         id="path4381"
         inkscape:connector-curvature="0" /></clipPath><clipPath
       clipPathUnits="userSpaceOnUse"
       id="clipPath4395"><path
         d="m 0,3000 3000,0 L 3000,0 0,0 0,3000 Z"
         id="path4397"
         inkscape:connector-curvature="0" /></clipPath><clipPath
       clipPathUnits="userSpaceOnUse"
       id="clipPath4411"><path
         d="m 0,3000 3000,0 L 3000,0 0,0 0,3000 Z"
         id="path4413"
         inkscape:connector-curvature="0" /></clipPath><clipPath
       clipPathUnits="userSpaceOnUse"
       id="clipPath4787"><path
         d="m 0,3000 3000,0 L 3000,0 0,0 0,3000 Z"
         id="path4789"
         inkscape:connector-curvature="0" /></clipPath><clipPath
       clipPathUnits="userSpaceOnUse"
       id="clipPath4907"><path
         d="m 0,3000 3000,0 L 3000,0 0,0 0,3000 Z"
         id="path4909"
         inkscape:connector-curvature="0" /></clipPath><clipPath
       clipPathUnits="userSpaceOnUse"
       id="clipPath5883"><path
         d="m 0,3000 3000,0 L 3000,0 0,0 0,3000 Z"
         id="path5885"
         inkscape:connector-curvature="0" /></clipPath><clipPath
       clipPathUnits="userSpaceOnUse"
       id="clipPath5891"><path
         d="m 1269.23,1950.63 400.2,0 0,-645.05 -400.2,0 0,645.05 z"
         id="path5893"
         inkscape:connector-curvature="0" /></clipPath><clipPath
       clipPathUnits="userSpaceOnUse"
       id="clipPath5907"><path
         d="m 1282.3,1910.43 333.08,0 0,-335.96 -333.08,0 0,335.96 z"
         id="path5909"
         inkscape:connector-curvature="0" /></clipPath><clipPath
       clipPathUnits="userSpaceOnUse"
       id="clipPath5923"><path
         d="m 1275.54,1862.49 332.53,0 0,-370.26 -332.53,0 0,370.26 z"
         id="path5925"
         inkscape:connector-curvature="0" /></clipPath><clipPath
       clipPathUnits="userSpaceOnUse"
       id="clipPath6067"><path
         d="m 0,3000 3000,0 L 3000,0 0,0 0,3000 Z"
         id="path6069"
         inkscape:connector-curvature="0" /></clipPath><clipPath
       clipPathUnits="userSpaceOnUse"
       id="clipPath6083"><path
         d="m 789.129,2641.88 1575.421,0 0,-1679.73 -1575.421,0 0,1679.73 z"
         id="path6085"
         inkscape:connector-curvature="0" /></clipPath><clipPath
       clipPathUnits="userSpaceOnUse"
       id="clipPath6099"><path
         d="m 1823.37,2460.74 374.02,0 0,-471.9 -374.02,0 0,471.9 z"
         id="path6101"
         inkscape:connector-curvature="0" /></clipPath><clipPath
       clipPathUnits="userSpaceOnUse"
       id="clipPath6175"><path
         d="m 0,3000 3000,0 L 3000,0 0,0 0,3000 Z"
         id="path6177"
         inkscape:connector-curvature="0" /></clipPath></defs><sodipodi:namedview
     pagecolor="#ffffff"
     bordercolor="#666666"
     borderopacity="1"
     objecttolerance="10"
     gridtolerance="10"
     guidetolerance="10"
     inkscape:pageopacity="0"
     inkscape:pageshadow="2"
     inkscape:window-width="1920"
     inkscape:window-height="1017"
     id="namedview3345"
     showgrid="false"
     inkscape:zoom="0.17800235"
     inkscape:cx="1489.8968"
     inkscape:cy="1941.9242"
     inkscape:window-x="-8"
     inkscape:window-y="-8"
     inkscape:window-maximized="1"
     inkscape:current-layer="g3351" /><g
     id="g3351"
     inkscape:groupmode="layer"
     inkscape:label="Tree Guy"
     transform="matrix(1.25,0,0,-1.25,0,3750)"><g
       id="g3373"><g
         id="g3375"
         clip-path="url(#clipPath3377)"><path
           d="m 0,3000 3000,0 L 3000,0 0,0 0,3000 Z"
           style="fill:none;stroke:#9b9b9b;stroke-width:1;stroke-linecap:butt;stroke-linejoin:miter;stroke-miterlimit:10;stroke-dasharray:none;stroke-opacity:1"
           id="path3381"
           inkscape:connector-curvature="0" /></g></g><g
       id="g4359"><g
         id="g4361"
         clip-path="url(#clipPath4363)"><g
           id="g4367"
           transform="translate(1785.2239,1811.3733)"><path
             d="m 0,0 c 13.724,3.03 25.138,11.687 36.352,19.657 11.913,8.467 23.827,16.934 35.741,25.401 l 35.74,25.401 c 11.676,8.298 23.424,16.505 34.981,24.969 6.999,5.125 13.915,10.382 20.615,15.894 5.763,4.742 11.227,9.846 17.127,14.42 -0.843,-0.652 -1.686,-1.303 -2.53,-1.955 4.367,3.357 8.99,6.39 14.077,8.542 l -2.986,-1.26 c 3.28,1.351 6.682,2.332 10.198,2.824 -1.108,-0.148 -2.216,-0.297 -3.323,-0.446 2.772,0.355 5.549,0.392 8.323,0.03 -1.108,0.149 -2.216,0.298 -3.323,0.447 1.936,-0.282 3.813,-0.752 5.649,-1.431 2.888,-1.069 7.062,-0.243 9.631,1.26 2.593,1.517 5.066,4.49 5.745,7.47 0.729,3.2 0.571,6.792 -1.26,9.632 -1.849,2.869 -4.27,4.56 -7.471,5.745 -5.275,1.952 -11.296,2.555 -16.877,1.9 -3.297,-0.386 -6.552,-0.852 -9.732,-1.812 -3.198,-0.966 -6.315,-2.289 -9.325,-3.727 -9.723,-4.646 -17.867,-12.199 -25.948,-19.185 -4.506,-3.896 -9.128,-7.65 -13.841,-11.292 0.843,0.652 1.686,1.303 2.53,1.955 C 131.267,117.636 122.167,111.2 113.086,104.746 103.677,98.059 94.268,91.372 84.859,84.685 66.041,71.311 47.223,57.937 28.404,44.563 18.843,37.768 9.394,30.104 -1.469,25.465 c 0.996,0.42 1.991,0.84 2.986,1.26 -2.646,-1.105 -5.361,-1.999 -8.163,-2.618 -2.972,-0.656 -5.963,-3.169 -7.47,-5.744 -1.568,-2.68 -2.233,-6.629 -1.26,-9.632 0.978,-3.025 2.853,-5.943 5.744,-7.471 C -6.57,-0.358 -3.409,-0.753 0,0"
             style="fill:#2e2b2b;fill-opacity:1;fill-rule:nonzero;stroke:none"
             id="path4369"
             inkscape:connector-curvature="0" /></g><g
           id="g4371"
           transform="translate(1564.5236,1825.5034)"><path
             d="m 0,0 c -15.973,8.944 -32.087,17.636 -48.338,26.065 -16.251,8.429 -32.637,16.597 -49.15,24.5 -16.513,7.903 -33.153,15.54 -49.911,22.909 -9.258,4.071 -18.557,8.047 -27.879,11.971 -8.361,3.519 -16.711,7.201 -25.223,10.343 -6.064,2.238 -12.46,2.992 -18.824,1.641 -2.877,-0.611 -5.673,-1.919 -8.27,-3.258 -1.969,-1.015 -3.851,-2.196 -5.75,-3.334 l -24.676,-14.789 c -2.002,-1.201 -4.005,-2.401 -6.008,-3.601 -2.714,-1.627 -4.9,-4.407 -5.744,-7.47 -0.824,-2.993 -0.452,-6.977 1.26,-9.633 1.721,-2.668 4.283,-5.018 7.47,-5.744 3.263,-0.743 6.7,-0.497 9.632,1.26 6.509,3.901 13.018,7.802 19.527,11.703 3.218,1.929 6.437,3.858 9.655,5.787 3.017,1.808 5.995,3.767 9.231,5.168 -0.995,-0.42 -1.991,-0.84 -2.986,-1.26 1.498,0.615 3.015,1.065 4.622,1.282 -1.108,-0.149 -2.216,-0.298 -3.323,-0.447 1.381,0.142 2.743,0.112 4.121,-0.053 -1.108,0.149 -2.216,0.298 -3.323,0.447 5.802,-0.826 11.302,-3.601 16.68,-5.803 5.548,-2.273 11.084,-4.575 16.609,-6.905 -0.996,0.42 -1.991,0.84 -2.986,1.26 22.832,-9.636 45.456,-19.763 67.849,-30.379 22.392,-10.617 44.555,-21.72 66.465,-33.3 12.298,-6.499 24.515,-13.151 36.652,-19.947 2.863,-1.603 6.445,-2.137 9.632,-1.26 2.899,0.799 6.042,3.04 7.47,5.745 1.533,2.901 2.301,6.415 1.261,9.632 C 4.751,-4.402 2.879,-1.612 0,0"
             style="fill:#2e2b2b;fill-opacity:1;fill-rule:nonzero;stroke:none"
             id="path4373"
             inkscape:connector-curvature="0" /></g></g></g></g><g
     inkscape:groupmode="layer"
     id="layer1"
     inkscape:label="Tree Guy 1" /></svg>