<?xml version="1.0" encoding="UTF-8" standalone="no"?>
<!-- Created with Inkscape (http://www.inkscape.org/) -->

<svg
   xmlns:dc="http://purl.org/dc/elements/1.1/"
   xmlns:cc="http://creativecommons.org/ns#"
   xmlns:rdf="http://www.w3.org/1999/02/22-rdf-syntax-ns#"
   xmlns:svg="http://www.w3.org/2000/svg"
   xmlns="http://www.w3.org/2000/svg"
   xmlns:sodipodi="http://sodipodi.sourceforge.net/DTD/sodipodi-0.dtd"
   xmlns:inkscape="http://www.inkscape.org/namespaces/inkscape"
   id="svg3343"
   version="1.1"
   inkscape:version="0.91 r13725"
   xml:space="preserve"
   width="3750"
   height="3750"
   viewBox="0 0 3750 3750"
   sodipodi:docname="5.svg"><metadata
     id="metadata3349"><rdf:RDF><cc:Work
         rdf:about=""><dc:format>image/svg+xml</dc:format><dc:type
           rdf:resource="http://purl.org/dc/dcmitype/StillImage" /><dc:title></dc:title></cc:Work></rdf:RDF></metadata><defs
     id="defs3347"><radialGradient
       fx="0"
       fy="0"
       cx="0"
       cy="0"
       r="1"
       gradientUnits="userSpaceOnUse"
       gradientTransform="matrix(1500,0,0,-1500,1500,1500)"
       spreadMethod="pad"
       id="radialGradient3365"><stop
         style="stop-opacity:1;stop-color:#5cb13c"
         offset="0"
         id="stop3367" /><stop
         style="stop-opacity:1;stop-color:#e2ebbe"
         offset="1"
         id="stop3369" /></radialGradient><clipPath
       clipPathUnits="userSpaceOnUse"
       id="clipPath3377"><path
         d="m 0,3000 3000,0 L 3000,0 0,0 0,3000 Z"
         id="path3379"
         inkscape:connector-curvature="0" /></clipPath><clipPath
       clipPathUnits="userSpaceOnUse"
       id="clipPath3387"><path
         d="m 0,3000 3000,0 L 3000,0 0,0 0,3000 Z"
         id="path3389"
         inkscape:connector-curvature="0" /></clipPath><clipPath
       clipPathUnits="userSpaceOnUse"
       id="clipPath3411"><path
         d="m 0,3000 3000,0 L 3000,0 0,0 0,3000 Z"
         id="path3413"
         inkscape:connector-curvature="0" /></clipPath><clipPath
       clipPathUnits="userSpaceOnUse"
       id="clipPath4331"><path
         d="m 0,3000 3000,0 L 3000,0 0,0 0,3000 Z"
         id="path4333"
         inkscape:connector-curvature="0" /></clipPath><clipPath
       clipPathUnits="userSpaceOnUse"
       id="clipPath4347"><path
         d="m 0,3000 3000,0 L 3000,0 0,0 0,3000 Z"
         id="path4349"
         inkscape:connector-curvature="0" /></clipPath><clipPath
       clipPathUnits="userSpaceOnUse"
       id="clipPath4363"><path
         d="m 0,3000 3000,0 L 3000,0 0,0 0,3000 Z"
         id="path4365"
         inkscape:connector-curvature="0" /></clipPath><clipPath
       clipPathUnits="userSpaceOnUse"
       id="clipPath4379"><path
         d="m 0,3000 3000,0 L 3000,0 0,0 0,3000 Z"
         id="path4381"
         inkscape:connector-curvature="0" /></clipPath><clipPath
       clipPathUnits="userSpaceOnUse"
       id="clipPath4395"><path
         d="m 0,3000 3000,0 L 3000,0 0,0 0,3000 Z"
         id="path4397"
         inkscape:connector-curvature="0" /></clipPath><clipPath
       clipPathUnits="userSpaceOnUse"
       id="clipPath4411"><path
         d="m 0,3000 3000,0 L 3000,0 0,0 0,3000 Z"
         id="path4413"
         inkscape:connector-curvature="0" /></clipPath><clipPath
       clipPathUnits="userSpaceOnUse"
       id="clipPath4787"><path
         d="m 0,3000 3000,0 L 3000,0 0,0 0,3000 Z"
         id="path4789"
         inkscape:connector-curvature="0" /></clipPath><clipPath
       clipPathUnits="userSpaceOnUse"
       id="clipPath4907"><path
         d="m 0,3000 3000,0 L 3000,0 0,0 0,3000 Z"
         id="path4909"
         inkscape:connector-curvature="0" /></clipPath><clipPath
       clipPathUnits="userSpaceOnUse"
       id="clipPath5883"><path
         d="m 0,3000 3000,0 L 3000,0 0,0 0,3000 Z"
         id="path5885"
         inkscape:connector-curvature="0" /></clipPath><clipPath
       clipPathUnits="userSpaceOnUse"
       id="clipPath5891"><path
         d="m 1269.23,1950.63 400.2,0 0,-645.05 -400.2,0 0,645.05 z"
         id="path5893"
         inkscape:connector-curvature="0" /></clipPath><clipPath
       clipPathUnits="userSpaceOnUse"
       id="clipPath5907"><path
         d="m 1282.3,1910.43 333.08,0 0,-335.96 -333.08,0 0,335.96 z"
         id="path5909"
         inkscape:connector-curvature="0" /></clipPath><clipPath
       clipPathUnits="userSpaceOnUse"
       id="clipPath5923"><path
         d="m 1275.54,1862.49 332.53,0 0,-370.26 -332.53,0 0,370.26 z"
         id="path5925"
         inkscape:connector-curvature="0" /></clipPath><clipPath
       clipPathUnits="userSpaceOnUse"
       id="clipPath6067"><path
         d="m 0,3000 3000,0 L 3000,0 0,0 0,3000 Z"
         id="path6069"
         inkscape:connector-curvature="0" /></clipPath><clipPath
       clipPathUnits="userSpaceOnUse"
       id="clipPath6083"><path
         d="m 789.129,2641.88 1575.421,0 0,-1679.73 -1575.421,0 0,1679.73 z"
         id="path6085"
         inkscape:connector-curvature="0" /></clipPath><clipPath
       clipPathUnits="userSpaceOnUse"
       id="clipPath6099"><path
         d="m 1823.37,2460.74 374.02,0 0,-471.9 -374.02,0 0,471.9 z"
         id="path6101"
         inkscape:connector-curvature="0" /></clipPath><clipPath
       clipPathUnits="userSpaceOnUse"
       id="clipPath6175"><path
         d="m 0,3000 3000,0 L 3000,0 0,0 0,3000 Z"
         id="path6177"
         inkscape:connector-curvature="0" /></clipPath></defs><sodipodi:namedview
     pagecolor="#ffffff"
     bordercolor="#666666"
     borderopacity="1"
     objecttolerance="10"
     gridtolerance="10"
     guidetolerance="10"
     inkscape:pageopacity="0"
     inkscape:pageshadow="2"
     inkscape:window-width="1920"
     inkscape:window-height="1017"
     id="namedview3345"
     showgrid="false"
     inkscape:zoom="0.25173333"
     inkscape:cx="1927.2478"
     inkscape:cy="2067.5259"
     inkscape:window-x="-8"
     inkscape:window-y="-8"
     inkscape:window-maximized="1"
     inkscape:current-layer="g3351" /><g
     id="g3351"
     inkscape:groupmode="layer"
     inkscape:label="Tree Guy"
     transform="matrix(1.25,0,0,-1.25,0,3750)"><g
       id="g3373"><g
         id="g3375"
         clip-path="url(#clipPath3377)"><path
           d="m 0,3000 3000,0 L 3000,0 0,0 0,3000 Z"
           style="fill:none;stroke:#9b9b9b;stroke-width:1;stroke-linecap:butt;stroke-linejoin:miter;stroke-miterlimit:10;stroke-dasharray:none;stroke-opacity:1"
           id="path3381"
           inkscape:connector-curvature="0" /></g></g><g
       id="g4391"><g
         id="g4393"
         clip-path="url(#clipPath4395)"><g
           id="g4399"
           transform="translate(1321.4883,1937.4089)"><path
             d="m 0,0 c -5.808,1.75 -12.265,-0.658 -15.374,-5.894 -2.082,-3.508 -2.41,-7.871 -1.139,-11.713 0.961,-2.907 2.527,-5.598 4.756,-7.725 2.776,-2.65 6.064,-3.871 9.698,-4.759 9.531,-2.327 19.338,-3.742 29.119,-4.437 18.555,-1.318 37.316,0.521 55.51,4.233 36.226,7.39 70.146,23.529 102.067,41.769 8.725,4.986 17.346,10.152 25.924,15.386 4.288,2.617 8.567,5.251 12.843,7.887 4.267,2.632 8.474,5.587 13.065,7.632 -0.995,-0.421 -1.991,-0.841 -2.986,-1.26 1.598,0.673 3.218,1.179 4.935,1.44 -1.107,-0.149 -2.215,-0.298 -3.323,-0.446 1.414,0.164 2.792,0.14 4.202,-0.043 l -3.323,0.446 c 2.306,-0.37 4.486,-1.119 6.634,-2.021 l -2.986,1.26 c 8.639,-3.736 17.071,-8.029 25.577,-12.059 8.641,-4.094 17.282,-8.189 25.924,-12.283 3.092,-1.465 6.225,-2.198 9.632,-1.26 2.899,0.799 6.041,3.04 7.47,5.745 1.533,2.901 2.301,6.415 1.26,9.632 -0.953,2.944 -2.839,6.094 -5.744,7.47 -11.882,5.63 -23.764,11.259 -35.645,16.889 -6.569,3.112 -13.083,6.439 -19.841,9.126 -3.627,1.442 -7.689,2.311 -11.596,2.221 -4.828,-0.11 -8.96,-1.493 -13.283,-3.482 C 217.892,61.23 212.829,57.591 207.698,54.431 202.469,51.211 197.233,48 191.977,44.824 181.47,38.476 170.877,32.265 160.089,26.407 147.943,19.811 135.546,13.673 122.809,8.298 c 0.996,0.42 1.991,0.84 2.986,1.26 C 105.13,0.877 83.556,-5.655 61.307,-8.662 c 1.108,0.149 2.215,0.298 3.323,0.447 -15.869,-2.102 -31.963,-2.384 -47.845,-0.254 l 3.323,-0.446 c -3.237,0.445 -6.459,0.981 -9.662,1.626 -2.937,0.593 -6.284,1.012 -9.053,2.179 0.995,-0.42 1.991,-0.84 2.986,-1.26 -0.271,0.143 -0.508,0.292 -0.755,0.474 0.843,-0.651 1.686,-1.303 2.53,-1.954 -0.318,0.267 -0.598,0.55 -0.866,0.867 0.652,-0.843 1.303,-1.686 1.955,-2.529 -0.368,0.482 -0.666,0.981 -0.91,1.537 0.421,-0.995 0.84,-1.991 1.261,-2.986 -0.124,0.326 -0.22,0.645 -0.285,0.987 0.149,-1.107 0.298,-2.215 0.447,-3.323 -0.024,0.219 -0.032,0.409 -0.014,0.627 -0.149,-1.107 -0.297,-2.215 -0.446,-3.323 0.015,0.116 0.047,0.227 0.096,0.332 -0.42,-0.995 -0.84,-1.99 -1.261,-2.986 0.028,0.045 0.055,0.09 0.082,0.135 -0.652,-0.844 -1.303,-1.687 -1.955,-2.53 0.035,0.037 0.07,0.073 0.105,0.11 -0.843,-0.652 -1.687,-1.303 -2.53,-1.955 0.043,0.028 0.086,0.056 0.129,0.084 -0.996,-0.42 -1.991,-0.84 -2.986,-1.26 0.104,0.05 0.215,0.078 0.331,0.082 -1.108,-0.149 -2.215,-0.298 -3.323,-0.447 0.068,-0.002 0.136,-0.004 0.204,-0.007 -1.107,0.149 -2.215,0.298 -3.323,0.447 0.168,-0.021 0.331,-0.06 0.489,-0.119 6.26,-1.886 13.902,2.257 15.376,8.731 C 10.265,-8.638 6.703,-2.02 0,0"
             style="fill:#2e2b2b;fill-opacity:1;fill-rule:nonzero;stroke:none"
             id="path4401"
             inkscape:connector-curvature="0" /></g><g
           id="g4403"
           transform="translate(1948.9175,1897.8629)"><path
             d="m 0,0 c -10.171,-5.623 -20.632,-10.706 -31.334,-15.238 0.995,0.42 1.991,0.84 2.986,1.26 -21.416,-9.035 -43.754,-15.854 -66.57,-20.298 -6.434,-1.253 -12.905,-2.315 -19.4,-3.195 1.107,0.149 2.215,0.298 3.323,0.447 -17.576,-2.356 -35.32,-3.329 -53.047,-2.867 -3.153,0.082 -6.63,-1.453 -8.839,-3.662 -2.168,-2.168 -3.801,-5.725 -3.661,-8.838 0.309,-6.919 5.49,-12.318 12.5,-12.5 24.203,-0.63 48.451,1.464 72.257,5.843 22.784,4.19 45.136,10.729 66.576,19.505 12.936,5.294 25.592,11.192 37.827,17.956 2.709,1.498 4.93,4.514 5.745,7.471 0.824,2.992 0.451,6.976 -1.261,9.632 C 13.362,1.317 6.127,3.388 0,0"
             style="fill:#2e2b2b;fill-opacity:1;fill-rule:nonzero;stroke:none"
             id="path4405"
             inkscape:connector-curvature="0" /></g></g></g></g><g
     inkscape:groupmode="layer"
     id="layer1"
     inkscape:label="Tree Guy 1" /></svg>