<?xml version="1.0" encoding="UTF-8" standalone="no"?>
<svg
   xmlns:dc="http://purl.org/dc/elements/1.1/"
   xmlns:cc="http://creativecommons.org/ns#"
   xmlns:rdf="http://www.w3.org/1999/02/22-rdf-syntax-ns#"
   xmlns:svg="http://www.w3.org/2000/svg"
   xmlns="http://www.w3.org/2000/svg"
   viewBox="0 0 3750 3750"
   height="3750"
   width="3750"
   xml:space="preserve"
   version="1.1"
   id="svg3343"><metadata
     id="metadata3349"><rdf:RDF><cc:Work
         rdf:about=""><dc:format>image/svg+xml</dc:format><dc:type
           rdf:resource="http://purl.org/dc/dcmitype/StillImage" /><dc:title></dc:title></cc:Work></rdf:RDF></metadata><defs
     id="defs3347"><radialGradient
       id="radialGradient3365"
       spreadMethod="pad"
       gradientTransform="matrix(1500,0,0,-1500,1500,1500)"
       gradientUnits="userSpaceOnUse"
       r="1"
       cy="0"
       cx="0"
       fy="0"
       fx="0"><stop
         id="stop3367"
         offset="0"
         style="stop-opacity:1;stop-color:#5cb13c" /><stop
         id="stop3369"
         offset="1"
         style="stop-opacity:1;stop-color:#e2ebbe" /></radialGradient><clipPath
       id="clipPath3377"
       clipPathUnits="userSpaceOnUse"><path
         id="path3379"
         d="m 0,3000 3000,0 L 3000,0 0,0 0,3000 Z" /></clipPath><clipPath
       id="clipPath3387"
       clipPathUnits="userSpaceOnUse"><path
         id="path3389"
         d="m 0,3000 3000,0 L 3000,0 0,0 0,3000 Z" /></clipPath><clipPath
       id="clipPath3411"
       clipPathUnits="userSpaceOnUse"><path
         id="path3413"
         d="m 0,3000 3000,0 L 3000,0 0,0 0,3000 Z" /></clipPath><clipPath
       id="clipPath4331"
       clipPathUnits="userSpaceOnUse"><path
         id="path4333"
         d="m 0,3000 3000,0 L 3000,0 0,0 0,3000 Z" /></clipPath><clipPath
       id="clipPath4347"
       clipPathUnits="userSpaceOnUse"><path
         id="path4349"
         d="m 0,3000 3000,0 L 3000,0 0,0 0,3000 Z" /></clipPath><clipPath
       id="clipPath4363"
       clipPathUnits="userSpaceOnUse"><path
         id="path4365"
         d="m 0,3000 3000,0 L 3000,0 0,0 0,3000 Z" /></clipPath><clipPath
       id="clipPath4379"
       clipPathUnits="userSpaceOnUse"><path
         id="path4381"
         d="m 0,3000 3000,0 L 3000,0 0,0 0,3000 Z" /></clipPath><clipPath
       id="clipPath4395"
       clipPathUnits="userSpaceOnUse"><path
         id="path4397"
         d="m 0,3000 3000,0 L 3000,0 0,0 0,3000 Z" /></clipPath><clipPath
       id="clipPath4411"
       clipPathUnits="userSpaceOnUse"><path
         id="path4413"
         d="m 0,3000 3000,0 L 3000,0 0,0 0,3000 Z" /></clipPath><clipPath
       id="clipPath4787"
       clipPathUnits="userSpaceOnUse"><path
         id="path4789"
         d="m 0,3000 3000,0 L 3000,0 0,0 0,3000 Z" /></clipPath><clipPath
       id="clipPath4907"
       clipPathUnits="userSpaceOnUse"><path
         id="path4909"
         d="m 0,3000 3000,0 L 3000,0 0,0 0,3000 Z" /></clipPath><clipPath
       id="clipPath5883"
       clipPathUnits="userSpaceOnUse"><path
         id="path5885"
         d="m 0,3000 3000,0 L 3000,0 0,0 0,3000 Z" /></clipPath><clipPath
       id="clipPath5891"
       clipPathUnits="userSpaceOnUse"><path
         id="path5893"
         d="m 1269.23,1950.63 400.2,0 0,-645.05 -400.2,0 0,645.05 z" /></clipPath><clipPath
       id="clipPath5907"
       clipPathUnits="userSpaceOnUse"><path
         id="path5909"
         d="m 1282.3,1910.43 333.08,0 0,-335.96 -333.08,0 0,335.96 z" /></clipPath><clipPath
       id="clipPath5923"
       clipPathUnits="userSpaceOnUse"><path
         id="path5925"
         d="m 1275.54,1862.49 332.53,0 0,-370.26 -332.53,0 0,370.26 z" /></clipPath><clipPath
       id="clipPath6067"
       clipPathUnits="userSpaceOnUse"><path
         id="path6069"
         d="m 0,3000 3000,0 L 3000,0 0,0 0,3000 Z" /></clipPath><clipPath
       id="clipPath6083"
       clipPathUnits="userSpaceOnUse"><path
         id="path6085"
         d="m 789.129,2641.88 1575.421,0 0,-1679.73 -1575.421,0 0,1679.73 z" /></clipPath><clipPath
       id="clipPath6099"
       clipPathUnits="userSpaceOnUse"><path
         id="path6101"
         d="m 1823.37,2460.74 374.02,0 0,-471.9 -374.02,0 0,471.9 z" /></clipPath><clipPath
       id="clipPath6175"
       clipPathUnits="userSpaceOnUse"><path
         id="path6177"
         d="m 0,3000 3000,0 L 3000,0 0,0 0,3000 Z" /></clipPath></defs><g
     transform="matrix(1.25,0,0,-1.25,0,3750)"
     id="g3351"><g
       id="g3373"><g
         clip-path="url(#clipPath3377)"
         id="g3375"><path
           id="path3381"
           style="fill:none;stroke:#9b9b9b;stroke-width:1;stroke-linecap:butt;stroke-linejoin:miter;stroke-miterlimit:10;stroke-dasharray:none;stroke-opacity:1"
           d="m 0,3000 3000,0 L 3000,0 0,0 0,3000 Z" /></g></g><g
       id="g3383"><g
         clip-path="url(#clipPath3387)"
         id="g3385"><g
           transform="translate(1012.9407,2552.8105)"
           id="g3391"><path
             id="path3393"
             style="fill:#683e22;fill-opacity:1;fill-rule:nonzero;stroke:none"
             d="M 0,0 C 28.909,-11.692 57.818,-23.383 86.727,-35.074 L 77.902,-1.647 C 17.586,-72.43 -39.553,-145.958 -93.216,-221.909 c -15.053,-21.305 -29.821,-42.81 -44.321,-64.495 11.513,-6.73 23.026,-13.459 34.539,-20.189 22.514,51.529 51.803,99.661 82.488,146.661 8.826,13.517 17.77,26.957 26.716,40.395 5.527,8.303 2.294,20.048 -5.151,25.8 -7.349,5.678 -19.765,6.033 -26.261,-1.564 -47.031,-54.994 -94.063,-109.99 -141.094,-164.984 -13.215,-15.454 -26.431,-30.907 -39.646,-46.36 l 31.411,-24.236 c 33.385,45.283 66.77,90.567 100.155,135.85 5.903,8.007 2.006,20.271 -5.151,25.801 -8.295,6.408 -18.524,4.933 -26.26,-1.564 -31.715,-26.635 -63.429,-53.27 -95.144,-79.905 l 31.412,-24.236 c 7.495,10.634 15.176,21.136 23.065,31.481 0.343,0.45 3.511,4.587 1.975,2.588 -1.536,-1.999 1.651,2.123 2,2.569 1.874,2.4 3.758,4.792 5.653,7.175 4.135,5.199 8.321,10.358 12.557,15.476 16.591,20.047 33.964,39.436 52.027,58.166 -9.428,9.428 -18.856,18.856 -28.284,28.284 -29.444,-31.395 -58.889,-62.791 -88.333,-94.187 9.428,-9.428 18.856,-18.856 28.285,-28.284 48.204,52.775 97.325,104.712 147.356,155.76 14.353,14.645 28.782,29.215 43.28,43.715 -9.428,9.428 -18.856,18.856 -28.284,28.285 -33.769,-37.522 -67.539,-75.043 -101.308,-112.565 -6.997,-7.775 -8.245,-20.715 0,-28.284 7.76,-7.123 20.657,-8.167 28.284,0 40.682,43.557 75.714,92.499 103.47,145.249 4.008,7.615 3.566,18.092 -3.127,24.236 -6.112,5.611 -16.927,8.427 -24.236,3.127 -27.616,-20.022 -47.995,-47.573 -58.006,-80.314 -2.485,-8.126 1.572,-18.561 9.191,-22.586 7.49,-3.957 18.297,-3.715 24.236,3.127 19.129,22.037 38.258,44.074 57.386,66.111 L 4.237,-6.347 c -9.566,-23.237 -19.131,-46.474 -28.697,-69.712 12.857,-3.544 25.715,-7.089 38.572,-10.633 1.649,4.149 -1.546,-3.266 0.18,0.464 0.597,1.29 1.184,2.581 1.812,3.857 1.254,2.55 2.6,5.055 4.033,7.508 1.314,2.249 2.703,4.454 4.16,6.614 0.795,1.178 1.611,2.341 2.447,3.49 0.415,0.577 0.838,1.148 1.267,1.714 -1.545,-1.978 -1.86,-2.393 -0.945,-1.245 3.533,4.171 7.079,8.252 11.049,12.022 2.06,1.957 4.19,3.841 6.385,5.645 0.498,0.41 3.809,2.777 1.322,1.077 -2.584,-1.766 2.124,1.47 2.57,1.781 -9.121,9.121 -18.242,18.242 -27.364,27.364 -12.887,-18.91 -25.775,-37.819 -38.663,-56.729 -5.613,-8.237 -2.228,-20.099 5.152,-25.8 7.797,-6.024 19.159,-5.535 26.26,1.564 17.431,17.423 34.861,34.847 52.291,52.27 7.41,7.407 7.959,20.979 0,28.285 -8.164,7.495 -20.16,7.689 -28.284,0 -44.672,-42.286 -87.425,-86.586 -128.051,-132.775 -41.389,-47.057 -80.584,-96.062 -117.537,-146.675 -20.362,-27.891 -39.993,-56.31 -58.901,-85.206 -5.741,-8.773 -2.045,-22.492 7.175,-27.363 10.205,-5.392 20.983,-2.027 27.364,7.175 31.019,44.734 62.039,89.468 93.059,134.203 5.677,8.188 2.18,20.136 -5.151,25.8 -7.622,5.889 -19.392,5.734 -26.261,-1.563 -48.843,-51.895 -94.853,-106.304 -138.296,-162.789 11.513,-6.73 23.026,-13.459 34.539,-20.189 7.294,11.814 14.887,23.441 22.807,34.846 3.882,5.59 7.839,11.129 11.869,16.613 2.096,2.851 4.212,5.688 6.348,8.51 1.149,1.519 2.281,3.056 3.466,4.547 -2.156,-2.711 -0.098,-0.131 0.877,1.115 17.115,21.874 35.433,42.781 54.815,62.673 -9.428,9.428 -18.856,18.856 -28.284,28.284 -42.213,-51.037 -84.425,-102.074 -126.638,-153.111 l 31.412,-24.236 c 42.949,58.326 85.899,116.652 128.849,174.978 5.898,8.01 2.01,20.268 -5.151,25.801 -7.131,5.509 -20.069,6.259 -26.261,-1.564 -43.399,-54.839 -86.799,-109.678 -130.199,-164.517 -3.424,-4.327 -5.858,-8.39 -5.858,-14.142 0,-4.906 2.179,-10.765 5.858,-14.143 7.275,-6.678 21.281,-8.704 28.284,0 46.282,57.526 92.564,115.05 138.846,172.575 -9.428,9.429 -18.857,18.857 -28.285,28.285 -50.831,-65.551 -99.478,-132.755 -145.539,-201.746 -12.91,-19.338 -25.618,-38.809 -38.136,-58.402 -5.377,-8.416 -2.407,-19.961 5.151,-25.801 7.405,-5.721 19.686,-5.972 26.26,1.564 54.782,62.793 109.564,125.585 164.346,188.378 15.37,17.618 30.741,35.237 46.111,52.854 l -31.411,24.237 c -43.999,-66.132 -87.999,-132.264 -131.998,-198.396 -12.452,-18.717 -24.905,-37.434 -37.358,-56.15 -5.525,-8.305 -2.295,-20.047 5.152,-25.801 7.156,-5.528 20.033,-6.233 26.26,1.564 49.556,62.056 99.113,124.111 148.669,186.167 14.025,17.563 28.05,35.126 42.076,52.689 l -31.412,24.236 c -42.572,-55.692 -85.145,-111.385 -127.717,-167.077 -12.138,-15.878 -24.275,-31.757 -36.413,-47.635 11.513,-6.73 23.026,-13.459 34.539,-20.189 40.803,56.374 81.607,112.748 122.41,169.121 11.608,16.038 23.216,32.075 34.824,48.112 5.835,8.062 2.059,20.23 -5.151,25.801 -7.096,5.482 -20.119,6.295 -26.26,-1.564 -65.04,-83.235 -125.775,-169.752 -181.473,-259.517 -15.483,-24.952 -30.575,-50.144 -45.294,-75.553 -5.247,-9.058 -2.399,-22.306 7.175,-27.364 10.28,-5.431 20.895,-1.969 27.364,7.175 42.301,59.801 84.603,119.602 126.904,179.403 -11.513,6.729 -23.025,13.459 -34.538,20.189 -55.693,-80.418 -111.005,-161.099 -165.927,-242.044 -15.405,-22.705 -30.779,-45.43 -46.124,-68.176 11.513,-6.729 23.026,-13.459 34.539,-20.188 47.869,73.203 93.727,147.716 137.47,223.457 12.457,21.569 24.738,43.238 36.856,64.998 5.09,9.141 2.509,22.247 -7.175,27.364 -9.776,5.165 -21.495,2.343 -27.364,-7.175 -44.464,-72.106 -92.199,-142.181 -143.076,-209.915 -7.171,-9.546 -14.404,-19.044 -21.697,-28.497 0.463,0.6 2.32,2.994 -0.002,0 -1.046,-1.348 -2.09,-2.696 -3.137,-4.042 -1.745,-2.244 -3.494,-4.486 -5.246,-6.724 -3.854,-4.925 -7.726,-9.836 -11.612,-14.736 10.471,-8.079 20.941,-16.157 31.412,-24.236 45.743,76.979 91.487,153.958 137.23,230.936 12.808,21.555 25.616,43.109 38.425,64.663 5.349,9.001 2.326,22.343 -7.175,27.364 -10.482,5.537 -20.661,1.81 -27.364,-7.175 -44.589,-59.766 -85.92,-121.947 -123.688,-186.242 -10.586,-18.022 -20.886,-36.209 -30.917,-54.545 11.513,-6.73 23.026,-13.459 34.539,-20.189 27.468,61.12 58.553,120.597 93.133,177.994 9.88,16.398 20.048,32.62 30.478,48.674 5.712,8.79 2.067,22.481 -7.175,27.363 -10.474,5.534 -20.668,1.817 -27.364,-7.175 -39.305,-52.784 -78.611,-105.568 -117.916,-158.353 l 34.539,-20.189 86.574,152.225 c 5.174,9.097 2.451,22.278 -7.175,27.364 -10.27,5.426 -20.906,1.976 -27.364,-7.176 -39.962,-56.632 -77.88,-114.689 -113.67,-174.046 -5.407,-8.969 -2.284,-22.366 7.176,-27.364 10.176,-5.377 21.016,-2.048 27.363,7.175 40.72,59.165 81.44,118.33 122.161,177.494 -11.513,6.73 -23.026,13.46 -34.539,20.189 -44.018,-64.692 -86.533,-130.403 -127.467,-197.09 -11.608,-18.911 -23.087,-37.901 -34.445,-56.963 11.513,-6.729 23.026,-13.459 34.539,-20.188 20.564,35.038 43.04,68.917 67.327,101.485 -11.512,6.729 -23.025,13.459 -34.538,20.188 -29.096,-49.812 -60.862,-98.049 -95.2,-144.404 -4.857,-6.557 -9.765,-13.077 -14.723,-19.557 -0.513,-0.671 -1.027,-1.341 -1.541,-2.01 -0.242,-0.316 -2.425,-3.158 -1.011,-1.321 1.401,1.821 -0.319,-0.412 -0.502,-0.647 -0.862,-1.112 -1.725,-2.223 -2.59,-3.332 -2.595,-3.329 -5.205,-6.646 -7.825,-9.955 l 31.412,-24.237 c 30.548,42.697 61.096,85.394 91.644,128.091 -11.513,6.73 -23.026,13.459 -34.539,20.189 -42.676,-63.607 -85.351,-127.213 -128.027,-190.819 11.513,-6.73 23.025,-13.459 34.538,-20.189 5.703,12.522 11.405,25.044 17.107,37.566 4.326,9.5 3.034,21.97 -7.175,27.364 -9.267,4.896 -22.116,2.687 -27.364,-7.175 -8.527,-16.028 -17.054,-32.055 -25.582,-48.082 -4.039,-7.592 -3.544,-18.112 3.127,-24.237 6.976,-6.403 15.847,-7.08 24.237,-3.127 11.484,5.411 22.024,13.564 30.14,23.328 -11.142,2.942 -22.285,5.883 -33.427,8.825 1.244,-6.01 2.489,-12.02 3.733,-18.03 2.06,-9.949 14.934,-17.558 24.602,-13.969 20.153,7.482 37.041,20.745 48.011,39.399 -11.513,6.73 -23.026,13.46 -34.539,20.189 -2.706,-6.234 -5.736,-12.315 -9.174,-18.18 -1.586,-2.705 -3.247,-5.365 -4.984,-7.975 -0.869,-1.305 -1.757,-2.597 -2.663,-3.876 -0.529,-0.748 -4.67,-6.253 -1.555,-2.236 -3.402,-4.387 -5.858,-8.336 -5.858,-14.142 0,-4.906 2.179,-10.765 5.858,-14.143 7.712,-7.079 20.716,-8.221 28.284,0 7.73,8.396 15.459,16.792 23.188,25.189 -10.47,8.078 -20.941,16.157 -31.411,24.236 l -14.379,-25.815 c -4.879,-8.76 -2.77,-19.681 5.151,-25.8 8.103,-6.261 18.765,-5.172 26.261,1.563 4.168,3.746 8.337,7.491 12.505,11.237 -11.142,6.486 -22.285,12.972 -33.427,19.459 -0.497,-2.678 -1.102,-5.319 -1.898,-7.925 -0.361,-1.183 -0.791,-2.34 -1.177,-3.514 -1.525,-4.641 1.938,3.665 -0.273,-0.691 -1.122,-2.209 -2.225,-4.404 -3.527,-6.516 -0.781,-1.266 -1.621,-2.477 -2.456,-3.707 -2.314,-3.407 2.355,2.813 -0.525,-0.621 -6.716,-8.006 -8.435,-20.542 0,-28.285 7.549,-6.93 20.923,-8.404 28.284,0 24.354,27.807 46.959,57.192 67.571,87.876 -12.185,5.137 -24.37,10.274 -36.555,15.411 -0.642,-1.704 -1.293,-3.404 -1.968,-5.096 -0.214,-0.538 -2.221,-5.285 -1.074,-2.662 1.152,2.635 -1.277,-2.837 -1.5,-3.328 -0.646,-1.421 -1.305,-2.836 -1.979,-4.244 -2.805,-5.867 -5.839,-11.624 -9.096,-17.254 -3.256,-5.63 -6.731,-11.133 -10.421,-16.489 -1.771,-2.57 -3.589,-5.108 -5.456,-7.61 -1.112,-1.491 -2.573,-3.711 -0.668,-0.909 -1.158,-1.703 -2.614,-3.269 -3.921,-4.858 10.47,-8.079 20.941,-16.158 31.411,-24.237 35.096,50.435 71.144,100.205 108.148,149.257 10.572,14.015 21.224,27.97 31.948,41.869 l -34.539,20.189 c -33.351,-44.791 -66.702,-89.581 -100.053,-134.372 11.513,-6.729 23.026,-13.459 34.539,-20.188 37.416,60.348 74.833,120.695 112.249,181.043 5.521,8.904 2.204,22.409 -7.175,27.364 -10.573,5.586 -20.554,1.736 -27.364,-7.175 -41.705,-54.573 -83.411,-109.145 -125.117,-163.717 -11.837,-15.49 -23.675,-30.98 -35.513,-46.47 l 34.539,-20.189 c 35.174,55.824 70.349,111.648 105.524,167.472 9.913,15.732 19.825,31.465 29.738,47.197 5.587,8.866 2.157,22.433 -7.175,27.364 -10.199,5.389 -20.989,2.03 -27.363,-7.175 -35.23,-50.875 -70.459,-101.75 -105.688,-152.625 -10.042,-14.501 -20.083,-29.001 -30.124,-43.502 11.513,-6.73 23.026,-13.459 34.539,-20.189 38.398,61.495 76.797,122.991 115.196,184.486 5.549,8.887 2.183,22.419 -7.175,27.363 -10.44,5.516 -20.708,1.844 -27.364,-7.175 -33.921,-45.963 -67.841,-91.926 -101.762,-137.889 l 34.539,-20.189 c 24.54,38.571 49.08,77.141 73.62,115.712 5.626,8.842 2.128,22.449 -7.175,27.364 -10.526,5.561 -20.608,1.774 -27.364,-7.175 -26.427,-35.009 -52.854,-70.018 -79.281,-105.026 -2.798,-3.707 -3.397,-11.144 -2.016,-15.411 1.364,-4.217 3.645,-7.668 7.167,-10.389 7.094,-5.481 20.123,-6.298 26.261,1.563 39.5,50.595 79.001,101.19 118.501,151.785 3.41,4.368 5.858,8.354 5.858,14.143 0,4.905 -2.179,10.764 -5.858,14.142 -7.178,6.589 -21.408,8.807 -28.284,0 L -540.828,-750.49 c 10.471,-8.078 20.941,-16.157 31.412,-24.236 26.427,35.009 52.854,70.017 79.281,105.026 -11.513,6.73 -23.026,13.459 -34.539,20.189 -24.54,-38.571 -49.08,-77.141 -73.62,-115.712 -5.626,-8.842 -2.128,-22.448 7.175,-27.364 10.44,-5.516 20.708,-1.843 27.364,7.175 33.92,45.963 67.841,91.927 101.762,137.89 -11.513,6.729 -23.026,13.459 -34.539,20.188 -38.399,-61.495 -76.797,-122.99 -115.196,-184.485 -5.55,-8.887 -2.183,-22.419 7.175,-27.364 10.199,-5.389 20.989,-2.03 27.364,7.175 35.229,50.875 70.458,101.75 105.688,152.625 10.041,14.501 20.082,29.001 30.123,43.502 l -34.538,20.189 c -35.175,-55.824 -70.35,-111.649 -105.525,-167.473 -9.912,-15.732 -19.825,-31.464 -29.738,-47.196 -5.587,-8.866 -2.157,-22.434 7.175,-27.364 10.573,-5.587 20.554,-1.736 27.364,7.175 41.705,54.572 83.411,109.145 125.117,163.717 11.837,15.49 23.675,30.98 35.513,46.47 -11.513,6.73 -23.026,13.459 -34.539,20.189 -37.416,-60.348 -74.832,-120.696 -112.249,-181.044 -5.52,-8.904 -2.204,-22.408 7.175,-27.363 10.474,-5.534 20.669,-1.817 27.364,7.175 33.351,44.79 66.702,89.581 100.053,134.371 6.272,8.424 1.652,22.7 -7.175,27.364 -4.642,2.452 -10.265,3.682 -15.411,2.016 -5.3,-1.715 -8.584,-4.824 -11.953,-9.191 -37.533,-48.649 -74.145,-98.005 -109.784,-148.057 -10.183,-14.301 -20.284,-28.659 -30.311,-43.069 -5.691,-8.178 -2.171,-20.144 5.151,-25.8 7.24,-5.594 19.915,-6.147 26.26,1.563 19.92,24.207 35.316,50.756 46.37,80.101 3.506,9.31 -3.157,20.04 -11.58,23.595 -9.49,4.005 -19.356,0.182 -24.975,-8.183 -9.681,-14.412 -19.82,-28.492 -30.35,-42.294 -1.38,-1.796 -1.364,-1.776 0.049,0.059 -0.687,-0.884 -1.376,-1.767 -2.067,-2.648 -1.381,-1.763 -2.769,-3.52 -4.165,-5.271 -2.443,-3.064 -4.907,-6.112 -7.394,-9.141 -5.684,-6.924 -11.487,-13.747 -17.389,-20.485 9.428,-9.428 18.856,-18.857 28.284,-28.285 9.893,11.795 17.309,25.36 20.143,40.625 1.576,8.488 -0.958,18.236 -9.191,22.586 -8.183,4.324 -17.377,3.037 -24.237,-3.127 -4.168,-3.746 -8.337,-7.491 -12.506,-11.237 10.471,-8.078 20.941,-16.157 31.412,-24.236 4.793,8.605 9.586,17.21 14.379,25.815 4.879,8.76 2.77,19.681 -5.152,25.8 -7.558,5.84 -19.477,5.805 -26.26,-1.563 -7.729,-8.396 -15.458,-16.792 -23.188,-25.188 9.428,-9.428 18.856,-18.857 28.284,-28.285 9.785,12.616 18.258,25.681 24.631,40.363 2.224,5.124 3.564,9.79 2.016,15.412 -1.277,4.639 -4.864,9.666 -9.191,11.952 -9.608,5.077 -21.697,2.46 -27.364,-7.175 -0.928,-1.578 -1.886,-3.132 -2.926,-4.64 -0.519,-0.752 -1.054,-1.494 -1.603,-2.225 1.74,2.231 1.925,2.509 0.557,0.836 -2.512,-2.688 -4.94,-5.362 -7.745,-7.76 -0.696,-0.594 -1.403,-1.175 -2.121,-1.741 2.243,1.723 2.49,1.948 0.742,0.676 -1.551,-0.971 -3.038,-2.029 -4.622,-2.955 -1.583,-0.925 -3.232,-1.703 -4.842,-2.574 -1.988,-0.907 -1.649,-0.791 1.017,0.348 -0.847,-0.345 -1.702,-0.672 -2.562,-0.982 8.2,-4.656 16.401,-9.312 24.602,-13.969 -1.244,6.01 -2.489,12.021 -3.733,18.031 -2.908,14.043 -23.995,20.172 -33.428,8.825 -1.698,-2.043 -3.464,-4.015 -5.359,-5.88 -0.863,-0.85 -5.873,-4.262 -5.963,-5.265 0.095,1.055 3.139,2.298 -0.034,0.129 -0.995,-0.68 -2.005,-1.34 -3.034,-1.97 -2.473,-1.514 -5.033,-2.852 -7.655,-4.087 9.121,-9.122 18.243,-18.243 27.364,-27.364 l 25.582,48.082 c -11.513,6.729 -23.026,13.459 -34.539,20.189 -5.702,-12.522 -11.404,-25.044 -17.106,-37.566 -4.326,-9.5 -3.034,-21.97 7.175,-27.364 10.082,-5.327 21.127,-2.119 27.363,7.175 42.676,63.606 85.352,127.213 128.028,190.819 5.843,8.709 1.97,22.532 -7.175,27.364 -10.322,5.454 -20.845,1.936 -27.364,-7.175 -30.548,-42.697 -61.096,-85.394 -91.644,-128.091 -5.792,-8.096 -2.092,-20.205 5.151,-25.8 7.132,-5.511 20.068,-6.259 26.261,1.563 37.221,47.018 72.036,95.883 103.875,146.707 8.813,14.069 17.397,28.28 25.77,42.616 5.281,9.039 2.376,22.317 -7.175,27.364 -10.479,5.536 -20.661,1.811 -27.363,-7.176 -24.288,-32.567 -46.764,-66.446 -67.328,-101.485 -5.299,-9.029 -2.362,-22.325 7.175,-27.364 9.654,-5.1 21.642,-2.428 27.364,7.176 40.052,67.219 81.662,133.508 124.823,198.774 12.24,18.508 24.606,36.933 37.089,55.278 5.9,8.673 1.927,22.555 -7.175,27.364 -10.177,5.377 -21.017,2.048 -27.364,-7.175 -40.72,-59.165 -81.44,-118.33 -122.161,-177.494 l 34.539,-20.189 c 35.79,59.357 73.708,117.415 113.67,174.047 -11.513,6.729 -23.026,13.459 -34.539,20.188 -28.858,-50.741 -57.716,-101.482 -86.574,-152.224 -5.174,-9.097 -2.451,-22.278 7.175,-27.364 10.474,-5.533 20.669,-1.816 27.364,7.175 39.305,52.785 78.611,105.569 117.916,158.354 -11.513,6.729 -23.026,13.459 -34.539,20.188 -36.506,-56.19 -69.672,-114.532 -99.198,-174.686 -8.435,-17.186 -16.565,-34.519 -24.413,-51.981 -4.278,-9.52 -3.065,-21.953 7.175,-27.364 9.361,-4.945 22.002,-2.627 27.364,7.175 35.789,65.417 75.129,128.875 117.874,189.975 11.981,17.126 24.233,34.06 36.731,50.812 -11.513,6.729 -23.026,13.459 -34.539,20.189 -45.744,-76.979 -91.487,-153.958 -137.231,-230.937 l -38.424,-64.662 c -5.113,-8.604 -2.602,-19.811 5.151,-25.801 7.137,-5.514 20.061,-6.253 26.26,1.564 53.879,67.936 104.779,138.204 152.192,210.805 13.211,20.231 26.15,40.638 38.833,61.204 -11.513,6.73 -23.026,13.459 -34.539,20.189 -42.553,-76.416 -87.199,-151.662 -133.917,-225.605 -13.304,-21.056 -26.777,-42.005 -40.409,-62.851 -5.737,-8.774 -2.047,-22.491 7.175,-27.363 10.103,-5.338 21.104,-2.104 27.364,7.175 54.707,81.091 109.797,161.924 165.276,242.489 15.561,22.598 31.153,45.174 46.774,67.73 5.974,8.625 1.875,22.583 -7.175,27.364 -10.279,5.431 -20.895,1.969 -27.363,-7.175 -42.302,-59.801 -84.603,-119.602 -126.905,-179.403 11.513,-6.73 23.026,-13.459 34.539,-20.189 51.801,89.425 108.365,176.075 169.447,259.437 8.678,11.844 17.447,23.62 26.306,35.329 4.429,5.854 8.88,11.692 13.355,17.512 0.688,0.896 1.378,1.79 2.066,2.685 1.386,1.797 1.379,1.789 -0.022,-0.024 0.691,0.893 1.383,1.786 2.075,2.679 2.422,3.124 4.851,6.242 7.285,9.357 l -31.412,24.236 -122.41,-169.121 c -11.608,-16.037 -23.216,-32.075 -34.824,-48.112 -6.155,-8.504 -1.739,-22.654 7.175,-27.364 10.574,-5.587 20.553,-1.735 27.364,7.175 42.572,55.693 85.145,111.385 127.717,167.078 12.138,15.878 24.275,31.756 36.413,47.635 2.811,3.677 3.389,11.17 2.016,15.411 -1.364,4.216 -3.645,7.667 -7.167,10.389 -7.156,5.529 -20.034,6.234 -26.26,-1.564 -49.557,-62.055 -99.113,-124.111 -148.669,-186.167 -14.026,-17.563 -28.051,-35.126 -42.076,-52.689 10.47,-8.078 20.941,-16.157 31.411,-24.236 43.999,66.132 87.999,132.264 131.998,198.396 12.452,18.717 24.905,37.434 37.358,56.15 5.525,8.305 2.295,20.047 -5.152,25.801 -7.405,5.721 -19.686,5.972 -26.26,-1.564 -54.782,-62.793 -109.564,-125.586 -164.346,-188.378 -15.37,-17.618 -30.741,-35.237 -46.111,-52.855 10.47,-8.079 20.941,-16.157 31.411,-24.236 43.583,68.214 89.549,134.901 137.842,199.867 6.85,9.215 13.746,18.395 20.688,27.541 3.297,4.344 6.605,8.68 9.923,13.008 1.747,2.278 3.496,4.554 5.248,6.828 0.599,0.777 2.96,3.831 0.556,0.724 1.054,1.362 2.109,2.723 3.165,4.084 3.402,4.388 5.857,8.336 5.857,14.142 0,4.906 -2.178,10.765 -5.857,14.143 -7.275,6.678 -21.281,8.705 -28.285,0 l -138.845,-172.575 c 9.428,-9.428 18.856,-18.856 28.284,-28.285 l 130.2,164.518 c -10.471,8.078 -20.941,16.157 -31.412,24.236 -42.95,-58.326 -85.899,-116.652 -128.849,-174.978 -5.899,-8.01 -2.01,-20.268 5.151,-25.801 7.254,-5.604 19.895,-6.132 26.26,1.564 42.213,51.037 84.425,102.074 126.638,153.111 6.658,8.05 8.472,20.507 0,28.284 -7.898,7.251 -20.484,8.006 -28.284,0 -40.304,-41.364 -76.096,-87.259 -106.437,-136.399 -5.504,-8.914 -2.216,-22.402 7.175,-27.364 4.641,-2.453 10.264,-3.682 15.411,-2.016 5.297,1.714 8.591,4.821 11.953,9.191 0.694,0.904 1.389,1.807 2.085,2.71 -1.386,-1.793 -1.383,-1.789 0.01,0.01 1.399,1.8 2.796,3.601 4.198,5.398 2.454,3.145 4.917,6.283 7.389,9.414 5.298,6.709 10.637,13.386 16.017,20.029 10.939,13.508 22.047,26.878 33.322,40.108 22.364,26.242 45.389,51.917 69.021,77.024 -10.471,8.079 -20.941,16.158 -31.412,24.237 -31.02,-44.735 -62.039,-89.469 -93.059,-134.204 11.513,-6.729 23.026,-13.459 34.539,-20.188 16.692,25.509 33.945,50.649 51.772,75.378 8.993,12.474 18.127,24.845 27.404,37.109 2.115,2.797 4.238,5.589 6.368,8.375 1.147,1.5 2.296,2.999 3.448,4.496 0.657,0.855 1.311,1.714 1.975,2.565 -1.054,-1.351 -1.443,-1.863 -0.156,-0.207 4.634,5.965 9.291,11.912 13.987,17.829 37.899,47.758 77.97,93.795 120.045,137.919 23.831,24.991 48.313,49.357 73.391,73.095 -9.428,9.429 -18.856,18.856 -28.284,28.285 -17.43,-17.424 -34.861,-34.848 -52.291,-52.271 10.47,-8.079 20.941,-16.158 31.411,-24.237 12.888,18.91 25.776,37.819 38.663,56.729 4.776,7.007 3.051,18.565 -3.127,24.236 -6.195,5.687 -16.814,8.309 -24.237,3.128 -24.183,-16.883 -41.784,-39.476 -52.663,-66.833 -3.875,-9.746 4.231,-22.384 13.969,-24.602 11.644,-2.652 20.325,3.578 24.603,13.969 9.565,23.237 19.13,46.474 28.696,69.712 C 46.006,-9.211 40.733,1.846 33.617,5.606 26.126,9.563 15.319,9.32 9.38,2.479 l -57.386,-66.112 33.428,-19.459 c 0.973,3.182 2.034,6.332 3.237,9.435 0.343,0.886 0.696,1.768 1.059,2.646 -1.099,-2.587 -1.205,-2.872 -0.319,-0.854 0.621,1.282 1.197,2.586 1.827,3.865 3.045,6.18 6.579,12.117 10.553,17.745 0.649,0.919 3.774,5.466 0.696,1.102 0.952,1.35 2.081,2.609 3.146,3.871 2.146,2.542 4.386,5.001 6.718,7.373 2.332,2.371 4.752,4.652 7.26,6.837 1.254,1.093 2.546,2.137 3.821,3.205 1.709,1.354 1.485,1.186 -0.673,-0.502 0.76,0.571 1.526,1.133 2.298,1.687 -9.121,9.121 -18.242,18.242 -27.363,27.363 -13.363,-25.394 -28.357,-49.91 -44.952,-73.323 -4.186,-5.906 -8.471,-11.743 -12.853,-17.505 -0.614,-0.808 -3.555,-4.714 -0.793,-1.055 -0.969,-1.284 -1.979,-2.539 -2.974,-3.802 -2.324,-2.947 -4.674,-5.875 -7.049,-8.782 -9.162,-11.214 -18.711,-22.103 -28.595,-32.686 9.428,-9.428 18.856,-18.856 28.284,-28.284 33.77,37.521 67.539,75.043 101.308,112.564 6.998,7.775 8.246,20.715 0,28.285 -7.983,7.328 -20.379,7.905 -28.284,0 -50.538,-50.546 -100.197,-101.968 -148.927,-154.26 -13.979,-15.001 -27.881,-30.076 -41.71,-45.216 -7.056,-7.725 -8.205,-20.752 0,-28.284 7.773,-7.136 20.64,-8.152 28.285,0 29.444,31.396 58.888,62.791 88.332,94.187 7.16,7.635 8.134,20.817 0,28.284 -7.865,7.22 -20.525,8.046 -28.284,0 -37.697,-39.088 -72.25,-81.165 -103.532,-125.55 -5.737,-8.141 -2.134,-20.172 5.151,-25.801 8.295,-6.408 18.524,-4.933 26.26,1.564 31.715,26.635 63.429,53.27 95.144,79.905 l -31.412,24.236 c -33.385,-45.283 -66.769,-90.567 -100.154,-135.851 -5.903,-8.006 -2.007,-20.27 5.151,-25.8 7.349,-5.677 19.764,-6.032 26.26,1.564 47.032,54.995 94.063,109.99 141.094,164.985 13.216,15.453 26.431,30.906 39.646,46.359 -10.47,8.079 -20.941,16.158 -31.411,24.237 -31.12,-46.749 -62.319,-93.628 -88.315,-143.485 -7.449,-14.287 -14.438,-28.807 -20.889,-43.571 -4.177,-9.561 -3.133,-21.918 7.175,-27.364 10.07,-5.32 21.143,-2.129 27.364,7.175 25.374,37.95 51.589,75.334 78.653,112.098 13.447,18.268 27.115,36.371 40.956,54.343 2.049,2.66 -2.846,-3.669 0.515,0.663 0.695,0.896 1.39,1.792 2.085,2.688 1.739,2.24 3.482,4.477 5.227,6.711 3.665,4.693 7.344,9.375 11.037,14.046 7.21,9.119 14.473,18.197 21.788,27.232 16.057,19.833 32.372,39.458 48.923,58.881 4.731,5.551 7.157,12.148 5.144,19.459 C 109.313,-3.147 104.049,0.792 97.361,3.497 68.452,15.188 39.543,26.88 10.634,38.571 0.908,42.504 -11.76,34.299 -13.969,24.602 -16.609,13.013 -10.414,4.212 0,0" /></g><g
           transform="translate(966.5183,2278.634)"
           id="g3395"><path
             id="path3397"
             style="fill:#cdcccd;fill-opacity:1;fill-rule:nonzero;stroke:none"
             d="m 0,0 c 7.99,-4.01 15.98,-8.02 23.97,-12.03 4.613,-2.315 10.294,-3.672 15.411,-2.016 4.216,1.365 7.668,3.646 10.389,7.168 2.606,3.373 4.491,7.737 4.294,12.118 -0.238,5.323 -2.045,10.284 -5.857,14.142 -4.242,4.291 -9.114,6.909 -14.717,8.938 -2.015,0.73 -4.093,0.927 -6.212,1.212 -2.257,0.303 -4.299,0.596 -6.549,0.362 C 16.441,29.449 11.535,28.939 7.785,26.521 2.223,22.935 -0.099,18.549 -2.386,12.796 -3.784,9.28 -4.304,5.187 -3.904,1.426 c 0.607,-5.714 1.68,-10.19 4.489,-15.323 1.808,-3.303 4.266,-6.497 7.109,-8.981 4.495,-3.928 8.329,-6.182 13.892,-8.234 1.026,-0.379 2.06,-0.641 3.139,-0.817 2.653,-0.434 5.45,-0.987 8.168,-0.796 5.895,0.413 10.648,1.747 15.919,4.445 1.706,0.874 3.15,2.055 4.667,3.227 1.572,1.215 3.154,2.362 4.511,3.817 2.63,2.82 5.146,6.023 6.859,9.511 1.721,3.505 3.414,7.29 4.133,11.174 0.704,3.806 1.394,7.907 1.012,11.823 -0.273,2.793 -0.557,5.652 -1.243,8.388 -0.704,2.806 -2.024,5.596 -3.173,8.179 -1.7,3.82 -4.386,7.22 -7.113,10.34 -0.841,0.964 -1.759,1.861 -2.743,2.678 -2.201,1.829 -4.473,3.71 -6.949,5.173 -8.505,5.026 -18.881,6.689 -28.477,4.208 C 14.965,48.859 11.031,46.189 6.854,42.796 4.107,40.565 1.884,37.578 0.04,34.595 c -1.869,-3.022 -3.335,-6.484 -4.164,-9.946 -0.594,-2.478 -0.857,-5.077 -1.099,-7.604 -0.1,-1.047 -0.083,-2.09 0.023,-3.136 0.552,-5.457 1.407,-9.726 4.151,-14.583 2.573,-4.553 6.303,-8.011 10.644,-10.824 4.789,-3.104 10.514,-4.413 16.135,-4.694 2.754,-0.137 5.673,0.415 8.333,0.909 1.182,0.219 2.323,0.553 3.445,0.986 2.606,1.007 5.298,2.052 7.736,3.455 2.597,1.496 4.977,3.478 7.303,5.317 2.13,1.685 4.083,3.559 5.831,5.64 4.957,5.904 8.867,12.205 12.08,19.191 3.302,7.179 6.245,14.558 8.242,22.214 0.817,3.131 1.49,6.301 2.013,9.495 0.732,4.475 1.769,9.17 1.37,13.733 -0.464,5.323 -1.212,8.036 -3.364,12.821 -1.18,2.626 -3.057,5.007 -5.146,6.977 -5.122,4.828 -11.354,7.176 -18.327,7.516 C 49.842,92.326 44.563,90.441 39.823,88.078 36.384,86.365 33.146,83.829 30.545,81.015 26.5,76.637 24.25,72.516 22.13,67.023 21.164,64.519 20.494,61.915 19.801,59.325 19.134,56.834 18.442,54.351 17.47,51.958 l 2.016,4.778 c -0.731,-1.718 -1.604,-3.333 -2.739,-4.818 1.042,1.349 2.085,2.698 3.127,4.048 -0.694,-0.856 -1.441,-1.621 -2.283,-2.33 -2.479,-2.496 -4.194,-5.438 -5.144,-8.826 -0.952,-3.544 -0.952,-7.089 0,-10.633 1.799,-4.625 3.156,-7.901 6.727,-11.494 3.371,-3.391 6.659,-5.147 11.085,-6.733 5.451,-1.953 11.347,-1.483 16.896,-0.355 4.255,0.866 8.456,2.806 12.166,5.025 3.842,2.298 7.616,5.135 10.633,8.464 3.63,4.005 6.796,8.505 9.948,12.896 2.355,3.281 4.601,6.641 6.734,10.071 4.369,7.021 8.263,14.34 11.647,21.886 4.411,9.836 8.321,19.869 11.249,30.249 0.238,1.772 0.476,3.545 0.714,5.317 0.104,2.754 -0.47,5.322 -1.722,7.706 -1.622,3.842 -4.392,7.56 -8.184,9.563 -3.142,1.661 -6.543,2.572 -10.094,2.731 -5.048,0.226 -10.6,-2.407 -14.142,-5.858 -3.912,-3.811 -7.299,-8.131 -10.492,-12.552 -2.356,-3.263 -4.41,-6.741 -6.132,-10.378 -2.336,-4.933 -4.483,-10.051 -5.946,-15.322 -1.504,-5.42 -2.261,-11.062 -2.788,-16.646 0.012,-3.611 0.922,-6.976 2.731,-10.095 1.778,-3.005 4.17,-5.397 7.175,-7.175 6.022,-3.524 14.187,-3.77 20.189,0 11.894,7.473 22.966,16.683 32.122,27.358 9.141,10.657 17.106,22.343 22.781,35.214 3.506,7.952 6.631,15.988 8.747,24.426 0.841,3.354 0.922,7.285 0,10.633 -1.159,4.21 -3.754,7.752 -7.167,10.389 -1.248,1.24 -2.719,2.097 -4.413,2.572 -1.56,0.905 -3.242,1.36 -5.047,1.365 -4.136,0.556 -9.205,0.111 -12.753,-2.373 -4.038,-2.828 -8.006,-5.868 -11.579,-9.277 -3.604,-3.438 -6.62,-7.317 -9.634,-11.275 -5.121,-6.726 -8.712,-14.304 -11.577,-22.243 l -0.714,-5.317 c -0.104,-2.753 0.47,-5.322 1.722,-7.705 1.621,-3.842 4.391,-7.561 8.183,-9.564 3.142,-1.66 6.544,-2.572 10.095,-2.731 2.753,-0.104 5.322,0.471 7.705,1.723 2.48,0.807 4.625,2.185 6.437,4.135 7.14,5.683 13.707,12.062 19.574,19.054 6.895,8.216 13.233,16.959 18.379,26.383 3.239,5.933 5.909,12.111 8.476,18.361 0.238,1.772 0.476,3.545 0.714,5.317 0.104,2.754 -0.47,5.322 -1.722,7.705 -1.621,3.842 -4.391,7.561 -8.183,9.564 -3.142,1.66 -6.544,2.572 -10.095,2.731 -2.753,0.104 -5.322,-0.47 -7.705,-1.723 -2.48,-0.806 -4.625,-2.185 -6.437,-4.135 -4.969,-6.027 -9.647,-12.314 -13.434,-19.158 -3.78,-6.833 -6.879,-14.135 -9.342,-21.538 -0.238,-1.773 -0.477,-3.545 -0.715,-5.317 0.238,-1.772 0.477,-3.545 0.715,-5.317 1.159,-4.21 3.754,-7.752 7.167,-10.389 1.248,-1.239 2.719,-2.096 4.413,-2.572 1.56,-0.904 3.242,-1.359 5.047,-1.365 1.772,-0.476 3.545,-0.476 5.317,0 2.661,0.121 5.14,0.912 7.436,2.373 10.162,5.741 18.301,13.909 24.951,23.4 3.336,4.762 5.61,9.927 7.846,15.277 1.611,3.854 2.85,7.841 3.601,11.953 1.157,6.329 1.926,12.796 1.403,19.229 -0.012,3.611 -0.922,6.975 -2.731,10.095 -1.778,3.005 -4.17,5.397 -7.175,7.175 -5.907,3.456 -14.322,3.889 -20.189,0 -8.742,-5.795 -17.189,-12.093 -22.757,-21.182 -6.847,-11.176 -7.48,-25.839 -0.273,-37.043 1.633,-2.539 3.531,-5.196 5.834,-7.223 2.221,-1.955 4.649,-4 7.383,-5.225 4.6,-2.061 8.233,-3.426 13.425,-3.386 4.949,0.039 9.179,1.355 13.544,3.529 5.595,2.786 10.554,8.283 13.053,13.984 1.353,3.085 2.691,6.06 3.419,9.337 0.799,3.599 1.22,7.311 1.627,10.962 0.74,6.632 0.066,13.042 -0.857,19.626 -0.695,4.954 -1.919,9.765 -3.763,14.419 -0.672,1.592 -1.344,3.185 -2.016,4.777 -1.257,2.331 -2.974,4.202 -5.151,5.612 -3.374,2.606 -7.738,4.49 -12.119,4.294 -3.55,-0.159 -6.952,-1.07 -10.094,-2.731 -4.425,-2.338 -7.788,-7.277 -9.191,-11.952 -3.275,-10.907 -1.054,-24.056 5.628,-33.296 3.849,-5.322 8.077,-9.953 13.919,-13.2 5.498,-3.056 12.163,-5.115 18.517,-4.83 5.906,0.265 12.123,1.655 17.071,5.05 4.591,3.149 8.811,7.123 11.284,12.214 2.802,5.769 3.949,10.219 4.456,16.624 0.32,4.034 -0.259,8.323 -1.392,12.184 -1.604,5.468 -4.517,10.93 -8.67,14.904 -2.04,1.951 -4.346,3.805 -6.893,5.066 -5.024,2.486 -8.043,3.11 -13.654,3.634 -1.773,-0.238 -3.545,-0.476 -5.317,-0.714 -2.603,-0.619 -4.87,-1.813 -6.802,-3.58 -3.442,-2.66 -5.951,-6.122 -7.167,-10.389 -7.183,-25.214 0.94,-53.472 19.148,-72.046 4.882,-4.98 10.69,-9.424 16.897,-12.63 4.554,-2.353 10.351,-3.654 15.411,-2.017 5.073,1.642 9.054,4.653 11.953,9.192 3.988,6.244 6.273,14.701 5.607,22.114 -0.46,5.121 -1.184,8.87 -3.122,13.461 -1.913,4.535 -4.033,7.825 -7.402,11.636 -1.349,1.043 -2.698,2.085 -4.047,3.128 -2.296,1.461 -4.775,2.252 -7.436,2.373 -1.773,0.476 -3.545,0.476 -5.317,0 -2.662,-0.121 -5.14,-0.912 -7.436,-2.373 -2.892,-1.865 -5.311,-4.284 -7.175,-7.175 -1.462,-2.296 -2.253,-4.775 -2.373,-7.436 -0.596,-2.659 -0.477,-5.317 0.357,-7.976 1.731,-10.744 5.695,-21.231 10.873,-30.774 2.965,-5.463 6.625,-10.362 10.446,-15.253 2.914,-3.729 6.125,-7.233 9.656,-10.388 4.599,-4.11 9.726,-8.135 15.362,-10.76 3.427,-1.596 7.092,-3.27 10.822,-4.144 2.663,-0.624 5.445,-0.921 8.147,-1.211 1.204,-0.129 2.408,-0.185 3.619,-0.123 3.72,0.189 7.677,0.627 11.205,1.936 5.004,1.856 8.098,3.699 12.18,7.125 2.388,2.005 4.266,4.674 6.028,7.199 1.826,2.616 3.015,5.846 4.094,8.774 1.159,3.143 1.496,6.707 1.746,9.983 0.065,0.856 0.054,1.709 -0.019,2.564 -0.206,2.393 -0.448,4.924 -1.058,7.275 -0.602,2.323 -1.67,4.632 -2.731,6.75 -1.065,2.126 -2.701,4.018 -4.212,5.808 -0.496,0.588 -1.014,1.099 -1.604,1.592 -1.876,1.567 -3.85,3.316 -6.121,4.334 -3.12,1.809 -6.485,2.719 -10.095,2.73 -3.61,-0.011 -6.975,-0.921 -10.094,-2.73 -5.954,-3.484 -10.098,-10.279 -9.906,-17.27 0.345,-12.521 5.358,-23.946 13.778,-33.133 3.519,-3.838 7.905,-7.255 12.53,-9.663 2.967,-1.545 6.097,-2.881 9.288,-3.895 3.406,-1.082 7.044,-1.417 10.566,-1.818 3.611,0.011 6.975,0.921 10.095,2.73 2.33,1.257 4.201,2.974 5.611,5.152 1.768,1.931 2.961,4.199 3.58,6.801 0.953,3.545 0.953,7.089 0,10.634 -8.496,26.447 -26.342,49.173 -49.971,63.787 -6.794,4.203 -14.175,7.476 -21.665,10.22 -1.772,0.238 -3.545,0.476 -5.317,0.714 -1.772,-0.238 -3.544,-0.476 -5.317,-0.714 -4.21,-1.16 -7.752,-3.754 -10.389,-7.168 -1.239,-1.247 -2.096,-2.718 -2.571,-4.412 -0.905,-1.56 -1.36,-3.242 -1.366,-5.048 -0.476,-1.772 -0.476,-3.544 0,-5.316 0.121,-2.662 0.912,-5.141 2.374,-7.436 4.16,-9.818 10.424,-18.748 17.611,-26.589 3.037,-3.313 6.352,-6.343 9.889,-9.113 4.911,-3.847 9.83,-7.484 15.346,-10.415 4.495,-2.389 10.407,-3.635 15.411,-2.016 4.216,1.364 7.668,3.645 10.389,7.167 2.606,3.373 4.49,7.738 4.294,12.118 -0.232,5.185 -1.939,10.517 -5.858,14.142 -18.958,17.542 -37.917,35.085 -56.876,52.627 -5.347,4.947 -10.695,9.895 -16.042,14.843 -9.428,-9.428 -18.856,-18.856 -28.284,-28.284 20.486,-17.918 40.973,-35.835 61.46,-53.753 5.829,-5.098 11.659,-10.197 17.488,-15.295 4.028,-3.523 8.657,-5.858 14.142,-5.858 4.906,0 10.765,2.179 14.143,5.858 3.499,3.811 6.096,8.815 5.857,14.142 -0.241,5.388 -2.102,10.175 -5.857,14.142 -15.977,16.876 -31.953,33.753 -47.93,50.629 l -13.694,14.465 c -3.317,3.504 -9.296,6.075 -14.142,5.858 -1.772,-0.238 -3.544,-0.476 -5.317,-0.714 -2.602,-0.619 -4.87,-1.812 -6.801,-3.58 -3.305,-2.553 -6.214,-6.201 -7.168,-10.389 -0.238,-1.772 -0.476,-3.545 -0.714,-5.317 0.011,-3.61 0.921,-6.975 2.731,-10.094 8.42,-18.963 19.982,-36.003 32.76,-52.268 11.915,-15.167 25.243,-29.164 38.997,-42.662 7.798,-7.653 15.745,-15.151 23.701,-22.638 9.428,9.428 18.856,18.856 28.284,28.284 -17.04,15.436 -35.959,29.041 -56.266,39.848 -10.637,5.662 -21.752,10.833 -33.083,14.935 -5.505,1.993 -11.054,2.872 -16.855,3.615 -2.041,0.261 -4.095,0.406 -6.153,0.336 -3.564,-0.119 -7.217,-0.558 -10.675,-1.433 -0.906,-0.229 -1.778,-0.529 -2.646,-0.873 -2.299,-0.913 -4.727,-1.784 -6.869,-3.066 -2.115,-1.266 -4.097,-2.887 -5.95,-4.478 -0.708,-0.608 -1.341,-1.268 -1.942,-1.982 -3.656,-4.337 -6.132,-8.333 -7.799,-13.855 -0.808,-2.675 -1.041,-5.591 -1.304,-8.344 -0.115,-1.208 -0.097,-2.424 0.023,-3.631 0.415,-4.154 0.932,-8.239 2.382,-12.157 1.445,-3.902 3.108,-7.788 5.132,-11.434 2.638,-4.754 5.79,-9.249 8.875,-13.72 13.439,-19.482 28.499,-37.955 45.119,-54.812 3.854,-3.909 7.738,-7.853 11.858,-11.483 3.023,-2.663 6.234,-5.302 9.75,-7.299 2.392,-1.359 5.098,-2.456 7.628,-3.371 2.623,-0.948 5.47,-1.179 8.22,-1.475 2.725,-0.294 5.549,0.215 8.209,0.715 2.644,0.497 5.23,1.713 7.598,2.946 2.167,1.129 4.202,2.842 5.971,4.472 1.761,1.622 3.266,3.732 4.534,5.736 1.296,2.047 2.177,4.482 2.951,6.752 0.812,2.379 0.952,5.072 1.222,7.52 0.388,3.528 -0.303,7.148 -0.873,10.601 -0.335,2.024 -0.925,4.005 -1.672,5.915 -1.302,3.33 -2.659,6.753 -4.484,9.854 -2.511,4.266 -5.295,8.391 -8.183,12.41 -6.718,9.346 -14.014,18.322 -22.106,26.516 -8.109,8.211 -16.998,15.54 -26.269,22.401 -7.959,5.892 -16.381,11.16 -25.171,15.721 -2.902,1.506 -5.829,2.889 -8.841,4.161 -1.861,0.785 -3.706,1.628 -5.647,2.196 -2.699,0.791 -5.606,1.086 -8.379,1.35 -5.419,0.518 -11.142,-1.103 -15.862,-3.697 -1.823,-1.001 -3.49,-2.47 -5.071,-3.79 -0.406,-0.34 -0.794,-0.679 -1.146,-1.078 -1.674,-1.894 -3.478,-3.983 -4.596,-6.293 -2.25,-4.648 -3.237,-8.138 -3.9,-13.069 -0.421,-3.132 -0.714,-6.218 -0.809,-9.375 -0.144,-4.802 0.034,-9.614 0.521,-14.393 1.141,-11.209 3.188,-22.243 7.031,-32.853 3.798,-10.489 8.56,-20.72 14.767,-30.009 6.116,-9.152 13.219,-17.852 21.426,-25.216 4.52,-4.055 9.296,-8.093 14.634,-11.026 3.317,-1.822 6.879,-3.321 10.45,-4.549 3.565,-1.227 7.371,-1.659 11.1,-2.028 1.001,-0.099 2.012,-0.127 3.016,-0.059 2.58,0.176 5.26,0.472 7.784,1.089 5.18,1.267 9.215,3.945 13.262,7.236 0.817,0.664 1.535,1.372 2.204,2.185 1.667,2.023 3.498,4.133 4.635,6.537 2.519,5.328 3.7,9.798 4.03,15.733 0.22,3.943 -0.517,8.09 -1.222,11.915 -0.437,2.373 -1.098,4.692 -1.818,6.992 -1.465,4.678 -3.109,9.299 -4.928,13.851 -4.22,10.557 -8.948,20.879 -14.671,30.711 -5.672,9.744 -12.25,18.843 -19.252,27.67 -13.136,16.561 -28.994,30.947 -46.458,42.838 -3.457,2.354 -7.399,4.259 -11.387,5.47 -0.623,0.19 -1.247,0.314 -1.888,0.423 -2.084,0.352 -4.277,0.759 -6.402,0.799 -2.203,0.042 -4.522,-0.423 -6.673,-0.796 -0.656,-0.114 -1.273,-0.282 -1.901,-0.5 -5.581,-1.938 -10.05,-4.923 -13.669,-9.607 -2.548,-3.298 -4.457,-6.781 -5.482,-10.917 -3.137,-12.666 0.865,-25.066 4.257,-37.199 3.243,-11.599 6.666,-23.147 10.27,-34.639 3.335,-10.638 6.621,-21.352 10.586,-31.775 2.156,-5.667 4.479,-11.32 7.263,-16.712 2.759,-5.342 6.193,-10.065 9.943,-14.768 3.62,-4.539 8.144,-8.267 12.936,-11.519 1.767,-1.2 3.637,-2.208 5.59,-3.068 2.405,-1.057 4.844,-2.179 7.356,-2.988 2.897,-0.933 6.125,-1.311 9.093,-1.535 2.834,-0.215 5.768,0.304 8.531,0.851 0.632,0.125 1.219,0.326 1.819,0.553 2.047,0.775 4.242,1.564 6.132,2.712 3.372,2.051 6.421,4.653 8.86,7.746 2.405,3.048 4.812,6.084 6.703,9.484 1.861,3.347 3.329,6.956 4.689,10.521 2.2,5.767 3.041,11.916 3.668,18.026 0.467,4.547 0.384,9.14 -0.087,13.682 -1.186,11.453 -3.684,22.444 -7.763,33.207 -4.06,10.712 -8.873,21.206 -14.418,31.233 -2.463,4.453 -5.142,8.789 -8.219,12.847 -3.976,5.242 -7.998,10.37 -13.172,14.49 -3.029,2.412 -6.076,4.906 -9.464,6.814 -3.313,1.866 -6.915,3.336 -10.471,4.636 -5.658,2.068 -12.018,3.026 -18.01,3.012 -3.803,-0.008 -7.654,-0.559 -11.368,-1.315 -3.578,-0.728 -6.962,-2.262 -10.268,-3.757 -6.994,-3.165 -12.234,-8.767 -16.701,-14.823 -1.354,-1.834 -2.445,-3.808 -3.368,-5.89 -1.573,-3.548 -3.108,-7.096 -4.014,-10.876 -1.47,-6.123 -2.156,-12.574 -2.171,-18.876 -0.017,-6.847 0.845,-13.619 1.768,-20.391 0.732,-5.371 1.762,-10.691 3.147,-15.933 3.146,-11.896 7.926,-23.569 13.908,-34.316 2.533,-4.551 5.325,-8.977 8.472,-13.131 3.924,-5.181 7.86,-10.215 13.009,-14.231 6.216,-4.849 12.616,-9.031 20.445,-10.884 7.493,-1.774 15.02,-1.854 22.52,-0.082 1.048,0.247 2.067,0.574 3.07,0.965 2.426,0.945 4.963,1.901 7.243,3.201 2.264,1.291 4.301,3.025 6.314,4.651 0.838,0.676 1.624,1.403 2.333,2.215 5.281,6.042 9.172,13.338 10.377,21.342 0.98,6.507 1.569,12.831 0.895,19.385 -0.651,6.342 -1.603,12.659 -3.513,18.752 -3.345,10.667 -8.447,20.916 -14.941,30.013 -6.679,9.356 -14.186,18.036 -22.685,25.777 -4.639,4.226 -9.522,8.186 -14.547,11.942 -4.74,3.544 -9.936,5.877 -15.381,8.144 -5.287,2.2 -10.99,3.308 -16.714,3.554 -3.445,0.148 -7.089,-0.362 -10.401,-1.155 -2.406,-0.576 -4.696,-1.716 -6.933,-2.712 -0.806,-0.359 -1.585,-0.751 -2.316,-1.248 -7.548,-5.139 -13.313,-12.602 -15.155,-21.717 -1.289,-6.375 -1.513,-12.889 -1.63,-19.368 -0.169,-9.282 0.11,-18.579 0.97,-27.824 1.007,-10.815 2.539,-21.666 5.1,-32.232 2.507,-10.345 6.184,-20.306 10.643,-29.969 4.368,-9.464 10.114,-17.948 16.682,-26.023 2.812,-3.458 5.874,-6.713 9.167,-9.718 2.283,-2.085 4.691,-3.995 7.137,-5.884 2.685,-2.075 5.348,-4.166 8.409,-5.667 2.45,-1.201 5.003,-2.318 7.595,-3.183 2.819,-0.94 5.876,-1.199 8.801,-1.515 1.082,-0.117 2.149,-0.15 3.234,-0.064 2.682,0.212 5.589,0.498 8.214,1.267 8.028,2.35 14.752,7.278 19.818,13.834 1.872,2.423 3.591,4.725 4.814,7.541 1.031,2.372 2.159,4.752 2.902,7.24 0.577,1.933 0.8,3.885 1.069,5.886 1.045,7.78 0.414,15.656 -1.959,23.179 -3.554,11.263 -9.606,21.856 -16.393,31.473 -6.553,9.286 -13.825,18.133 -22.039,26.002 -8.188,7.846 -17.26,14.944 -26.795,21.078 -4.142,2.665 -8.415,5.124 -12.802,7.362 -3.757,1.916 -7.624,3.675 -11.575,5.146 -1.22,0.454 -2.469,0.835 -3.749,1.082 -2.922,0.564 -6.145,1.169 -9.173,0.998 -3.212,-0.181 -6.734,-0.522 -9.797,-1.7 -5.024,-1.932 -8.08,-3.611 -12.187,-7.165 -2.356,-2.039 -4.265,-4.704 -5.992,-7.249 -1.796,-2.647 -3.002,-5.935 -4.136,-8.826 -1.926,-4.909 -2.529,-10.332 -3.02,-15.529 -0.36,-3.822 -0.299,-7.686 0.083,-11.505 0.976,-9.757 3.076,-19.422 5.32,-28.957 1.995,-8.477 4.324,-16.886 7.248,-25.092 3.36,-9.427 7.29,-18.816 12.339,-27.476 2.46,-4.218 5.266,-8.145 8.249,-12.006 2.93,-3.793 5.944,-7.461 9.441,-10.752 4.015,-3.779 8.447,-7.231 13.069,-10.231 4.707,-3.055 9.802,-5.237 14.994,-7.341 7.82,-3.17 16.674,-4.236 24.918,-2.128 2.589,0.662 5.156,1.828 7.512,3.069 2.162,1.14 4.098,2.833 5.953,4.375 0.663,0.551 1.256,1.147 1.807,1.811 1.528,1.841 3.172,3.752 4.342,5.868 6.126,11.071 5.999,24.824 2.29,36.672 -1.775,5.671 -4.363,11.17 -6.999,16.494 -2.068,4.177 -4.357,8.244 -6.849,12.183 -11.722,18.528 -26.972,34.1 -44.873,46.682 -7.559,5.312 -15.649,9.873 -24.125,13.549 -5.746,2.492 -11.619,5.091 -17.669,6.797 -5.877,1.656 -11.434,1.793 -17.385,0.701 C 82.028,63.531 81.418,63.364 80.798,63.148 78.85,62.471 76.759,61.65 74.952,60.614 73.929,60.028 72.989,59.196 72.083,58.496 71.075,57.717 69.931,56.959 69.037,56.012 62.947,49.556 60.166,40.977 60.222,32.185 60.26,26.306 61.526,20.322 62.96,14.626 65.529,4.419 69.506,-5.518 74.229,-14.909 c 4.73,-9.405 10.727,-17.905 17.261,-26.136 5.599,-7.053 11.929,-13.527 18.859,-19.277 7.86,-6.524 16.17,-12.544 25.192,-17.362 8.992,-4.803 18.594,-8.775 28.404,-11.564 1.773,-0.239 3.545,-0.477 5.317,-0.715 1.772,0.238 3.545,0.476 5.317,0.715 4.21,1.159 7.752,3.754 10.389,7.167 1.239,1.248 2.096,2.718 2.572,4.413 0.904,1.559 1.359,3.242 1.365,5.047 0.476,1.772 0.476,3.544 0,5.317 -0.121,2.661 -0.912,5.14 -2.374,7.436 -8.485,18.475 -20.422,35.473 -34.331,50.269 -6.459,6.871 -13.464,13.202 -20.913,18.983 -8.686,6.741 -17.59,13.028 -27.253,18.307 -10.64,5.813 -21.929,10.65 -33.448,14.428 -3.544,0.952 -7.089,0.952 -10.633,0 C 57.35,41.5 55.083,40.307 53.151,38.539 50.974,37.129 49.257,35.258 48,32.927 46.191,29.808 45.281,26.443 45.269,22.833 c -1.182,-11.506 -0.17,-23.076 1.947,-34.422 2.108,-11.298 6.162,-22.138 11.111,-32.484 9.907,-20.713 25.591,-38.234 44.215,-51.486 9.277,-6.601 19.654,-11.595 30.386,-15.353 6.128,-2.146 12.772,-3.837 19.301,-3.622 10.823,0.355 21.785,5.284 26.986,15.288 1.824,3.51 2.668,6.349 3.174,10.121 0.541,4.025 0.353,7.121 -0.472,11.254 -0.402,2.016 -1.243,3.824 -2.042,5.717 -0.862,2.044 -1.688,4.013 -2.884,5.88 -3.96,6.184 -9.096,11.31 -14.393,16.317 -9.632,9.105 -20.008,17.447 -30.767,25.181 -20.286,14.584 -42.627,25.985 -66.029,34.677 -2.709,1.006 -5.435,1.964 -8.176,2.88 -1.772,0.239 -3.544,0.477 -5.316,0.715 C 50.537,13.258 48.765,13.02 46.993,12.781 42.783,11.622 39.241,9.027 36.604,5.614 35.364,4.366 34.507,2.896 34.032,1.201 c -0.904,-1.559 -1.36,-3.242 -1.365,-5.047 -0.476,-1.772 -0.476,-3.544 0,-5.317 0.121,-2.661 0.912,-5.14 2.373,-7.436 15.36,-30.486 39.631,-56.419 68.333,-74.757 7.426,-4.745 15.216,-8.899 23.287,-12.434 1.593,-0.672 3.185,-1.344 4.778,-2.016 2.658,-0.834 5.316,-0.953 7.975,-0.358 1.805,0.006 3.487,0.461 5.047,1.366 2.479,0.806 4.625,2.185 6.436,4.135 2.345,2.554 4.076,5.526 5.144,8.825 1.545,4.774 0.512,11.159 -2.016,15.411 C 136.587,-47.095 114.323,-20.25 88.433,1.998 80.342,8.95 71.891,15.519 63.211,21.719 l -4.778,2.016 c -2.658,0.834 -5.316,0.953 -7.975,0.358 -1.805,-0.006 -3.487,-0.461 -5.047,-1.366 -2.479,-0.806 -4.625,-2.185 -6.436,-4.135 -2.345,-2.554 -4.076,-5.526 -5.144,-8.826 -1.568,-4.843 -0.47,-11.084 2.016,-15.411 9.915,-17.255 21.764,-33.474 34.91,-48.406 13.162,-14.951 27.95,-28.09 43.779,-40.144 8.295,-6.317 16.953,-12.147 25.918,-17.471 4.254,-2.527 10.635,-3.562 15.411,-2.016 4.216,1.364 7.668,3.645 10.389,7.167 2.606,3.374 4.49,7.738 4.294,12.119 -0.238,1.772 -0.476,3.544 -0.714,5.316 -0.951,3.388 -2.665,6.33 -5.144,8.826 -18.036,21.663 -38.354,41.407 -60.557,58.778 -7.512,5.877 -15.119,11.615 -22.964,17.042 -2.295,1.462 -4.774,2.253 -7.436,2.373 -2.658,0.596 -5.317,0.477 -7.975,-0.357 -4.216,-1.364 -7.668,-3.645 -10.389,-7.167 -2.606,-3.373 -4.49,-7.737 -4.294,-12.118 0.238,-1.773 0.476,-3.545 0.714,-5.317 0.95,-3.388 2.665,-6.33 5.144,-8.825 21.99,-27.427 46.282,-52.994 72.577,-76.327 7.362,-6.533 14.882,-12.886 22.543,-19.065 1.812,-1.95 3.957,-3.328 6.437,-4.135 2.383,-1.252 4.952,-1.826 7.705,-1.722 1.773,0.238 3.545,0.476 5.317,0.714 2.603,0.619 4.87,1.812 6.802,3.58 3.304,2.553 6.213,6.201 7.167,10.389 1.161,5.097 0.939,10.9 -2.016,15.411 -9.469,14.453 -21.71,26.59 -36.382,35.749 -1.592,0.671 -3.185,1.344 -4.777,2.016 -2.659,0.833 -5.317,0.952 -7.975,0.357 -1.805,-0.006 -3.488,-0.461 -5.048,-1.365 -2.479,-0.807 -4.625,-2.185 -6.436,-4.136 -2.345,-2.554 -4.076,-5.526 -5.144,-8.825 -0.833,-2.659 -0.952,-5.317 -0.357,-7.975 0.121,-2.662 0.912,-5.141 2.373,-7.436 11.081,-17.456 26.285,-32.317 44.242,-42.629 5.695,-3.27 11.693,-5.866 17.772,-8.334 1.773,-0.238 3.545,-0.476 5.317,-0.714 1.772,0.238 3.545,0.476 5.317,0.714 4.21,1.16 7.752,3.755 10.389,7.168 1.239,1.247 2.097,2.718 2.572,4.412 0.904,1.56 1.359,3.243 1.365,5.048 0.476,1.772 0.476,3.544 0,5.316 -0.121,2.662 -0.912,5.141 -2.373,7.436 -8.585,15.663 -19.514,30.252 -31.978,43.037 -9.428,-9.428 -18.856,-18.856 -28.284,-28.284 12.285,-10.824 25.084,-21.421 41.05,-26.208 4.38,-1.313 9.028,-1.99 13.579,-2.239 4.25,-0.233 8.562,0.438 12.727,1.139 2.59,0.437 5.093,1.188 7.52,2.185 3.892,1.6 7.644,3.111 11.03,5.615 2.291,1.695 4.818,3.51 6.842,5.601 2.03,2.097 3.82,4.503 5.466,6.897 1.283,1.865 2.099,3.893 2.979,5.976 0.899,2.132 1.765,4.136 2.215,6.402 1.058,5.322 0.795,10.608 -2.016,15.411 -2.428,4.149 -7.185,8.105 -11.953,9.191 -5.119,1.167 -10.866,0.914 -15.411,-2.016 -4.198,-2.707 -8.183,-6.878 -9.191,-11.952 -0.274,-1.381 -0.673,-2.711 -1.207,-4.013 0.672,1.592 1.344,3.185 2.016,4.778 -0.713,-1.64 -1.612,-3.156 -2.695,-4.579 1.043,1.35 2.085,2.699 3.127,4.048 -1.29,-1.632 -2.765,-3.06 -4.409,-4.333 1.349,1.042 2.699,2.085 4.048,3.127 -1.939,-1.451 -4.031,-2.636 -6.252,-3.598 l 4.777,2.016 c -2.832,-1.18 -5.781,-1.966 -8.821,-2.378 1.772,0.238 3.545,0.476 5.317,0.714 -2.897,-0.355 -5.801,-0.363 -8.696,0.017 1.773,-0.238 3.545,-0.476 5.317,-0.714 -3.629,0.53 -7.144,1.62 -10.523,3.028 l 4.778,-2.016 c -5.738,2.463 -10.959,5.877 -15.901,9.667 1.349,-1.042 2.699,-2.085 4.048,-3.127 -3.954,3.061 -7.726,6.341 -11.477,9.645 -4.005,3.528 -8.676,5.858 -14.142,5.858 -4.905,0 -10.765,-2.179 -14.142,-5.858 -3.499,-3.812 -6.097,-8.816 -5.858,-14.142 0.239,-5.344 2.063,-10.249 5.858,-14.142 4.776,-4.9 9.268,-10.061 13.464,-15.466 -1.042,1.349 -2.085,2.699 -3.127,4.048 5.731,-7.433 10.874,-15.293 15.386,-23.523 7.528,9.793 15.057,19.586 22.586,29.38 -0.487,0.197 -0.974,0.398 -1.459,0.6 1.592,-0.672 3.185,-1.344 4.778,-2.016 -8.408,3.563 -16.305,8.19 -23.552,13.744 1.349,-1.043 2.699,-2.085 4.048,-3.127 -7.22,5.588 -13.71,12.043 -19.319,19.247 1.042,-1.349 2.084,-2.698 3.127,-4.047 -2.034,2.639 -3.946,5.365 -5.732,8.178 -9.121,-9.121 -18.242,-18.242 -27.363,-27.363 2.677,-1.672 5.268,-3.468 7.773,-5.387 -1.349,1.043 -2.698,2.085 -4.047,3.127 6.317,-4.897 11.989,-10.544 16.913,-16.842 -1.042,1.35 -2.085,2.699 -3.127,4.048 1.589,-2.057 3.094,-4.171 4.519,-6.345 10.47,8.079 20.941,16.158 31.411,24.237 -27.364,22.068 -52.861,46.433 -76.12,72.794 -6.511,7.381 -12.843,14.918 -19,22.597 -8.079,-10.47 -16.158,-20.941 -24.237,-31.412 5.796,-4.009 11.484,-8.168 17.063,-12.473 -1.35,1.042 -2.699,2.085 -4.048,3.127 17.801,-13.78 34.44,-29.044 49.663,-45.629 4.368,-4.759 8.615,-9.627 12.748,-14.591 8.079,10.471 16.158,20.941 24.236,31.412 -9.512,5.649 -18.667,11.874 -27.428,18.629 1.349,-1.043 2.699,-2.085 4.048,-3.127 -14.411,11.158 -27.717,23.721 -39.652,37.497 -3.384,3.906 -6.652,7.909 -9.814,11.996 1.042,-1.349 2.085,-2.699 3.127,-4.048 C 83.397,-6.41 76.531,3.851 70.386,14.544 61.265,5.423 52.144,-3.698 43.022,-12.82 c 3.042,-2.173 6.044,-4.4 9.005,-6.68 -1.349,1.042 -2.698,2.084 -4.048,3.127 15.75,-12.178 30.288,-25.898 43.334,-40.936 3.736,-4.306 7.344,-8.721 10.833,-13.229 -1.042,1.35 -2.085,2.699 -3.127,4.048 7.419,-9.623 14.257,-19.68 20.466,-30.125 9.121,9.121 18.243,18.242 27.364,27.364 -12.829,5.619 -24.905,12.828 -35.991,21.384 1.349,-1.043 2.698,-2.085 4.048,-3.127 -11.61,9.014 -22.056,19.452 -31.069,31.063 1.042,-1.35 2.084,-2.699 3.127,-4.048 C 80.312,-15.356 74.479,-6.136 69.579,3.59 62.05,-6.203 54.522,-15.996 46.993,-25.79 c 6.365,-2.129 12.644,-4.501 18.829,-7.109 -1.593,0.672 -3.185,1.344 -4.778,2.016 20.608,-8.744 40.041,-20.114 57.773,-33.778 -1.35,1.042 -2.699,2.085 -4.048,3.127 5.233,-4.05 10.319,-8.289 15.232,-12.723 4.795,-4.329 9.844,-8.739 13.856,-13.823 -1.043,1.349 -2.085,2.698 -3.127,4.048 1.414,-1.848 2.653,-3.791 3.598,-5.922 -0.672,1.593 -1.344,3.185 -2.016,4.778 0.51,-1.236 0.895,-2.482 1.112,-3.803 -0.238,1.772 -0.476,3.545 -0.715,5.317 0.117,-0.944 0.137,-1.858 0.037,-2.805 l 0.715,5.317 c -0.122,-0.783 -0.317,-1.511 -0.604,-2.249 0.672,1.592 1.344,3.185 2.017,4.777 -0.337,-0.741 -0.733,-1.411 -1.22,-2.062 1.042,1.35 2.085,2.699 3.127,4.048 -0.456,-0.552 -0.943,-1.038 -1.496,-1.491 1.349,1.043 2.699,2.085 4.048,3.127 -0.674,-0.501 -1.374,-0.905 -2.14,-1.249 1.592,0.672 3.185,1.344 4.777,2.016 -1.067,-0.429 -2.152,-0.702 -3.288,-0.871 1.772,0.238 3.544,0.476 5.317,0.714 -1.968,-0.238 -3.924,-0.158 -5.886,0.102 1.772,-0.238 3.545,-0.477 5.317,-0.715 -5.367,0.797 -10.609,2.782 -15.592,4.869 1.592,-0.672 3.185,-1.344 4.777,-2.016 -8.395,3.563 -16.259,8.229 -23.477,13.798 1.349,-1.042 2.698,-2.084 4.048,-3.127 -7.59,5.909 -14.388,12.757 -20.297,20.343 1.043,-1.349 2.085,-2.698 3.127,-4.047 -6.177,7.997 -11.322,16.741 -15.287,26.037 0.672,-1.593 1.344,-3.185 2.016,-4.778 -3.79,8.988 -6.443,18.413 -7.783,28.078 l 0.715,-5.316 C 84.61,6.798 84.448,14.842 85.269,22.833 76.831,16.405 68.392,9.976 59.953,3.547 c 4.478,-1.468 8.89,-3.12 13.233,-4.948 -1.592,0.672 -3.185,1.344 -4.778,2.016 13.796,-5.857 26.772,-13.499 38.643,-22.643 -1.349,1.043 -2.699,2.085 -4.048,3.127 11.983,-9.284 22.763,-20.048 32.041,-32.036 -1.042,1.349 -2.085,2.699 -3.127,4.048 7.904,-10.274 14.664,-21.386 20.076,-33.168 7.528,9.793 15.057,19.587 22.586,29.38 -4.64,1.319 -9.188,2.918 -13.637,4.783 1.592,-0.672 3.185,-1.344 4.777,-2.016 -9.917,4.205 -19.223,9.707 -27.749,16.285 1.349,-1.042 2.699,-2.085 4.048,-3.127 -8.77,6.818 -16.639,14.722 -23.432,23.511 1.042,-1.349 2.085,-2.698 3.127,-4.048 -6.656,8.677 -12.215,18.144 -16.473,28.218 0.672,-1.592 1.344,-3.185 2.016,-4.777 -3.4,8.132 -6.277,16.832 -7.481,25.592 0.238,-1.772 0.476,-3.545 0.715,-5.317 -0.292,2.343 -0.369,4.689 -0.062,7.034 -0.238,-1.772 -0.476,-3.544 -0.714,-5.317 0.192,1.242 0.491,2.44 0.962,3.606 -0.673,-1.592 -1.345,-3.185 -2.017,-4.777 0.325,0.729 0.701,1.405 1.164,2.057 -1.043,-1.35 -2.085,-2.699 -3.128,-4.048 0.49,0.628 1.024,1.171 1.648,1.666 l -4.047,-3.127 c 0.609,0.436 1.227,0.773 1.913,1.073 -1.592,-0.673 -3.185,-1.344 -4.777,-2.017 0.71,0.254 1.403,0.427 2.148,0.544 -1.772,-0.239 -3.544,-0.477 -5.316,-0.715 1.136,0.113 2.235,0.076 3.368,-0.063 -1.772,0.238 -3.544,0.476 -5.316,0.714 5.095,-0.799 10.119,-2.98 14.852,-4.969 -1.593,0.672 -3.185,1.344 -4.778,2.016 10.895,-4.628 21.13,-10.667 30.498,-17.898 -1.349,1.042 -2.698,2.085 -4.048,3.127 9.348,-7.268 17.757,-15.671 25.021,-25.021 -1.042,1.349 -2.085,2.698 -3.127,4.047 7.125,-9.24 13.078,-19.331 17.627,-30.078 -0.672,1.592 -1.344,3.185 -2.016,4.777 1.563,-3.734 2.7,-7.582 3.246,-11.6 -0.239,1.772 -0.477,3.545 -0.715,5.317 0.328,-2.64 0.402,-5.289 0.069,-7.931 l 0.714,5.316 c -0.24,-1.669 -0.641,-3.285 -1.283,-4.847 0.672,1.593 1.344,3.185 2.016,4.778 -0.448,-1.017 -0.984,-1.967 -1.639,-2.864 1.042,1.349 2.085,2.699 3.127,4.048 -0.682,-0.878 -1.448,-1.646 -2.325,-2.328 1.349,1.043 2.699,2.085 4.048,3.127 -0.845,-0.614 -1.734,-1.111 -2.693,-1.524 1.592,0.672 3.185,1.344 4.777,2.016 -1.094,-0.421 -2.186,-0.697 -3.347,-0.863 1.772,0.239 3.544,0.477 5.317,0.715 -1.561,-0.158 -3.086,-0.104 -4.639,0.103 1.772,-0.239 3.544,-0.477 5.316,-0.715 -3.042,0.487 -5.936,1.496 -8.77,2.681 1.592,-0.672 3.185,-1.344 4.777,-2.016 -4.783,2.041 -9.267,4.664 -13.402,7.817 1.349,-1.043 2.698,-2.085 4.047,-3.127 -4.856,3.753 -9.13,8.157 -12.892,13 1.043,-1.349 2.085,-2.699 3.128,-4.048 -5.701,7.42 -10.134,15.701 -13.766,24.304 0.672,-1.592 1.344,-3.185 2.016,-4.777 -3.741,8.936 -6.636,18.2 -9.043,27.577 -2.318,9.029 -4.576,18.288 -5.821,27.535 0.238,-1.772 0.476,-3.544 0.714,-5.317 -0.66,5.146 -0.765,10.367 -0.082,15.515 -0.238,-1.772 -0.476,-3.544 -0.714,-5.317 0.415,2.924 1.089,5.797 2.211,8.535 -0.672,-1.593 -1.344,-3.185 -2.016,-4.778 0.688,1.612 1.52,3.131 2.574,4.534 -1.042,-1.35 -2.084,-2.699 -3.127,-4.048 0.751,0.957 1.58,1.818 2.525,2.584 -1.349,-1.042 -2.698,-2.084 -4.047,-3.127 0.963,0.742 1.988,1.344 3.108,1.817 l -4.777,-2.016 c 1.091,0.429 2.205,0.712 3.366,0.88 -1.773,-0.238 -3.545,-0.477 -5.317,-0.715 1.372,0.164 2.718,0.143 4.09,-0.027 -1.773,0.238 -3.545,0.477 -5.317,0.715 1.996,-0.319 3.887,-0.922 5.758,-1.678 -1.593,0.672 -3.185,1.344 -4.778,2.016 10.45,-4.41 20.284,-10.746 29.236,-17.662 -1.349,1.043 -2.698,2.085 -4.047,3.127 10.146,-7.894 19.266,-17.03 27.135,-27.196 -1.043,1.349 -2.085,2.698 -3.128,4.048 6.394,-8.321 12.285,-17.36 16.389,-27.046 -0.672,1.592 -1.344,3.185 -2.016,4.778 1.582,-3.833 2.798,-7.78 3.355,-11.897 l -0.715,5.317 c 0.318,-2.687 0.348,-5.365 -0.006,-8.05 0.238,1.772 0.476,3.544 0.714,5.317 -0.291,-1.886 -0.797,-3.699 -1.504,-5.471 0.672,1.593 1.344,3.185 2.016,4.778 -0.87,-2.06 -1.976,-3.967 -3.343,-5.737 1.042,1.349 2.085,2.698 3.127,4.047 -1.081,-1.342 -2.274,-2.55 -3.62,-3.628 l 4.048,3.127 c -1.218,-0.93 -2.502,-1.712 -3.899,-2.345 1.593,0.672 3.185,1.344 4.778,2.016 -1.406,-0.591 -2.84,-0.992 -4.352,-1.198 1.772,0.238 3.544,0.476 5.317,0.715 -1.333,-0.14 -2.635,-0.115 -3.965,0.05 1.773,-0.238 3.545,-0.476 5.317,-0.714 -1.649,0.26 -3.217,0.724 -4.762,1.354 1.593,-0.672 3.186,-1.344 4.778,-2.016 -2.765,1.206 -5.263,2.85 -7.651,4.682 l 4.048,-3.127 c -5.838,4.567 -11.05,9.868 -15.608,15.709 1.043,-1.349 2.085,-2.699 3.127,-4.048 -5.632,7.295 -10.17,15.339 -13.777,23.812 0.672,-1.593 1.345,-3.185 2.017,-4.778 -5.397,12.817 -8.65,26.418 -10.509,40.175 0.238,-1.772 0.476,-3.544 0.714,-5.317 -1.061,7.997 -1.662,16.048 -1.877,24.111 -0.215,8.097 -0.462,16.504 0.593,24.55 l -0.714,-5.317 c 0.271,1.824 0.684,3.589 1.365,5.305 -0.672,-1.592 -1.344,-3.185 -2.016,-4.777 0.539,1.232 1.195,2.364 2.016,3.429 -1.042,-1.349 -2.084,-2.699 -3.127,-4.048 0.674,0.823 1.41,1.558 2.242,2.222 l -4.048,-3.128 c 0.914,0.685 1.884,1.244 2.932,1.696 -1.592,-0.672 -3.185,-1.344 -4.777,-2.016 1.188,0.474 2.402,0.788 3.666,0.98 -1.772,-0.238 -3.544,-0.476 -5.316,-0.714 1.882,0.242 3.755,0.204 5.637,-0.023 -1.772,0.238 -3.544,0.476 -5.316,0.714 3.228,-0.441 6.332,-1.403 9.332,-2.661 -1.593,0.672 -3.185,1.344 -4.778,2.016 4.03,-1.737 7.815,-3.979 11.295,-6.652 l -4.048,3.128 c 9.871,-7.722 18.988,-16.506 26.685,-26.413 -1.042,1.349 -2.085,2.699 -3.127,4.048 5.202,-6.757 9.703,-14.036 13.049,-21.892 -0.671,1.592 -1.344,3.185 -2.016,4.777 2.499,-5.969 4.284,-12.191 5.149,-18.609 -0.238,1.772 -0.476,3.544 -0.714,5.317 0.632,-4.987 0.754,-10.052 0.138,-15.046 0.239,1.772 0.477,3.544 0.715,5.317 -0.363,-2.659 -0.963,-5.242 -1.957,-7.738 0.672,1.592 1.344,3.185 2.016,4.777 -0.69,-1.627 -1.529,-3.146 -2.574,-4.574 1.043,1.349 2.085,2.699 3.128,4.048 -0.98,-1.261 -2.074,-2.371 -3.329,-3.359 1.35,1.042 2.699,2.085 4.048,3.127 -1.35,-1.009 -2.789,-1.823 -4.339,-2.482 l 4.777,2.016 c -1.873,-0.748 -3.801,-1.234 -5.799,-1.502 1.772,0.238 3.544,0.476 5.317,0.714 -2.198,-0.253 -4.382,-0.237 -6.578,0.026 1.772,-0.238 3.544,-0.477 5.317,-0.715 -2.351,0.324 -4.617,0.918 -6.818,1.807 l 4.778,-2.017 c -2.719,1.157 -5.236,2.667 -7.594,4.443 1.349,-1.042 2.698,-2.085 4.048,-3.127 -3.627,2.807 -6.746,6.151 -9.559,9.762 1.042,-1.349 2.085,-2.698 3.127,-4.047 -6.1,7.946 -10.987,16.861 -14.888,26.071 0.672,-1.592 1.344,-3.185 2.016,-4.777 -4.411,10.548 -7.423,21.619 -8.946,32.951 0.238,-1.772 0.476,-3.544 0.714,-5.316 -1.015,7.827 -1.518,15.828 -0.508,23.682 -0.238,-1.772 -0.476,-3.544 -0.714,-5.316 0.524,3.796 1.419,7.511 2.909,11.049 -0.672,-1.592 -1.344,-3.185 -2.016,-4.777 0.982,2.237 2.18,4.331 3.662,6.276 -1.042,-1.349 -2.085,-2.699 -3.127,-4.048 1.313,1.658 2.787,3.138 4.455,4.437 -1.349,-1.042 -2.698,-2.084 -4.048,-3.127 1.619,1.209 3.347,2.203 5.2,3.007 l -4.778,-2.016 c 2.297,0.947 4.675,1.563 7.134,1.902 -1.772,-0.238 -3.544,-0.476 -5.316,-0.715 2.832,0.346 5.664,0.315 8.496,-0.031 -1.773,0.238 -3.545,0.476 -5.317,0.714 3.361,-0.456 6.619,-1.342 9.759,-2.624 -1.593,0.672 -3.185,1.344 -4.778,2.016 3.194,-1.351 6.137,-3.093 8.896,-5.192 -1.349,1.043 -2.699,2.085 -4.048,3.128 3.979,-3.098 7.436,-6.745 10.517,-10.728 -1.042,1.35 -2.084,2.699 -3.127,4.048 7.757,-10.176 13.546,-22.097 18.514,-33.843 -0.673,1.592 -1.345,3.185 -2.017,4.777 4.208,-10.031 7.593,-20.475 9.052,-31.283 -0.238,1.772 -0.476,3.544 -0.714,5.316 0.766,-5.946 0.918,-11.948 0.122,-17.9 0.238,1.772 0.476,3.545 0.714,5.317 -0.595,-4.167 -1.654,-8.227 -3.261,-12.121 0.672,1.592 1.344,3.185 2.017,4.777 -1.494,-3.511 -3.401,-6.791 -5.708,-9.83 1.042,1.349 2.085,2.699 3.127,4.048 -1.068,-1.369 -2.212,-2.64 -3.558,-3.742 l 4.048,3.127 c -0.822,-0.624 -1.668,-1.145 -2.609,-1.572 1.592,0.672 3.185,1.344 4.777,2.016 -0.882,-0.345 -1.749,-0.561 -2.687,-0.688 1.772,0.238 3.545,0.476 5.317,0.714 -0.992,-0.077 -1.947,-0.048 -2.934,0.067 1.772,-0.238 3.544,-0.476 5.317,-0.715 -2.004,0.315 -3.901,0.942 -5.767,1.725 1.593,-0.672 3.186,-1.344 4.778,-2.016 -2.653,1.159 -5.119,2.634 -7.416,4.395 1.35,-1.043 2.699,-2.085 4.048,-3.127 -2.877,2.263 -5.391,4.903 -7.632,7.793 1.042,-1.35 2.085,-2.699 3.127,-4.048 -3.953,5.192 -6.959,11.003 -9.512,16.989 0.672,-1.593 1.344,-3.185 2.016,-4.778 -4.474,10.605 -7.813,21.719 -11.293,32.677 -3.974,12.513 -7.735,25.093 -11.28,37.734 -1.721,6.135 -3.879,12.36 -4.758,18.686 0.238,-1.772 0.476,-3.545 0.714,-5.317 -0.299,2.357 -0.389,4.724 -0.091,7.086 -0.238,-1.772 -0.477,-3.544 -0.715,-5.317 0.188,1.274 0.488,2.501 0.974,3.694 -0.672,-1.592 -1.344,-3.185 -2.016,-4.777 0.344,0.773 0.748,1.479 1.257,2.155 -1.042,-1.349 -2.085,-2.698 -3.127,-4.048 0.376,0.459 0.777,0.868 1.228,1.251 -1.349,-1.042 -2.698,-2.085 -4.048,-3.127 0.587,0.453 1.198,0.814 1.874,1.118 -1.592,-0.672 -3.185,-1.344 -4.778,-2.016 0.77,0.304 1.531,0.494 2.35,0.608 -1.772,-0.238 -3.544,-0.476 -5.317,-0.715 0.736,0.054 1.438,0.038 2.171,-0.04 -1.772,0.238 -3.544,0.476 -5.317,0.715 1.117,-0.179 2.165,-0.487 3.22,-0.896 -1.593,0.671 -3.185,1.344 -4.778,2.016 5.087,-2.174 9.639,-5.98 13.992,-9.339 l -4.048,3.127 c 13.15,-10.207 24.949,-22.064 35.155,-35.212 -1.042,1.349 -2.085,2.698 -3.127,4.047 10.493,-13.592 19.231,-28.481 25.925,-44.295 -0.672,1.592 -1.345,3.185 -2.017,4.777 1.763,-4.196 3.39,-8.448 4.857,-12.757 1.449,-4.257 2.873,-8.559 3.537,-13.02 -0.239,1.772 -0.477,3.544 -0.715,5.317 0.29,-2.179 0.382,-4.349 0.12,-6.535 0.238,1.772 0.476,3.544 0.714,5.316 -0.19,-1.286 -0.499,-2.515 -0.972,-3.726 0.672,1.592 1.344,3.185 2.017,4.777 -0.457,-1.055 -1.008,-2.009 -1.698,-2.929 1.042,1.349 2.085,2.698 3.127,4.048 -0.665,-0.816 -1.379,-1.533 -2.204,-2.186 1.349,1.043 2.698,2.085 4.047,3.127 -0.788,-0.578 -1.603,-1.051 -2.495,-1.45 1.592,0.672 3.185,1.344 4.777,2.016 -1.156,-0.469 -2.336,-0.769 -3.571,-0.937 1.772,0.238 3.545,0.476 5.317,0.714 -1.587,-0.171 -3.152,-0.122 -4.733,0.086 1.772,-0.238 3.544,-0.476 5.317,-0.715 -2.464,0.374 -4.824,1.103 -7.121,2.06 1.593,-0.672 3.185,-1.344 4.778,-2.016 -3.205,1.387 -6.199,3.175 -8.966,5.305 1.349,-1.043 2.699,-2.085 4.048,-3.128 -6.997,5.516 -13.249,11.937 -18.714,18.967 1.042,-1.349 2.085,-2.698 3.127,-4.048 -6.192,8.04 -11.304,16.844 -15.254,26.189 0.672,-1.593 1.344,-3.185 2.016,-4.778 -3.91,9.361 -6.62,19.173 -8.017,29.223 0.238,-1.772 0.476,-3.545 0.714,-5.317 -1.1,8.192 -1.539,16.716 -0.525,24.942 -0.238,-1.772 -0.476,-3.544 -0.715,-5.317 0.239,1.721 0.602,3.393 1.244,5.01 -0.672,-1.592 -1.344,-3.185 -2.016,-4.777 0.367,0.836 0.793,1.609 1.326,2.352 -1.042,-1.349 -2.085,-2.698 -3.127,-4.047 0.474,0.596 0.982,1.113 1.572,1.593 l -4.048,-3.127 c 0.54,0.391 1.089,0.712 1.692,0.996 l -4.778,-2.016 c 0.773,0.307 1.535,0.509 2.356,0.635 -1.772,-0.238 -3.545,-0.477 -5.317,-0.715 1.009,0.103 1.989,0.083 2.997,-0.029 -1.772,0.238 -3.545,0.477 -5.317,0.715 2.11,-0.308 4.105,-0.973 6.066,-1.797 l -4.777,2.017 c 12.334,-5.383 23.972,-12.95 34.613,-21.132 -1.349,1.042 -2.698,2.084 -4.047,3.127 12.857,-9.944 24.42,-21.482 34.372,-34.334 -1.043,1.35 -2.085,2.699 -3.127,4.048 2.775,-3.606 5.429,-7.303 7.939,-11.099 2.276,-3.441 4.586,-6.911 6.215,-10.715 -0.672,1.593 -1.344,3.185 -2.016,4.778 1.009,-2.44 1.769,-4.96 2.129,-7.58 -0.238,1.772 -0.476,3.545 -0.714,5.317 0.175,-1.485 0.212,-2.955 0.035,-4.442 0.238,1.772 0.476,3.545 0.714,5.317 -0.149,-0.999 -0.391,-1.952 -0.769,-2.89 0.672,1.593 1.344,3.185 2.016,4.778 -0.301,-0.672 -0.655,-1.29 -1.087,-1.886 1.042,1.349 2.085,2.699 3.127,4.048 -0.47,-0.592 -0.984,-1.106 -1.574,-1.58 1.349,1.042 2.698,2.085 4.048,3.127 -0.713,-0.523 -1.454,-0.934 -2.27,-1.279 1.593,0.672 3.185,1.344 4.778,2.017 -0.625,-0.224 -1.239,-0.389 -1.892,-0.507 1.772,0.238 3.544,0.476 5.317,0.715 -0.976,-0.123 -1.916,-0.117 -2.893,-0.001 1.772,-0.238 3.544,-0.476 5.317,-0.714 -1.175,0.19 -2.277,0.514 -3.384,0.949 1.593,-0.672 3.185,-1.344 4.778,-2.016 -2.162,0.925 -4.119,2.181 -5.983,3.605 1.349,-1.042 2.698,-2.085 4.048,-3.127 -4.081,3.212 -7.745,7.018 -11.421,10.677 -3.878,3.86 -7.673,7.804 -11.38,11.829 -7.348,7.978 -14.345,16.274 -20.987,24.848 1.042,-1.35 2.085,-2.699 3.127,-4.048 -4.379,5.67 -8.605,11.456 -12.659,17.363 -3.914,5.703 -7.984,11.446 -10.754,17.814 0.672,-1.593 1.344,-3.185 2.016,-4.778 -1.068,2.544 -1.898,5.145 -2.305,7.879 0.239,-1.772 0.477,-3.544 0.715,-5.317 -0.217,1.736 -0.246,3.447 -0.026,5.184 -0.238,-1.772 -0.476,-3.544 -0.714,-5.317 0.193,1.207 0.494,2.349 0.929,3.491 -0.673,-1.593 -1.345,-3.185 -2.017,-4.778 0.552,1.307 1.242,2.514 2.101,3.643 -1.043,-1.349 -2.085,-2.699 -3.128,-4.048 0.752,0.934 1.586,1.763 2.525,2.508 -1.349,-1.043 -2.699,-2.085 -4.048,-3.128 1.047,0.786 2.16,1.427 3.357,1.957 -1.593,-0.672 -3.185,-1.344 -4.778,-2.016 1.753,0.73 3.568,1.182 5.446,1.447 -1.773,-0.238 -3.545,-0.476 -5.317,-0.715 3.038,0.377 6.086,0.258 9.115,-0.145 -1.772,0.238 -3.544,0.476 -5.316,0.714 6.591,-0.944 12.703,-3.306 18.806,-5.876 -1.593,0.672 -3.185,1.344 -4.778,2.016 20.545,-8.703 39.912,-20.037 57.574,-33.671 l -4.048,3.128 c 5.317,-4.124 10.473,-8.446 15.46,-12.963 3.921,-3.553 8.751,-5.858 14.142,-5.858 4.905,0 10.765,2.179 14.142,5.858 3.499,3.811 6.097,8.815 5.858,14.142 -0.234,5.211 -1.958,10.472 -5.858,14.142 -17.624,16.586 -35.246,33.252 -51.205,51.476 -4.502,5.142 -8.86,10.407 -13.042,15.813 1.043,-1.349 2.085,-2.699 3.127,-4.048 -11.036,14.325 -20.735,29.682 -28.084,46.231 -10.47,-8.078 -20.941,-16.157 -31.411,-24.236 l 47.929,-50.629 c 4.565,-4.822 9.13,-9.644 13.694,-14.465 9.429,9.428 18.857,18.856 28.285,28.284 -20.487,17.918 -40.974,35.835 -61.461,53.753 -5.829,5.098 -11.659,10.197 -17.488,15.295 -4.027,3.522 -8.657,5.858 -14.142,5.858 -4.906,0 -10.765,-2.179 -14.142,-5.858 -3.499,-3.811 -6.097,-8.815 -5.858,-14.142 0.232,-5.185 1.939,-10.517 5.858,-14.142 18.958,-17.542 37.917,-35.084 56.876,-52.626 5.347,-4.948 10.695,-9.896 16.042,-14.844 8.079,10.471 16.158,20.941 24.237,31.412 -3.969,2.109 -7.738,4.545 -11.298,7.287 1.349,-1.042 2.698,-2.084 4.047,-3.127 -5.318,4.152 -10.083,8.936 -14.221,14.264 1.042,-1.349 2.085,-2.699 3.127,-4.048 -4.103,5.355 -7.519,11.178 -10.152,17.391 -7.528,-9.794 -15.057,-19.587 -22.586,-29.381 1.396,-0.511 2.779,-1.053 4.15,-1.625 -1.592,0.672 -3.185,1.344 -4.777,2.016 7.456,-3.161 14.45,-7.28 20.87,-12.213 -1.349,1.042 -2.698,2.084 -4.047,3.127 6.53,-5.072 12.391,-10.933 17.467,-17.46 -1.042,1.35 -2.085,2.699 -3.127,4.048 4.938,-6.417 9.068,-13.404 12.254,-20.85 -0.672,1.592 -1.344,3.185 -2.016,4.777 1.09,-2.587 2.066,-5.216 2.925,-7.889 6.428,8.439 12.857,16.878 19.285,25.317 -0.311,0.032 -0.621,0.071 -0.931,0.114 1.772,-0.238 3.544,-0.476 5.317,-0.714 -2.322,0.35 -4.551,0.981 -6.722,1.876 1.593,-0.672 3.186,-1.344 4.778,-2.017 -2.441,1.055 -4.707,2.406 -6.811,4.031 l 4.048,-3.128 c -2.087,1.662 -3.948,3.547 -5.586,5.653 1.042,-1.349 2.085,-2.699 3.127,-4.048 -1.603,2.125 -2.935,4.407 -3.978,6.857 0.672,-1.593 1.345,-3.185 2.017,-4.778 -0.942,2.316 -1.594,4.702 -1.931,7.18 0.238,-1.773 0.476,-3.545 0.714,-5.317 -0.11,0.932 -0.178,1.862 -0.204,2.8 -10.031,-5.756 -20.063,-11.512 -30.094,-17.269 0.741,-0.332 1.42,-0.723 2.073,-1.206 -1.349,1.042 -2.698,2.085 -4.048,3.127 0.599,-0.477 1.122,-0.997 1.604,-1.592 -1.042,1.349 -2.085,2.699 -3.127,4.048 0.518,-0.687 0.937,-1.412 1.283,-2.199 -0.672,1.593 -1.344,3.185 -2.016,4.778 0.414,-1.022 0.676,-2.068 0.823,-3.159 -0.238,1.772 -0.476,3.544 -0.714,5.316 0.138,-1.26 0.118,-2.507 -0.033,-3.765 0.238,1.772 0.476,3.544 0.714,5.316 -0.218,-1.542 -0.623,-3.025 -1.205,-4.469 0.672,1.592 1.344,3.185 2.016,4.777 -0.617,-1.449 -1.392,-2.797 -2.348,-4.05 1.042,1.349 2.085,2.699 3.127,4.048 -0.749,-0.937 -1.574,-1.781 -2.505,-2.538 1.349,1.042 2.698,2.085 4.047,3.127 -0.947,-0.73 -1.951,-1.33 -3.05,-1.803 1.593,0.672 3.185,1.344 4.778,2.016 -1.371,-0.543 -2.795,-0.89 -4.25,-1.116 1.772,0.238 3.544,0.476 5.317,0.714 -1.901,-0.245 -3.779,-0.239 -5.682,-0.018 1.773,-0.238 3.545,-0.477 5.317,-0.715 -2.646,0.366 -5.168,1.119 -7.627,2.152 1.592,-0.672 3.185,-1.344 4.777,-2.016 -3.362,1.475 -6.466,3.405 -9.378,5.636 1.35,-1.042 2.699,-2.084 4.048,-3.127 -4.795,3.756 -9.015,8.236 -12.746,13.039 1.043,-1.349 2.085,-2.698 3.127,-4.048 -4.355,5.685 -7.956,11.884 -10.742,18.482 0.672,-1.593 1.344,-3.185 2.016,-4.778 -2.468,5.952 -4.244,12.147 -5.269,18.509 -11.143,-6.486 -22.285,-12.972 -33.428,-19.459 0.317,-0.358 0.619,-0.72 0.915,-1.096 -1.042,1.35 -2.085,2.699 -3.127,4.048 0.952,-1.279 1.725,-2.638 2.352,-4.104 -0.673,1.593 -1.345,3.185 -2.017,4.778 0.65,-1.634 1.085,-3.304 1.324,-5.045 -0.238,1.772 -0.476,3.545 -0.714,5.317 0.199,-1.749 0.191,-3.476 -0.028,-5.222 0.238,1.772 0.476,3.544 0.714,5.317 -0.237,-1.576 -0.637,-3.089 -1.224,-4.572 0.672,1.593 1.344,3.185 2.016,4.778 -0.439,-1.028 -0.947,-1.996 -1.549,-2.938 9.121,2.392 18.242,4.784 27.364,7.176 -2.727,1.408 -5.301,3.056 -7.731,4.93 1.35,-1.042 2.699,-2.085 4.048,-3.127 -3.493,2.746 -6.602,5.907 -9.327,9.415 1.042,-1.349 2.085,-2.698 3.127,-4.048 -2.986,3.911 -5.444,8.168 -7.36,12.698 0.672,-1.592 1.344,-3.185 2.016,-4.777 -1.879,4.544 -3.184,9.282 -3.866,14.153 0.238,-1.772 0.476,-3.545 0.714,-5.317 -0.599,4.556 -0.64,9.143 -0.067,13.704 l -0.715,-5.317 c 0.329,2.433 0.826,4.828 1.498,7.189 -6.428,-4.894 -12.857,-9.789 -19.285,-14.683 0.215,-0.017 0.429,-0.04 0.642,-0.069 -1.772,0.238 -3.544,0.476 -5.316,0.714 0.914,-0.138 1.79,-0.37 2.648,-0.716 l -4.778,2.016 c 0.803,-0.352 1.544,-0.785 2.246,-1.31 -1.35,1.043 -2.699,2.085 -4.048,3.128 0.758,-0.601 1.422,-1.276 2.021,-2.035 -1.042,1.349 -2.085,2.699 -3.127,4.048 0.716,-0.952 1.293,-1.974 1.764,-3.067 -0.672,1.592 -1.344,3.185 -2.016,4.777 0.588,-1.44 0.97,-2.928 1.184,-4.467 l -0.714,5.316 c 0.208,-1.692 0.208,-3.382 0.005,-5.075 0.238,1.772 0.476,3.544 0.714,5.317 -0.229,-1.68 -0.652,-3.305 -1.304,-4.871 0.672,1.593 1.344,3.185 2.016,4.778 -0.498,-1.136 -1.102,-2.199 -1.843,-3.195 1.043,1.349 2.085,2.698 3.127,4.048 -0.69,-0.887 -1.461,-1.674 -2.344,-2.369 1.349,1.042 2.699,2.084 4.048,3.127 -0.835,-0.623 -1.719,-1.131 -2.678,-1.538 l 4.778,2.017 c -1.068,-0.419 -2.167,-0.687 -3.301,-0.854 1.772,0.238 3.544,0.476 5.317,0.714 -1.237,-0.146 -2.457,-0.148 -3.695,-0.012 1.773,-0.238 3.545,-0.476 5.317,-0.714 -1.494,0.207 -2.915,0.605 -4.308,1.182 1.592,-0.672 3.185,-1.344 4.777,-2.016 -1.531,0.677 -2.94,1.533 -4.266,2.555 1.349,-1.043 2.698,-2.085 4.048,-3.127 -1.451,1.164 -2.735,2.48 -3.881,3.944 1.043,-1.349 2.085,-2.698 3.127,-4.047 -1.221,1.622 -2.228,3.355 -3.025,5.223 0.672,-1.592 1.344,-3.185 2.016,-4.777 -0.704,1.739 -1.198,3.523 -1.461,5.381 0.238,-1.772 0.476,-3.544 0.714,-5.317 -0.188,1.567 -0.203,3.117 -0.025,4.685 -0.238,-1.773 -0.476,-3.545 -0.714,-5.317 0.139,1.001 0.349,1.97 0.64,2.939 l -38.571,0 c 1.841,-4.646 3.092,-9.467 3.763,-14.418 l -0.715,5.316 c 0.647,-5.156 0.652,-10.339 -0.001,-15.495 0.238,1.772 0.477,3.544 0.715,5.317 -0.422,-3.079 -1.007,-6.127 -2.172,-9.019 0.672,1.593 1.344,3.185 2.016,4.778 -0.556,-1.297 -1.217,-2.514 -2.054,-3.65 1.042,1.349 2.084,2.698 3.127,4.047 -0.57,-0.718 -1.184,-1.359 -1.887,-1.949 1.349,1.042 2.699,2.084 4.048,3.127 -0.727,-0.556 -1.481,-1.009 -2.32,-1.378 1.592,0.672 3.185,1.344 4.777,2.016 -0.63,-0.243 -1.256,-0.42 -1.921,-0.538 1.773,0.238 3.545,0.476 5.317,0.714 -0.767,-0.098 -1.508,-0.104 -2.278,-0.02 1.772,-0.238 3.545,-0.476 5.317,-0.715 -0.761,0.118 -1.478,0.312 -2.198,0.585 1.593,-0.672 3.185,-1.344 4.778,-2.016 -0.978,0.414 -1.863,0.942 -2.711,1.579 1.349,-1.042 2.699,-2.084 4.048,-3.127 -0.976,0.784 -1.83,1.666 -2.601,2.65 1.043,-1.349 2.085,-2.698 3.127,-4.047 -0.856,1.155 -1.554,2.382 -2.116,3.706 0.672,-1.592 1.344,-3.185 2.016,-4.777 -0.474,1.208 -0.812,2.437 -1.006,3.721 l 0.714,-5.317 c -0.136,1.135 -0.15,2.248 -0.025,3.384 l -0.714,-5.317 c 0.205,1.402 0.621,2.743 1.143,4.057 -0.672,-1.592 -1.344,-3.185 -2.016,-4.778 0.834,1.959 1.925,3.746 3.224,5.429 -1.043,-1.349 -2.085,-2.698 -3.128,-4.047 2.104,2.628 4.594,4.869 7.247,6.929 -1.35,-1.042 -2.699,-2.085 -4.048,-3.127 2.157,1.649 4.397,3.178 6.659,4.677 -10.032,5.756 -20.063,11.513 -30.094,17.269 0.305,-3.757 0.207,-7.512 -0.269,-11.251 l 0.714,5.317 c -0.688,-5.039 -2.048,-9.928 -4.02,-14.614 0.672,1.593 1.344,3.185 2.016,4.778 -1.949,-4.523 -4.434,-8.766 -7.43,-12.674 1.042,1.349 2.084,2.699 3.127,4.048 -2.823,-3.617 -6.04,-6.874 -9.645,-9.712 l 4.048,3.127 c -2.075,-1.602 -4.249,-3.049 -6.531,-4.339 9.793,-7.528 19.587,-15.057 29.38,-22.586 0.844,2.537 1.783,5.035 2.818,7.5 -0.672,-1.593 -1.344,-3.185 -2.016,-4.778 3.303,7.737 7.551,15.013 12.669,21.69 -1.042,-1.35 -2.084,-2.699 -3.127,-4.048 0.702,0.904 1.417,1.798 2.146,2.682 -11.143,6.486 -22.285,12.972 -33.428,19.459 -0.208,-0.507 -0.418,-1.012 -0.63,-1.517 0.672,1.593 1.344,3.185 2.016,4.778 -4.575,-10.76 -10.516,-20.878 -17.649,-30.141 1.043,1.349 2.085,2.698 3.128,4.047 -6.721,-8.656 -14.431,-16.489 -23.008,-23.314 l 33.428,-19.459 c 0.417,1.155 0.863,2.297 1.338,3.43 -0.672,-1.592 -1.344,-3.185 -2.016,-4.777 2.152,5.01 4.91,9.704 8.223,14.034 -1.042,-1.349 -2.085,-2.698 -3.127,-4.048 3.349,4.303 7.189,8.161 11.491,11.512 -1.349,-1.042 -2.699,-2.085 -4.048,-3.127 0.836,0.64 1.684,1.261 2.547,1.865 -9.793,7.529 -19.587,15.058 -29.38,22.586 -1.542,-6.148 -3.558,-12.157 -6.018,-17.999 0.672,1.593 1.344,3.185 2.016,4.778 -4.234,-9.937 -9.723,-19.281 -16.312,-27.838 1.042,1.349 2.085,2.698 3.127,4.047 -6.517,-8.393 -14.04,-15.95 -22.44,-22.461 1.349,1.043 2.698,2.085 4.047,3.127 -3.123,-2.4 -6.352,-4.65 -9.688,-6.746 10.031,-5.756 20.063,-11.513 30.094,-17.269 0.084,0.89 0.184,1.778 0.298,2.666 -0.238,-1.773 -0.476,-3.545 -0.714,-5.317 0.783,5.685 2.301,11.213 4.501,16.513 -0.672,-1.593 -1.344,-3.185 -2.016,-4.778 2.243,5.283 5.126,10.239 8.621,14.791 -1.042,-1.35 -2.084,-2.699 -3.127,-4.048 1.874,2.399 3.899,4.662 6.079,6.787 L 70.961,114.82 c -2.09,-7.409 -4.636,-14.674 -7.621,-21.769 0.672,1.593 1.345,3.185 2.017,4.778 -6.168,-14.534 -14.155,-28.237 -23.784,-40.75 1.042,1.349 2.085,2.698 3.127,4.047 -1.975,-2.55 -3.95,-4.939 -6.489,-6.95 1.349,1.042 2.698,2.084 4.047,3.127 -1.994,-1.535 -4.136,-2.834 -6.441,-3.846 1.592,0.672 3.185,1.344 4.777,2.016 -1.662,-0.698 -3.364,-1.23 -5.151,-1.489 1.772,0.238 3.544,0.476 5.317,0.715 -1.025,-0.123 -2.037,-0.149 -3.062,-0.032 1.772,-0.238 3.544,-0.476 5.317,-0.714 -0.738,0.11 -1.43,0.288 -2.122,0.568 1.593,-0.672 3.185,-1.344 4.778,-2.016 -0.568,0.258 -1.081,0.565 -1.574,0.946 1.349,-1.043 2.698,-2.085 4.048,-3.128 -0.409,0.349 -0.767,0.721 -1.103,1.14 1.043,-1.349 2.085,-2.698 3.128,-4.048 -0.417,0.573 -0.747,1.17 -1.03,1.819 l 2.016,-4.777 c -0.046,0.118 -0.092,0.235 -0.138,0.353 L 45.875,25.351 c 5.658,4.765 9.014,12.003 11.222,18.886 1.357,4.227 2.147,8.639 3.847,12.754 -0.672,-1.593 -1.344,-3.185 -2.016,-4.778 0.52,1.159 1.165,2.228 1.921,3.247 -1.042,-1.349 -2.085,-2.698 -3.127,-4.047 0.979,1.254 2.082,2.365 3.324,3.359 l -4.047,-3.127 c 1.114,0.85 2.288,1.572 3.564,2.151 -1.592,-0.672 -3.185,-1.344 -4.777,-2.016 1.078,0.454 2.173,0.782 3.332,0.941 -1.772,-0.238 -3.545,-0.476 -5.317,-0.714 0.724,0.072 1.425,0.074 2.148,-0.011 -1.773,0.239 -3.545,0.477 -5.317,0.715 0.582,-0.096 1.126,-0.242 1.676,-0.455 -1.593,0.672 -3.185,1.344 -4.778,2.016 0.55,-0.247 1.042,-0.539 1.524,-0.901 -1.349,1.043 -2.699,2.085 -4.048,3.128 0.499,-0.419 0.925,-0.871 1.325,-1.385 -1.043,1.349 -2.085,2.698 -3.128,4.047 0.392,-0.571 0.705,-1.144 0.978,-1.781 l -2.017,4.778 c 0.292,-0.812 0.482,-1.616 0.607,-2.469 -0.238,1.773 -0.477,3.545 -0.715,5.317 0.204,-1.933 0.055,-3.842 -0.194,-5.764 0.238,1.772 0.476,3.545 0.714,5.317 -1.26,-9.152 -3.701,-18.082 -7.252,-26.61 l 2.016,4.778 c -2.527,-5.975 -5.443,-12.033 -9.417,-17.193 1.043,1.349 2.085,2.698 3.127,4.048 -1.999,-2.533 -4.246,-4.831 -6.788,-6.822 1.35,1.042 2.699,2.084 4.048,3.127 -1.804,-1.369 -3.708,-2.548 -5.787,-3.454 l 4.778,2.016 c -1.395,-0.571 -2.813,-0.994 -4.304,-1.229 1.773,0.238 3.545,0.476 5.317,0.714 -1.152,-0.147 -2.283,-0.171 -3.439,-0.054 1.773,-0.238 3.545,-0.476 5.317,-0.714 -1.168,0.16 -2.269,0.458 -3.359,0.908 1.593,-0.672 3.185,-1.344 4.778,-2.016 -0.93,0.424 -1.794,0.923 -2.614,1.534 l 4.048,-3.127 c -0.731,0.584 -1.371,1.23 -1.945,1.969 1.042,-1.35 2.085,-2.699 3.127,-4.048 -0.532,0.734 -0.966,1.504 -1.323,2.337 0.672,-1.593 1.344,-3.185 2.016,-4.778 -0.377,0.954 -0.633,1.927 -0.79,2.94 0.238,-1.772 0.476,-3.545 0.714,-5.317 -0.181,1.399 -0.164,2.785 0.016,4.183 -0.238,-1.773 -0.476,-3.545 -0.714,-5.317 0.235,1.555 0.662,3.046 1.273,4.496 -0.672,-1.593 -1.344,-3.185 -2.016,-4.778 0.594,1.335 1.323,2.578 2.209,3.741 -1.043,-1.349 -2.085,-2.698 -3.128,-4.048 0.827,1.039 1.746,1.962 2.795,2.776 -1.349,-1.042 -2.699,-2.085 -4.048,-3.127 0.869,0.64 1.783,1.175 2.77,1.61 -1.593,-0.672 -3.186,-1.344 -4.778,-2.016 1.121,0.456 2.262,0.737 3.458,0.913 -1.772,-0.238 -3.545,-0.476 -5.317,-0.714 1.391,0.163 2.764,0.161 4.155,0.002 -1.772,0.238 -3.545,0.476 -5.317,0.714 1.69,-0.241 3.298,-0.699 4.872,-1.358 l -4.778,2.016 c 1.585,-0.709 3.053,-1.584 4.444,-2.622 -1.349,1.042 -2.699,2.085 -4.048,3.127 1.651,-1.286 3.111,-2.747 4.409,-4.388 -1.043,1.349 -2.085,2.699 -3.128,4.048 1.273,-1.676 2.326,-3.465 3.161,-5.397 l -2.016,4.778 c 0.71,-1.744 1.212,-3.529 1.489,-5.392 -0.238,1.773 -0.476,3.545 -0.714,5.317 0.259,-2.027 0.252,-4.043 0.007,-6.071 0.238,1.772 0.476,3.544 0.714,5.316 C 30.311,9.201 29.748,7.106 28.922,5.07 l 2.016,4.778 C 30.144,7.985 29.157,6.246 27.945,4.623 28.988,5.972 30.03,7.322 31.073,8.671 29.943,7.218 28.672,5.924 27.218,4.795 l 4.048,3.127 C 30.141,7.089 28.957,6.387 27.681,5.812 29.273,6.484 30.866,7.156 32.458,7.828 31.016,7.222 29.538,6.81 27.988,6.602 29.76,6.84 31.532,7.078 33.304,7.316 32.208,7.206 31.135,7.221 30.042,7.356 31.814,7.118 33.586,6.88 35.358,6.642 34.143,6.83 32.982,7.155 31.84,7.61 c 1.593,-0.672 3.185,-1.344 4.778,-2.016 -1.397,0.6 -2.68,1.361 -3.891,2.28 1.35,-1.042 2.699,-2.085 4.048,-3.127 C 35.581,5.698 34.52,6.76 33.568,7.953 34.611,6.604 35.653,5.255 36.695,3.906 35.786,5.101 35.026,6.366 34.419,7.74 35.091,6.148 35.763,4.555 36.435,2.963 35.931,4.186 35.574,5.432 35.382,6.742 35.62,4.97 35.858,3.198 36.096,1.426 35.977,2.455 35.967,3.465 36.079,4.495 35.841,2.722 35.603,0.95 35.365,-0.822 c 0.149,1.037 0.418,2.017 0.82,2.985 l -2.016,-4.778 c 0.285,0.62 0.608,1.201 0.98,1.772 -3.984,-3.063 -7.968,-6.127 -11.953,-9.191 0.938,0.295 1.876,0.506 2.85,0.643 -1.773,-0.238 -3.545,-0.476 -5.317,-0.715 1.305,0.141 2.586,0.137 3.891,-0.005 -1.773,0.238 -3.545,0.476 -5.317,0.715 1.464,-0.204 2.863,-0.573 4.236,-1.118 l -4.777,2.016 c 1.204,-0.52 2.32,-1.149 3.384,-1.918 l -4.048,3.128 c 0.648,-0.501 1.249,-1.032 1.824,-1.614 8.079,10.47 16.158,20.941 24.237,31.411 -7.99,4.01 -15.98,8.02 -23.97,12.03 C 15.363,36.96 10.11,38.023 4.778,36.555 0.138,35.277 -4.889,31.69 -7.175,27.364 -9.627,22.722 -10.857,17.099 -9.191,11.952 -7.645,7.175 -4.639,2.328 0,0" /></g><g
           transform="translate(1135.4855,2522.0342)"
           id="g3399"><path
             id="path3401"
             style="fill:#3c3d29;fill-opacity:1;fill-rule:nonzero;stroke:none"
             d="m 0,0 c -0.712,-5.738 0.516,0.593 0.852,1.814 1.04,3.781 -1.932,-2.993 0.368,0.562 0.673,1.04 2.16,4.98 0.164,0.784 0.74,1.556 2.843,3.042 4.111,4.156 11.74,10.318 4.753,29.3 -8.826,33.428 -9.635,2.929 -19.141,6.252 -28.476,10.031 0.02,-0.008 -4.756,1.98 -2.261,0.921 2.223,-0.946 -1.083,0.478 -1.466,0.646 -2.306,1.009 -4.601,2.044 -6.883,3.106 -4.818,2.24 -9.581,4.599 -14.285,7.069 -8.914,4.68 -17.614,9.766 -26.065,15.239 -4.225,2.737 -8.387,5.57 -12.482,8.497 -2.048,1.464 -4.079,2.95 -6.092,4.46 -0.895,0.672 -1.785,1.349 -2.674,2.028 3.596,-2.744 -0.842,0.695 -1.238,1.01 -5.181,4.121 -10.047,6.408 -16.8,5.5 -5.679,-0.762 -12.079,-4.008 -14.611,-9.548 -14.573,-31.876 -32.622,-62.001 -52.7,-90.698 -4.989,-7.131 -10.1,-14.178 -15.308,-21.151 -2.525,-3.38 -5.073,-6.742 -7.641,-10.089 -0.351,-0.458 -2.537,-3.28 -1.014,-1.32 1.409,1.813 -0.324,-0.412 -0.507,-0.646 -1.561,-1.997 -3.122,-3.994 -4.693,-5.984 -11.016,-13.955 -22.344,-27.66 -33.818,-41.241 -46.537,-55.084 -93.928,-109.325 -138.848,-165.767 -46.298,-58.174 -90.98,-117.64 -133.853,-178.384 -42.398,-60.072 -83.049,-121.376 -121.882,-183.813 -38.677,-62.186 -75.547,-125.496 -110.544,-189.825 -4.358,-8.009 -8.684,-16.035 -12.984,-24.074 -5.039,-9.419 -2.527,-21.882 7.175,-27.364 15.546,-8.785 31.092,-17.57 46.638,-26.354 15.419,-8.714 30.631,-18.14 46.402,-26.196 12.152,-6.208 26.302,-6.043 36.02,4.61 6.416,7.034 11.62,15.583 17.221,23.276 10.586,14.538 21.171,29.077 31.757,43.615 41.589,57.12 83.964,113.787 123.093,172.643 33.052,49.714 62.629,101.543 92.469,153.213 28.951,50.132 58.298,100.173 91.889,147.38 4.13,5.805 8.323,11.565 12.587,17.272 1.976,2.645 3.967,5.278 5.973,7.899 3.049,3.983 -1.143,-1.441 1.058,1.373 1.25,1.598 2.498,3.195 3.757,4.785 8.789,11.105 17.881,21.972 27.322,32.529 18.884,21.116 39.169,40.997 61.006,59.055 2.748,2.273 5.521,4.516 8.317,6.729 1.194,0.944 2.365,1.968 3.616,2.834 -3.623,-2.509 0.923,0.681 2.05,1.531 4.327,3.263 7.694,6.516 9.191,11.953 1.318,4.787 0.723,11.162 -2.016,15.411 -5.308,8.233 -18.43,13.912 -27.364,7.175 -46.944,-35.399 -86.817,-77.734 -122.4,-124.396 -34.555,-45.315 -64.4,-93.992 -93.144,-143.129 -28.821,-49.268 -56.56,-99.19 -86.929,-147.536 -36.396,-57.941 -76.975,-113.085 -117.227,-168.369 -20.982,-28.817 -41.964,-57.634 -62.946,-86.452 -2.457,-3.375 -4.915,-6.75 -7.372,-10.125 -0.479,-0.658 -1.06,-1.843 -1.701,-2.336 4.281,3.29 1.252,1.423 0.613,0.989 2.853,1.941 5.169,3.094 8.581,3.216 1.388,0.455 2.682,0.371 3.881,-0.25 1.375,-0.593 1.194,-0.451 -0.543,0.426 -7.325,4.488 -15.007,8.48 -22.486,12.707 -15.269,8.628 -30.537,17.256 -45.806,25.883 -7.773,4.393 -15.546,8.785 -23.319,13.178 2.392,-9.122 4.784,-18.243 7.175,-27.364 34.684,64.834 71.234,128.665 109.629,191.374 38.24,62.456 78.294,123.801 120.09,183.935 20.983,30.188 42.405,60.07 64.257,89.635 10.838,14.664 21.783,29.249 32.833,43.754 2.673,3.51 5.353,7.015 8.038,10.515 1.253,1.633 2.508,3.265 3.764,4.897 0.718,0.932 1.436,1.864 2.154,2.795 3.451,4.477 -1.356,-1.742 0.649,0.84 5.593,7.2 11.187,14.4 16.82,21.569 44.93,57.19 92.025,112.464 139.339,167.676 46.148,53.853 91.81,109.401 124.766,172.557 4.025,7.713 7.836,15.533 11.454,23.445 -10.471,-1.349 -20.941,-2.698 -31.412,-4.047 C -97.813,37.054 -57.706,15.47 -13.964,2.173 -16.906,13.315 -19.848,24.458 -22.79,35.601 -33.4,26.276 -38.303,13.673 -40,0 c -1.293,-10.423 10.122,-20.442 20,-20 11.941,0.535 18.614,8.833 20,20" /></g><g
           transform="translate(1339.5426,2401.5459)"
           id="g3403"><path
             id="path3405"
             style="fill:#737373;fill-opacity:1;fill-rule:nonzero;stroke:none"
             d="m 0,0 c -26.564,21.724 -54.021,42.388 -82.357,61.747 -27.182,18.571 -55.173,35.958 -83.869,52.092 -16.133,9.071 -32.491,17.739 -49.047,26.013 -4.622,2.31 -10.286,3.675 -15.411,2.016 -5.142,-1.664 -8.916,-4.694 -11.953,-9.191 -25.258,-37.404 -50.516,-74.807 -75.774,-112.21 -25.258,-37.403 -50.516,-74.806 -75.774,-112.21 -3.158,-4.675 -6.315,-9.351 -9.472,-14.026 -1.503,-2.225 -3.076,-4.418 -4.488,-6.702 -2.9,-4.695 -4.28,-9.577 -4.844,-15.005 -0.902,-8.689 3.68,-17.245 9.647,-23.238 3.672,-3.689 7.943,-6.869 11.917,-10.224 17.298,-14.602 34.597,-29.204 51.895,-43.805 34.597,-29.204 69.193,-58.408 103.79,-87.611 34.597,-29.204 69.193,-58.408 103.79,-87.611 4.325,-3.651 8.649,-7.301 12.974,-10.952 4.134,-3.489 8.561,-5.858 14.142,-5.858 4.905,0 10.765,2.179 14.142,5.858 3.499,3.812 6.096,8.816 5.858,14.142 -0.226,5.041 -1.849,10.759 -5.858,14.143 l -112.185,94.697 c -37.395,31.565 -74.79,63.131 -112.185,94.697 -10.429,8.804 -20.859,17.608 -31.289,26.412 -5.342,4.509 -10.684,9.019 -16.027,13.528 -4.737,3.999 -10.171,7.754 -14.174,12.52 1.043,-1.35 2.085,-2.699 3.127,-4.048 -0.742,0.967 -1.352,1.942 -1.843,3.058 l 2.016,-4.777 c -0.242,0.69 -0.405,1.319 -0.526,2.041 0.238,-1.772 0.476,-3.544 0.714,-5.316 -0.06,0.817 -0.032,1.53 0.075,2.344 -0.238,-1.772 -0.476,-3.544 -0.714,-5.316 0.186,0.821 0.417,1.551 0.727,2.334 -0.672,-1.592 -1.344,-3.185 -2.016,-4.777 1.952,4.18 4.971,7.94 7.545,11.753 2.693,3.987 5.386,7.975 8.079,11.963 5.479,8.113 10.957,16.227 16.436,24.34 10.865,16.089 21.73,32.178 32.594,48.266 21.823,32.316 43.645,64.631 65.467,96.946 12.258,18.152 24.516,36.303 36.773,54.455 -9.121,-2.392 -18.242,-4.783 -27.364,-7.175 51.3,-25.637 100.652,-55.142 147.493,-88.231 13.134,-9.279 26.066,-18.842 38.797,-28.666 -1.349,1.042 -2.698,2.084 -4.047,3.127 8.402,-6.495 16.714,-13.105 24.935,-19.827 4.229,-3.459 8.476,-5.858 14.142,-5.858 4.905,0 10.765,2.179 14.142,5.858 3.499,3.811 6.096,8.815 5.858,14.142 C 5.634,-9.152 4.036,-3.301 0,0" /></g></g></g></g></svg>