<?xml version="1.0" encoding="UTF-8" standalone="no"?>
<svg
   xmlns:dc="http://purl.org/dc/elements/1.1/"
   xmlns:cc="http://creativecommons.org/ns#"
   xmlns:rdf="http://www.w3.org/1999/02/22-rdf-syntax-ns#"
   xmlns:svg="http://www.w3.org/2000/svg"
   xmlns="http://www.w3.org/2000/svg"
   viewBox="0 0 3750 3750"
   height="3750"
   width="3750"
   xml:space="preserve"
   version="1.1"
   id="svg3343"><metadata
     id="metadata3349"><rdf:RDF><cc:Work
         rdf:about=""><dc:format>image/svg+xml</dc:format><dc:type
           rdf:resource="http://purl.org/dc/dcmitype/StillImage" /><dc:title></dc:title></cc:Work></rdf:RDF></metadata><defs
     id="defs3347"><radialGradient
       id="radialGradient3365"
       spreadMethod="pad"
       gradientTransform="matrix(1500,0,0,-1500,1500,1500)"
       gradientUnits="userSpaceOnUse"
       r="1"
       cy="0"
       cx="0"
       fy="0"
       fx="0"><stop
         id="stop3367"
         offset="0"
         style="stop-opacity:1;stop-color:#5cb13c" /><stop
         id="stop3369"
         offset="1"
         style="stop-opacity:1;stop-color:#e2ebbe" /></radialGradient><clipPath
       id="clipPath3377"
       clipPathUnits="userSpaceOnUse"><path
         id="path3379"
         d="m 0,3000 3000,0 L 3000,0 0,0 0,3000 Z" /></clipPath><clipPath
       id="clipPath3387"
       clipPathUnits="userSpaceOnUse"><path
         id="path3389"
         d="m 0,3000 3000,0 L 3000,0 0,0 0,3000 Z" /></clipPath><clipPath
       id="clipPath3411"
       clipPathUnits="userSpaceOnUse"><path
         id="path3413"
         d="m 0,3000 3000,0 L 3000,0 0,0 0,3000 Z" /></clipPath><clipPath
       id="clipPath4331"
       clipPathUnits="userSpaceOnUse"><path
         id="path4333"
         d="m 0,3000 3000,0 L 3000,0 0,0 0,3000 Z" /></clipPath><clipPath
       id="clipPath4347"
       clipPathUnits="userSpaceOnUse"><path
         id="path4349"
         d="m 0,3000 3000,0 L 3000,0 0,0 0,3000 Z" /></clipPath><clipPath
       id="clipPath4363"
       clipPathUnits="userSpaceOnUse"><path
         id="path4365"
         d="m 0,3000 3000,0 L 3000,0 0,0 0,3000 Z" /></clipPath><clipPath
       id="clipPath4379"
       clipPathUnits="userSpaceOnUse"><path
         id="path4381"
         d="m 0,3000 3000,0 L 3000,0 0,0 0,3000 Z" /></clipPath><clipPath
       id="clipPath4395"
       clipPathUnits="userSpaceOnUse"><path
         id="path4397"
         d="m 0,3000 3000,0 L 3000,0 0,0 0,3000 Z" /></clipPath><clipPath
       id="clipPath4411"
       clipPathUnits="userSpaceOnUse"><path
         id="path4413"
         d="m 0,3000 3000,0 L 3000,0 0,0 0,3000 Z" /></clipPath><clipPath
       id="clipPath4787"
       clipPathUnits="userSpaceOnUse"><path
         id="path4789"
         d="m 0,3000 3000,0 L 3000,0 0,0 0,3000 Z" /></clipPath><clipPath
       id="clipPath4907"
       clipPathUnits="userSpaceOnUse"><path
         id="path4909"
         d="m 0,3000 3000,0 L 3000,0 0,0 0,3000 Z" /></clipPath><clipPath
       id="clipPath5883"
       clipPathUnits="userSpaceOnUse"><path
         id="path5885"
         d="m 0,3000 3000,0 L 3000,0 0,0 0,3000 Z" /></clipPath><clipPath
       id="clipPath5891"
       clipPathUnits="userSpaceOnUse"><path
         id="path5893"
         d="m 1269.23,1950.63 400.2,0 0,-645.05 -400.2,0 0,645.05 z" /></clipPath><clipPath
       id="clipPath5907"
       clipPathUnits="userSpaceOnUse"><path
         id="path5909"
         d="m 1282.3,1910.43 333.08,0 0,-335.96 -333.08,0 0,335.96 z" /></clipPath><clipPath
       id="clipPath5923"
       clipPathUnits="userSpaceOnUse"><path
         id="path5925"
         d="m 1275.54,1862.49 332.53,0 0,-370.26 -332.53,0 0,370.26 z" /></clipPath><clipPath
       id="clipPath6067"
       clipPathUnits="userSpaceOnUse"><path
         id="path6069"
         d="m 0,3000 3000,0 L 3000,0 0,0 0,3000 Z" /></clipPath><clipPath
       id="clipPath6083"
       clipPathUnits="userSpaceOnUse"><path
         id="path6085"
         d="m 789.129,2641.88 1575.421,0 0,-1679.73 -1575.421,0 0,1679.73 z" /></clipPath><clipPath
       id="clipPath6099"
       clipPathUnits="userSpaceOnUse"><path
         id="path6101"
         d="m 1823.37,2460.74 374.02,0 0,-471.9 -374.02,0 0,471.9 z" /></clipPath><clipPath
       id="clipPath6175"
       clipPathUnits="userSpaceOnUse"><path
         id="path6177"
         d="m 0,3000 3000,0 L 3000,0 0,0 0,3000 Z" /></clipPath></defs><g
     transform="matrix(1.25,0,0,-1.25,0,3750)"
     id="g3351"><g
       id="g3373"><g
         clip-path="url(#clipPath3377)"
         id="g3375"><path
           id="path3381"
           style="fill:none;stroke:#9b9b9b;stroke-width:1;stroke-linecap:butt;stroke-linejoin:miter;stroke-miterlimit:10;stroke-dasharray:none;stroke-opacity:1"
           d="m 0,3000 3000,0 L 3000,0 0,0 0,3000 Z" /></g></g></g></svg>