<?xml version="1.0" encoding="UTF-8" standalone="no"?>
<svg
   xmlns:dc="http://purl.org/dc/elements/1.1/"
   xmlns:cc="http://creativecommons.org/ns#"
   xmlns:rdf="http://www.w3.org/1999/02/22-rdf-syntax-ns#"
   xmlns:svg="http://www.w3.org/2000/svg"
   xmlns="http://www.w3.org/2000/svg"
   viewBox="0 0 3750 3750"
   height="3750"
   width="3750"
   xml:space="preserve"
   version="1.1"
   id="svg3343"><metadata
     id="metadata3349"><rdf:RDF><cc:Work
         rdf:about=""><dc:format>image/svg+xml</dc:format><dc:type
           rdf:resource="http://purl.org/dc/dcmitype/StillImage" /><dc:title></dc:title></cc:Work></rdf:RDF></metadata><defs
     id="defs3347"><radialGradient
       id="radialGradient3365"
       spreadMethod="pad"
       gradientTransform="matrix(1500,0,0,-1500,1500,1500)"
       gradientUnits="userSpaceOnUse"
       r="1"
       cy="0"
       cx="0"
       fy="0"
       fx="0"><stop
         id="stop3367"
         offset="0"
         style="stop-opacity:1;stop-color:#5cb13c" /><stop
         id="stop3369"
         offset="1"
         style="stop-opacity:1;stop-color:#e2ebbe" /></radialGradient><clipPath
       id="clipPath3377"
       clipPathUnits="userSpaceOnUse"><path
         id="path3379"
         d="m 0,3000 3000,0 L 3000,0 0,0 0,3000 Z" /></clipPath><clipPath
       id="clipPath3387"
       clipPathUnits="userSpaceOnUse"><path
         id="path3389"
         d="m 0,3000 3000,0 L 3000,0 0,0 0,3000 Z" /></clipPath><clipPath
       id="clipPath3411"
       clipPathUnits="userSpaceOnUse"><path
         id="path3413"
         d="m 0,3000 3000,0 L 3000,0 0,0 0,3000 Z" /></clipPath><clipPath
       id="clipPath4331"
       clipPathUnits="userSpaceOnUse"><path
         id="path4333"
         d="m 0,3000 3000,0 L 3000,0 0,0 0,3000 Z" /></clipPath><clipPath
       id="clipPath4347"
       clipPathUnits="userSpaceOnUse"><path
         id="path4349"
         d="m 0,3000 3000,0 L 3000,0 0,0 0,3000 Z" /></clipPath><clipPath
       id="clipPath4363"
       clipPathUnits="userSpaceOnUse"><path
         id="path4365"
         d="m 0,3000 3000,0 L 3000,0 0,0 0,3000 Z" /></clipPath><clipPath
       id="clipPath4379"
       clipPathUnits="userSpaceOnUse"><path
         id="path4381"
         d="m 0,3000 3000,0 L 3000,0 0,0 0,3000 Z" /></clipPath><clipPath
       id="clipPath4395"
       clipPathUnits="userSpaceOnUse"><path
         id="path4397"
         d="m 0,3000 3000,0 L 3000,0 0,0 0,3000 Z" /></clipPath><clipPath
       id="clipPath4411"
       clipPathUnits="userSpaceOnUse"><path
         id="path4413"
         d="m 0,3000 3000,0 L 3000,0 0,0 0,3000 Z" /></clipPath><clipPath
       id="clipPath4787"
       clipPathUnits="userSpaceOnUse"><path
         id="path4789"
         d="m 0,3000 3000,0 L 3000,0 0,0 0,3000 Z" /></clipPath><clipPath
       id="clipPath4907"
       clipPathUnits="userSpaceOnUse"><path
         id="path4909"
         d="m 0,3000 3000,0 L 3000,0 0,0 0,3000 Z" /></clipPath><clipPath
       id="clipPath5883"
       clipPathUnits="userSpaceOnUse"><path
         id="path5885"
         d="m 0,3000 3000,0 L 3000,0 0,0 0,3000 Z" /></clipPath><clipPath
       id="clipPath5891"
       clipPathUnits="userSpaceOnUse"><path
         id="path5893"
         d="m 1269.23,1950.63 400.2,0 0,-645.05 -400.2,0 0,645.05 z" /></clipPath><clipPath
       id="clipPath5907"
       clipPathUnits="userSpaceOnUse"><path
         id="path5909"
         d="m 1282.3,1910.43 333.08,0 0,-335.96 -333.08,0 0,335.96 z" /></clipPath><clipPath
       id="clipPath5923"
       clipPathUnits="userSpaceOnUse"><path
         id="path5925"
         d="m 1275.54,1862.49 332.53,0 0,-370.26 -332.53,0 0,370.26 z" /></clipPath><clipPath
       id="clipPath6067"
       clipPathUnits="userSpaceOnUse"><path
         id="path6069"
         d="m 0,3000 3000,0 L 3000,0 0,0 0,3000 Z" /></clipPath><clipPath
       id="clipPath6083"
       clipPathUnits="userSpaceOnUse"><path
         id="path6085"
         d="m 789.129,2641.88 1575.421,0 0,-1679.73 -1575.421,0 0,1679.73 z" /></clipPath><clipPath
       id="clipPath6099"
       clipPathUnits="userSpaceOnUse"><path
         id="path6101"
         d="m 1823.37,2460.74 374.02,0 0,-471.9 -374.02,0 0,471.9 z" /></clipPath><clipPath
       id="clipPath6175"
       clipPathUnits="userSpaceOnUse"><path
         id="path6177"
         d="m 0,3000 3000,0 L 3000,0 0,0 0,3000 Z" /></clipPath></defs><g
     transform="matrix(1.25,0,0,-1.25,0,3750)"
     id="g3351"><g
       id="g3373"><g
         clip-path="url(#clipPath3377)"
         id="g3375"><path
           id="path3381"
           style="fill:none;stroke:#9b9b9b;stroke-width:1;stroke-linecap:butt;stroke-linejoin:miter;stroke-miterlimit:10;stroke-dasharray:none;stroke-opacity:1"
           d="m 0,3000 3000,0 L 3000,0 0,0 0,3000 Z" /></g></g></g><g
     style="display:inline"
     id="layer1"><g
       id="g6063"
       transform="matrix(1.25,0,0,-1.25,0,3750)"><g
         clip-path="url(#clipPath6067)"
         id="g6065"><g
           transform="translate(1415.173,977.0182)"
           id="g6071"><path
             id="path6073"
             style="fill:#9b9b9b;fill-opacity:1;fill-rule:nonzero;stroke:none"
             d="M 0,0 C -10.179,5.547 -17.117,15.81 -18.671,27.276 -19.253,26.251 -19.835,25.225 -20.417,24.2 -8.058,26.188 4.138,20.591 15.345,16.159 27.047,11.532 38.85,7.151 50.795,3.19 c 23.804,-7.893 48.21,-14.087 73.134,-17.128 6.25,-0.762 12.526,-1.319 18.815,-1.645 3.063,-0.159 6.133,-0.18 9.195,-0.355 2.607,-0.149 5.514,-0.505 7.642,-2.166 1.495,-1.166 2.769,-3.097 2.279,-5.052 -0.549,-2.186 -2.829,-3.658 -4.587,-4.829 -4.812,-3.204 -9.969,-5.938 -15.355,-8.043 -2.728,-1.066 -5.513,-1.988 -8.338,-2.762 -2.802,-0.769 -5.798,-1.678 -8.727,-1.599 -2.845,0.077 -5.259,1.824 -7.659,3.159 -2.59,1.44 -5.228,2.791 -7.904,4.063 -10.919,5.193 -22.383,9.112 -33.907,12.717 -11.375,3.56 -22.845,6.84 -34.067,10.872 C 29.681,-5.397 18.15,-0.247 5.672,0.72 2.631,0.956 -0.416,0.894 -3.442,0.515 c -1.34,-0.168 -2.5,-1.029 -2.5,-2.5 0,-1.221 1.151,-2.669 2.5,-2.5 12.832,1.608 25.141,-3.084 36.943,-7.514 11.66,-4.376 23.527,-8.031 35.427,-11.685 11.702,-3.594 23.432,-7.295 34.616,-12.312 2.768,-1.242 5.502,-2.559 8.19,-3.967 2.652,-1.389 5.193,-3.062 7.946,-4.244 3.285,-1.409 6.584,-1.328 10.041,-0.647 3.035,0.598 6.036,1.42 8.976,2.377 5.769,1.878 11.367,4.359 16.621,7.394 4.697,2.714 11.077,6.109 11.618,12.167 0.551,6.169 -5.351,10.512 -10.796,11.501 -3.189,0.579 -6.435,0.545 -9.662,0.665 -3.111,0.116 -6.22,0.289 -9.325,0.517 C 111.421,-8.346 86.105,-2.632 61.504,5 49.106,8.846 36.867,13.189 24.748,17.836 12.746,22.437 0.64,28.51 -12.362,29.471 c -3.149,0.233 -6.27,0.052 -9.385,-0.449 -1.453,-0.234 -1.91,-1.864 -1.746,-3.076 C -21.78,13.306 -13.705,1.777 -2.524,-4.317 0.303,-5.858 2.829,-1.542 0,0" /></g><g
           transform="translate(1579.0553,960.4033)"
           id="g6075"><path
             id="path6077"
             style="fill:#9b9b9b;fill-opacity:1;fill-rule:nonzero;stroke:none"
             d="m 0,0 c 39,3.238 77.744,9.441 115.911,18.059 67.088,15.147 132.526,37.827 194.462,67.749 80.205,38.749 154.294,90.006 218.196,152.112 72.633,70.59 131.926,154.633 173.908,246.809 34.077,74.821 56.862,154.533 68.769,235.841 7.627,52.083 10.65,104.635 10.035,157.247 -0.833,71.24 -9.591,142.31 -26.503,211.536 -23.993,98.21 -65.047,189.704 -118.85,275.096 -45.358,71.987 -99.648,137.517 -167.771,189.127 -84.082,63.701 -183.443,103.069 -287.552,118.366 -78.066,11.471 -156.933,9.45 -235.526,6.467 -80.943,-3.071 -161.762,-11.72 -239.66,-34.877 -98.409,-29.254 -189.121,-80.928 -263.72,-151.574 -61.479,-58.222 -110.978,-128.182 -147.89,-204.258 -36.2,-74.607 -62.631,-154.11 -75.442,-236.119 -11.796,-75.505 -12,-151.862 -4.091,-227.75 9.722,-93.273 32.558,-184.323 69.299,-270.66 27.685,-65.057 62.698,-127.03 104.143,-184.315 52.455,-72.502 115.284,-137.278 186.087,-191.997 59.002,-45.6 123.346,-84.288 191.299,-114.998 21.327,-9.639 43.009,-18.48 64.989,-26.518 3.026,-1.107 4.331,3.723 1.329,4.821 -53.893,19.708 -105.92,44.394 -155.367,73.51 -76.738,45.185 -147.102,101.065 -208.144,165.928 -48.973,52.039 -91.788,109.72 -127.65,171.517 -42.744,73.656 -75.585,153.033 -96.781,235.533 -19.584,76.224 -29.492,155.741 -29.849,234.479 -0.447,98.373 16.753,196.465 51.976,288.39 23.437,61.165 52.43,120.109 89.795,174.041 57.578,83.108 133.728,153.004 222.471,201.666 81.197,44.525 171.183,69.686 262.846,80.574 70.41,8.363 142.334,10.427 213.207,10.041 93.055,-0.505 186.076,-13.108 272.886,-47.902 95.132,-38.129 178.708,-100.984 243.637,-180.06 23.882,-29.086 45.111,-60.174 65.004,-92.09 26.731,-42.885 50.795,-87.129 70.39,-133.757 35.332,-84.074 57.455,-173.667 66.213,-264.413 4.748,-49.19 5.545,-98.894 2.977,-148.244 C 771.453,740.616 760.493,672.219 741.658,605.97 716.07,515.97 675.704,430.373 621.532,354.026 564.535,273.698 492.842,203.981 411.029,149.155 345.998,105.574 274.874,71.349 200.585,46.759 149.027,29.694 95.892,17.095 42.085,9.647 28.103,7.711 14.068,6.168 0,5 -3.184,4.736 -3.212,-0.267 0,0" /></g><g
           id="g6079"><g
             id="g6081" /><g
             id="g6087"><g
               style="opacity:0.52999902"
               id="g6089"
               clip-path="url(#clipPath6083)"><g
                 id="g6091"
                 transform="translate(1033.7997,2465.9187)"><path
                   id="path6093"
                   style="fill:#3c6a9c;fill-opacity:1;fill-rule:nonzero;stroke:none"
                   d="m 0,0 c -16.763,-15.157 -32.536,-31.369 -47.139,-48.62 -22.065,-26.065 -43.214,-53.329 -61.833,-82.004 -12.098,-18.632 -22.981,-38.053 -32.541,-58.107 -14.935,-31.327 -28.58,-63.616 -39.381,-96.637 98.214,-13.292 196.428,-26.584 294.642,-39.876 0.657,9.917 1.314,19.834 1.97,29.751 0.779,20.652 -3.527,39.916 -12.919,57.792 -6.049,18.597 -16.387,34.688 -31.015,48.274 -10.119,7.819 -20.238,15.637 -30.358,23.455 -17.218,10.962 -35.807,16.895 -55.77,17.8 -13.292,3.572 -26.584,3.572 -39.876,0 -19.962,-0.905 -38.552,-6.838 -55.77,-17.8 -10.119,-7.818 -20.238,-15.636 -30.358,-23.455 -18.59,-18.716 -31.449,-40.779 -38.576,-66.19 -18.248,-44.922 -34.434,-91.566 -44.093,-139.168 -3.293,-16.234 -6.005,-32.595 -8.338,-48.993 -5.592,-39.308 -11.181,-78.737 -12.829,-118.451 -1.145,-27.616 -0.23,-55.281 2.341,-82.795 3.648,-39.024 9.041,-78.1 16.577,-116.581 8.992,-45.914 21.655,-91.1 37.048,-135.269 14.463,-41.502 31.446,-82.225 49.511,-122.269 7.818,-10.119 15.636,-20.238 23.454,-30.358 13.587,-14.627 29.678,-24.966 48.274,-31.015 11.698,-6.784 24.316,-10.198 37.854,-10.24 19.938,-4.465 39.876,-3.572 59.814,2.679 24.119,7.424 48.361,17.147 69.965,30.332 15.553,9.492 30.228,21.879 44.108,32.989 5.053,4.044 9.884,8.318 14.373,12.985 16.625,17.285 32.113,36.743 43.768,57.763 8.647,15.595 15.215,33.193 21.592,49.359 2.29,5.805 4.235,11.716 5.646,17.8 4.204,18.128 6.219,37.12 7.87,55.57 0.534,5.971 0.596,11.976 0.198,17.957 -1.582,23.743 -4.019,49.392 -12.071,72.258 -5.878,16.688 -12.979,33.238 -20.679,49.17 -2.646,5.475 -5.675,10.763 -9.034,15.831 -9.748,14.706 -21.009,28.638 -32.258,42.191 -3.976,4.79 -8.273,9.315 -12.846,13.539 -18.956,17.504 -40.113,34.604 -63.364,46.282 -23.746,11.927 -49.41,23.472 -75.848,28.419 29.881,-22.978 59.763,-45.956 89.644,-68.934 -12.113,16.755 -24.843,33.09 -37.693,49.274 -5.356,6.747 -10.916,13.405 -17.089,19.427 -12.831,12.516 -27.094,24.181 -42.689,33 -27.208,15.388 -33.974,15.645 -59.819,19.118 -13.509,1.815 -13.948,2.431 -21.722,2.695 -25.568,0.869 -55.375,-8.213 -77.313,-20.927 -11.92,-6.908 -23.02,-15.573 -32.718,-25.362 -21.495,-21.696 -30.618,-40.99 -40.489,-69.521 -5.604,-16.197 -6.31,-34.96 -7.887,-51.238 -1.392,-14.362 -0.003,-28.921 1.802,-43.182 4.287,-33.883 8.88,-67.161 17.069,-100.284 16.704,-67.567 42.932,-132.844 72.223,-195.823 26.114,-56.149 57.858,-109.464 95.317,-158.787 24.733,-32.565 49.67,-64.929 77.235,-95.163 29.667,-32.54 61.774,-62.927 96.394,-90.157 51.017,-40.126 102.801,-77.686 162.652,-103.595 37.132,-16.075 74.021,-31.722 113.418,-41.223 13.882,-3.347 27.913,-5.989 42.049,-8.003 27.437,-3.908 54.987,-8.111 82.731,-9.149 46.691,-1.746 94.214,4.226 139.823,13.621 30.103,6.201 59.3,15.85 87.645,27.659 35.718,14.881 71.531,29.832 105.617,48.242 25.929,14.005 50.884,29.792 74.76,47.062 55.038,39.811 106.887,83.301 152.468,133.732 41.695,46.131 80.02,96.14 113.641,148.465 22.091,34.381 42.078,70.243 58.788,107.555 11.409,25.472 22.708,51.22 31.881,77.622 3.774,10.865 7.212,21.936 9.4,33.243 3.233,16.714 5.734,33.838 6.891,50.807 0.103,1.511 0.168,3.029 0.114,4.543 -0.026,0.709 -0.094,1.411 -0.138,2.118 -0.611,9.896 -3.403,31.767 -5.581,41.44 -5.334,23.695 -22.548,54.094 -40.579,70.704 -4.426,4.077 -25.992,20.744 -31.074,24.012 -11.348,7.298 -24.482,12.179 -37.547,15.723 -25.763,6.987 -58.876,7.674 -84.444,-0.526 -16.892,-5.418 -35.055,-12.543 -50.225,-22.685 -17.483,-11.688 -33.937,-25.009 -50.032,-38.535 -15.726,-13.215 -30.549,-27.545 -44.774,-42.353 -19.847,-20.66 -38.28,-42.943 -54.683,-66.413 -16.458,-23.548 -24.833,-55.633 -24.813,-84.097 0.019,-26.888 7.036,-53.029 20.602,-76.236 19.023,-32.541 52.885,-60.797 90.206,-69.39 1.931,-0.444 38.066,-5.345 40.223,-5.449 0.486,-0.023 0.969,0.017 1.451,-10e-4 0.119,0 31.05,2.25 44.02,6.38 49.909,15.89 95.389,46.664 133.559,81.859 17.981,16.58 32.687,37.3 47.086,56.675 6.938,9.335 13.04,19.281 18.343,29.629 17.016,33.204 31.444,69.062 39.097,105.76 7.959,38.162 12.781,77.6 13.663,116.627 0.636,28.15 -0.98,56.333 -4.168,84.3 -4.576,40.14 -10.122,80.321 -18.642,119.842 -10.587,49.114 -25.001,97.599 -43.766,144.224 -17.341,43.089 -35.833,85.565 -58.891,125.916 -12.219,21.383 -25.567,42.084 -39.015,62.708 -24.187,37.097 -50.379,73.15 -79.219,106.77 -30.198,35.202 -66.393,64.557 -104.388,91.002 -15.556,10.827 -31.934,20.471 -49.039,28.642 -26.566,12.689 -53.995,24.245 -82.018,33.404 -34.261,11.197 -69.746,20.16 -105.126,26.973 -79.509,15.31 -159.632,21.073 -240.349,16.129 -48.94,-2.998 -97.349,-8.531 -145.788,-16.441 C 331.265,153.07 302.514,147.123 274.119,139.805 227.13,127.695 182.786,110.53 138.187,91.467 124.707,85.705 111.47,79.489 99.068,71.62 82.294,60.977 66.714,48.161 51.356,35.74 44.685,30.345 38.409,24.461 32.615,18.133 13.222,-3.049 -5.624,-26.818 -18.471,-52.813 c -7.633,-15.445 -14.26,-31.439 -21.254,-47.181 -18.409,-41.436 -36.71,-83.019 -52.909,-125.374 -9.689,-25.333 -18.334,-51.185 -23.868,-77.773 -5.053,-24.272 -8.21,-49.069 -10.502,-73.717 -1.094,-11.757 -1.431,-23.58 -0.994,-35.38 0.957,-25.844 4.909,-51.751 9.196,-77.165 3.128,-18.534 8.206,-36.708 14.662,-54.351 10.484,-28.649 22.535,-56.992 36.514,-84.14 7.55,-14.663 15.648,-29.127 25.245,-42.564 15.915,-22.284 32.664,-46.229 54.495,-63.479 14.047,-11.099 30.297,-25.803 47.508,-33.99 17.498,-8.323 37.454,-18.307 57.285,-22.021 15.675,-2.936 32.227,-5.258 48.185,-6.362 4.165,-0.288 8.35,-0.258 12.512,0.064 19.581,1.512 41.144,3.407 60.447,9.306 19.1,5.837 37.786,13.883 55.395,23.307 17.935,9.599 34.635,23.96 49.803,36.578 6.151,5.117 11.731,10.882 16.788,17.077 13.046,15.985 26.926,32.542 37.37,50.643 14.643,25.38 25.927,53.431 34.229,81.549 7.88,26.689 10.919,54.19 14.361,81.757 1.813,14.526 2.574,29.14 1.845,43.77 -1.347,27.033 -4.605,54.533 -11.474,80.751 -1.704,6.503 -3.78,12.912 -6.275,19.155 -7.189,17.98 -13.997,36.758 -23.714,53.651 -9.056,15.743 -21.95,30.805 -32.841,44.392 -4.279,5.339 -8.807,10.402 -13.916,14.967 -13.995,12.504 -28.954,24.322 -44.847,34.362 -22.415,14.16 -50.912,21.451 -77.283,21.451 -34.232,0 -47.264,-8.206 -77.847,-21.4 -4.29,-1.851 -8.578,-3.709 -12.841,-5.622 -16.338,-7.329 -32.096,-15.54 -46.453,-26.309 -15.222,-11.417 -33.453,-23.804 -46.654,-38.6 -13.272,-14.876 -25.835,-30.792 -36.442,-47.712 -3.842,-6.13 -7.199,-12.553 -10.141,-19.161 -8.329,-18.708 -17.032,-37.735 -23.192,-57.395 -4.902,-15.643 -8.173,-31.753 -10.79,-47.92 -8.141,-50.304 -13.697,-101.148 -20.274,-151.689 -5.291,-40.655 -12.062,-81.426 -15.601,-122.273 -0.841,-9.697 -1.029,-19.352 -0.148,-29.054 1.923,-21.165 3.904,-45.371 11.821,-65.954 10.966,-28.511 22.47,-53.995 40.471,-78.302 24.574,-33.182 49.924,-65.813 74.899,-98.695 12.673,-16.685 25.335,-33.379 38.019,-50.055 8.195,-10.774 17.167,-24.594 25.108,-32.534 10.119,-7.819 20.238,-15.637 30.358,-23.455 23.396,-13.569 48.632,-20.395 75.708,-20.479 4.965,0.456 9.923,1.247 14.87,1.869 l 31.092,3.91 c 41.457,5.212 82.913,10.424 124.37,15.637 2.704,0.34 5.408,0.674 8.111,1.02 6.646,0.893 13.292,1.786 19.938,2.679 19.962,0.905 38.552,6.838 55.77,17.8 25.653,15.012 44.407,36.833 58.59,62.423 4.793,8.649 9.573,17.305 14.325,25.976 8.765,15.993 17.437,32.037 25.93,48.176 17.789,33.803 34.804,68.038 50.148,103.027 19.696,44.912 38.862,90.276 53.195,137.237 14.659,48.032 22.409,96.59 28.508,146.422 4.394,35.906 5.423,72.578 1.406,108.574 -3.19,28.585 -5.689,60.028 -15.978,87.561 -7.155,19.144 -14.474,38.989 -25.052,56.665 -10.185,17.019 -23.011,32.596 -35.976,47.526 -17.691,20.374 -41.738,36.717 -62.79,52.63 -12.373,9.353 -25.192,18.096 -37.484,27.556 10.119,-7.818 20.238,-15.637 30.358,-23.455 -5.262,4.098 -10.435,8.306 -15.383,12.78 -11.731,10.608 -19.041,18.724 -35.712,28.48 -11.944,5.041 -23.888,10.081 -35.832,15.121 -13.292,1.786 -26.584,3.572 -39.876,5.358 -12.73,0.571 -30.401,-3.245 -44.889,-6.426 -12.831,-2.817 -25.561,-6.274 -37.807,-11.064 -23.134,-9.048 -48.352,-17.986 -68.653,-33.142 -14.228,-10.622 -29.979,-20.955 -42.115,-34.242 -12.737,-13.944 -25.368,-29.308 -34.726,-45.941 -21.669,-38.511 -31.884,-81.544 -41.314,-124.209 -7.223,-32.683 -13.274,-65.625 -18.152,-98.739 -11.541,-78.356 -19.859,-156.81 -20.483,-236.061 -0.527,-66.967 3.786,-133.89 12.619,-200.268 3.834,-28.811 7.559,-57.629 12.407,-86.289 2.511,-14.844 4.646,-30.045 9.153,-44.446 11.004,-35.157 29.599,-73.171 58.029,-97.801 21.121,-18.298 41.728,-32.929 66.855,-44.001 41.329,-18.21 82.628,-35.099 126.868,-44.582 27.883,-5.977 56.47,-9.68 84.75,-12.711 7.662,-0.822 15.324,-1.228 23.017,-0.623 13.742,1.082 28.788,3.451 42.412,5.629 2.466,0.394 4.904,0.747 7.335,1.333 3.81,0.918 7.454,2.255 11.096,3.677 26.459,10.33 48.727,20.419 71.4,36.501 21.207,15.042 41.855,31.003 61.728,47.769 21.873,18.453 42.105,38.81 60.784,60.48 44.678,51.831 84.109,108.197 116.764,168.317 13.675,25.176 26.324,50.9 38.234,76.954 18.475,40.416 36.807,81.394 50.306,123.799 13.715,43.087 20.193,88.568 23.653,133.521 2.588,33.628 1.534,67.431 -1.045,101.025 -1.313,17.109 -3.027,34.184 -4.881,51.242 -0.854,7.856 -1.737,15.709 -2.629,23.56 -1.105,9.729 -2.467,19.397 -3.772,29.112 -1.322,9.84 -2.13,20.859 -4.688,30.768 -2.313,8.958 -6.893,17.916 -10.362,26.136 -3.858,9.143 -6.511,17.445 -11.922,25.328 -19.666,28.647 -36.297,46.03 -66.314,64.768 -15.715,9.809 -34.255,15.687 -51.117,22.755 -7.937,3.328 -15.895,6.608 -23.846,9.905 -15.772,6.538 -31.535,13.099 -47.316,19.616 -7.333,3.028 -14.693,6.066 -22.379,8.092 -19.854,5.236 -41.266,9.078 -61.843,7.422 -19.401,-1.562 -40.823,-3.41 -59.543,-10.574 -18.685,-7.151 -36.99,-15.216 -54.994,-23.908 -16.023,-7.735 -32.047,-15.471 -48.071,-23.207 -14.746,-7.119 -29.596,-14.059 -44.216,-21.438 -23.778,-12.002 -44.027,-27.637 -64.678,-44.824 -5.208,-4.334 -9.775,-9.169 -14.06,-14.401 -11.878,-14.502 -25.673,-30.602 -34.353,-47.988 -12.171,-24.376 -21.759,-50.083 -30.519,-75.863 -22.158,-65.205 -42.46,-131.04 -60.875,-197.4 -4.473,-16.121 -9.179,-32.251 -12.364,-48.689 -3.863,-19.941 -6.658,-40.359 -8.279,-60.575 -0.694,-8.663 -0.5,-17.256 0.387,-25.894 3.069,-29.897 7.121,-57.82 16.856,-85.975 5.526,-15.982 11.591,-31.786 17.45,-47.648 12.128,-32.838 24.257,-65.676 36.386,-98.514 2.835,-7.676 5.67,-15.353 8.506,-23.029 1.574,-4.263 3.105,-8.548 4.725,-12.794 2.52,-5.972 5.04,-11.944 7.561,-17.916 6.049,-18.596 16.387,-34.687 31.015,-48.274 13.586,-14.627 29.678,-24.966 48.274,-31.015 6.478,-3.757 13.3,-6.498 20.467,-8.221 16.098,-4.324 32.47,-7.822 48.833,-10.98 45.419,-8.767 91.63,-14.958 137.779,-18.212 16.636,-1.172 33.456,-2.269 50.136,-1.549 19.96,0.861 40.209,3.865 59.763,7.472 19.698,3.634 39.55,13.579 57.069,21.433 14.079,6.311 26.552,15.036 38.76,24.388 22.877,17.526 45.585,35.275 68.336,52.963 26.484,20.59 53.534,40.626 79.363,62.035 11.668,9.671 22.589,20.043 32.07,31.889 11.787,14.727 24.562,29.567 33.984,46.091 9.862,17.296 17.388,37.472 24.515,55.382 11.944,30.02 18.738,62.162 27.006,93.327 8.854,33.374 18.009,66.686 26.496,100.156 4.011,15.818 7.544,31.739 9.841,47.903 4.014,28.24 9.662,57.707 6.7,86.489 -2.782,27.036 -5.248,54.374 -15.553,79.685 -10.106,24.82 -21.555,48.601 -32.103,73.123 5.04,-11.944 10.081,-23.888 15.121,-35.832 -4.026,9.617 -7.339,19.373 -8.98,29.696 1.786,-13.292 3.572,-26.584 5.358,-39.876 -0.486,3.696 -0.758,7.357 -0.807,11.083 -1.786,13.292 -3.572,26.584 -5.358,39.876 -4.641,19.52 -13.591,36.524 -26.849,51.011 -6.668,11.27 -15.636,20.239 -26.906,26.907 -14.488,13.258 -31.492,22.207 -51.011,26.848 -59.789,21.927 -123.247,34.733 -186.876,38.005 -36.969,1.9 -74.532,-2.75 -110.711,-9.797 -11.841,-2.307 -23.512,-5.5 -34.826,-9.694 -22.264,-8.254 -45.113,-17.212 -65.808,-29.16 -5.288,-3.053 -10.427,-6.365 -15.395,-9.917 -14.903,-10.655 -29.674,-21.858 -43.568,-33.836 -9.933,-8.563 -18.89,-18.155 -27.072,-28.392 -24.558,-30.729 -46.224,-60.863 -63.231,-96.228 -17.327,-36.033 -31.977,-73.354 -47.477,-110.187 -6.25,-14.85 -12.53,-29.687 -18.747,-44.551 -2.741,-6.552 -5.491,-13.174 -7.078,-20.12 -3.629,-15.893 -5.5,-32.253 -6.68,-48.492 -0.743,-10.234 1.652,-20.997 2.977,-30.857 2.013,-14.986 3.334,-28.45 8.857,-42.367 7.558,-19.041 15.587,-37.951 24.437,-56.437 7.483,-15.63 15.276,-31.11 23.375,-46.43 16.401,-31.026 34.074,-61.363 52.888,-90.987 9.426,-17.48 22.304,-31.509 38.634,-42.086 14.487,-13.258 31.491,-22.207 51.011,-26.848 13.292,-1.786 26.584,-3.572 39.876,-5.358 27.076,0.084 52.312,6.91 75.708,20.479 18.563,13.157 39.125,22.87 60.009,31.726 -11.944,-5.041 -23.888,-10.081 -35.832,-15.122 26.197,11.038 52.567,21.609 78.656,32.922 13.874,6.016 27.584,12.525 40.493,20.434 16.32,9.998 31.509,22.708 46.335,34.38 6.104,4.805 11.951,9.873 17.289,15.527 19.887,21.061 38.765,45.636 50.56,72.452 12.129,27.575 23.346,54.31 29.892,83.624 4.063,18.19 7.125,36.599 10.402,54.942 3.715,20.798 7.395,41.601 11.039,62.411 5.715,32.642 12.318,65.668 14.311,98.735 1.307,21.699 -2.95,44.455 -6.397,65.365 -1.624,9.851 -4.202,19.42 -7.494,28.842 -10.527,30.13 -24.299,59.131 -36.897,88.448 -16.769,39.021 -33.538,78.043 -50.307,117.065 -2.128,4.951 -4.004,10.13 -6.422,14.945 -3.909,5.059 -7.818,10.119 -11.727,15.179 -10.577,16.329 -24.606,29.207 -42.086,38.633 -16.909,9.895 -26.156,12.829 -41.034,16.356 -10.421,2.471 -20.845,4.928 -31.292,7.289 -20.884,4.72 -41.865,9.071 -63.022,12.39 -50.154,7.868 -101.608,15.455 -152.433,9.464 -31.369,-3.697 -63.377,-7.133 -93.604,-16.907 -20.592,-6.659 -40.621,-15.675 -60.294,-24.504 -8.587,-3.854 -16.938,-8.243 -24.946,-13.191 -26.007,-16.073 -51.036,-35.647 -72.018,-58.036 -13.309,-14.2 -25.657,-29.361 -41.12,-41.344 10.12,7.818 20.239,15.636 30.359,23.454 -5.159,-3.849 -10.535,-7.243 -16.293,-10.123 -22.54,-13.335 -40.477,-31.272 -53.812,-53.812 -13.569,-23.396 -20.396,-48.632 -20.48,-75.708 3.834,-46.09 10.247,-92.653 22.075,-137.461 11.739,-44.47 29.478,-87.287 48.748,-128.952 7.818,-10.12 15.636,-20.239 23.454,-30.358 13.587,-14.628 29.678,-24.966 48.274,-31.016 11.698,-6.784 24.316,-10.197 37.854,-10.239 19.938,-4.465 39.876,-3.573 59.814,2.679 30.966,11.431 62.762,20.329 94.189,30.36 42.156,13.455 84.443,29.224 123.312,50.446 24.51,13.382 46.284,30.889 68.004,48.345 12.309,9.893 23.524,21.099 33.615,33.238 28.319,34.068 52.983,69.002 71.344,109.26 19.974,43.793 36.845,88.53 52.096,134.116 7.144,26.584 7.144,53.168 0,79.752 -7.127,25.411 -19.985,47.474 -38.576,66.19 -42.646,36.45 -86.727,71.048 -131.287,105.124 -8.69,6.646 -17.335,13.404 -26.316,19.656 -3.927,2.733 -7.942,5.342 -12.125,7.667 -2.074,1.153 -4.182,2.238 -6.337,3.23 -13.396,6.166 -27.399,12.453 -41.277,17.399 -4.678,1.667 -9.348,2.735 -14.246,3.51 -17.593,2.785 -36.149,6.842 -54.197,5.684 -18.104,-1.163 -36.401,-3.939 -54.241,-7.228 -5.648,-1.042 -11.237,-2.381 -16.816,-3.737 -44.783,-10.887 -89.535,-21.906 -134.302,-32.86 -11.008,-2.693 -22.019,-5.374 -33.024,-8.081 -15.885,-3.906 -29.824,-9.335 -45.035,-15.755 -9.423,-3.976 -19.996,-7.638 -28.932,-13.105 -1.922,-1.176 -3.738,-2.47 -5.55,-3.805 -11.61,-8.553 -23.904,-17.233 -34.579,-26.988 -3.256,-2.976 -6.119,-6.29 -8.889,-9.713 -10.513,-12.991 -21.477,-26.142 -30.405,-40.374 -12.944,-20.633 -23.466,-43.015 -34.893,-64.51 l -37.369,-70.292 c -13.569,-23.395 -20.396,-48.632 -20.48,-75.708 -0.779,-20.652 3.527,-39.916 12.919,-57.792 6.049,-18.596 16.388,-34.687 31.015,-48.274 18.716,-18.59 40.78,-31.449 66.19,-38.576 63.944,-17.27 127.887,-34.541 191.83,-51.812 7.872,-2.127 15.719,-4.498 23.65,-6.388 6.646,-0.893 13.292,-1.786 19.938,-2.679 19.938,-4.465 39.876,-3.572 59.814,2.679 5.972,2.52 11.944,5.04 17.916,7.561 18.596,6.049 34.688,16.387 48.274,31.015 3.183,2.836 6.322,5.725 9.467,8.603 11.638,10.651 23.14,21.451 34.504,32.396 22.419,21.592 44.296,43.748 65.603,66.44 23.935,25.49 47.128,51.667 69.604,78.452 7.819,10.119 15.637,20.239 23.455,30.358 10.962,17.218 16.895,35.808 17.8,55.77 3.573,13.292 3.573,26.584 0,39.876 -0.905,19.962 -6.838,38.552 -17.8,55.77 -19.253,29.607 -40.883,57.518 -62.802,85.189 -14.482,18.282 -29.859,35.857 -46.066,52.628 -7.962,8.239 -16.121,16.287 -24.471,24.131 -3.97,3.73 -7.977,7.391 -12.205,10.828 -11.255,9.152 -22.804,18.81 -34.97,26.775 -7.546,4.941 -16.721,7.939 -24.773,11.337 -7.569,3.194 -15.918,7.507 -24.24,9.625 -6.516,1.658 -22.069,3.061 -22.147,3.071 -1.878,0.253 -15.566,2.741 -22.485,2.923 -8.975,0.236 -19.389,-2.029 -27.535,-3.123 C 465.17,59.679 455.571,59.142 446.268,56.103 433.938,52.076 422.034,46.332 410.073,41.332 386.055,31.289 362.036,21.247 338.018,11.205 326.219,6.272 314.421,1.339 302.622,-3.594 c -5.899,-2.467 -11.799,-4.931 -17.697,-7.4 -9.562,-4.003 -28.061,-10.362 -37.097,-15.65 -5.059,-3.909 -10.119,-7.818 -15.179,-11.727 -16.329,-10.577 -29.207,-24.605 -38.633,-42.085 -4.631,-8.765 -12.326,-27.829 -15.54,-37.072 -0.716,-2.058 -1.391,-4.134 -2.077,-6.203 -15.646,-47.188 -28.211,-95.396 -37.618,-144.212 -12.907,-66.974 -21.595,-135.265 -24.875,-203.417 -0.779,-20.652 3.528,-39.916 12.919,-57.792 6.05,-18.596 16.388,-34.687 31.015,-48.274 10.12,-7.818 20.239,-15.636 30.358,-23.454 23.396,-13.569 48.632,-20.396 75.708,-20.48 68.239,-4.473 136.471,-9.042 204.716,-13.416 16.103,-1.032 32.319,-1.903 48.414,-0.283 19.892,2.001 40.497,3.86 59.975,8.862 19.111,4.909 38.555,14.402 55.995,22.001 26.959,11.747 50.886,29.221 74.843,46.041 31.192,21.901 61.62,44.93 91.314,68.817 20.691,16.645 40.606,34.343 58.758,53.749 17.15,18.337 32.169,38.465 47.344,58.439 7.526,9.907 14.571,20.156 20.857,30.898 12.591,21.518 21.739,45.098 31.072,68.075 4.684,11.531 8.443,23.438 11.154,35.587 4.564,20.455 7.165,41.671 9.054,62.45 0.38,4.181 0.568,8.386 0.459,12.585 -0.433,16.585 -3.334,33.615 -6.199,49.851 -4.941,28 -18.913,55.001 -35.122,78.29 -22.019,31.635 -44.217,63.147 -66.325,94.719 -7.819,-60.591 -15.637,-121.182 -23.455,-181.774 7.748,6.881 15.496,13.761 23.244,20.642 -60.591,-7.818 -121.182,-15.637 -181.774,-23.455 33.835,-19.248 66.278,-40.788 97.14,-64.51 -10.119,7.818 -20.239,15.636 -30.358,23.454 59.069,-45.67 111.694,-99.063 157.399,-158.064 -7.818,10.119 -15.636,20.239 -23.455,30.358 43.365,-56.24 80.387,-117.166 111.464,-180.993 8.033,-16.5 15.662,-33.193 22.937,-50.041 9.426,-17.48 22.304,-31.509 38.634,-42.086 14.487,-13.258 31.491,-22.207 51.011,-26.848 l 39.876,-5.358 c 20.652,-0.779 39.916,3.527 57.792,12.918 12.705,3.564 23.737,9.993 33.095,19.288 16.329,10.577 29.207,24.606 38.633,42.086 5.041,11.944 10.081,23.888 15.122,35.832 7.144,26.584 7.144,53.168 0,79.752 -29.928,77.738 -64.359,154.174 -109.82,224.175 -27.594,42.49 -58.634,83.222 -91.997,121.319 -26.575,30.345 -55.663,58.501 -87.122,83.759 -48.609,39.027 -98.422,74.666 -154.743,101.663 -17.217,10.962 -35.807,16.895 -55.77,17.8 -19.938,4.465 -39.876,3.573 -59.814,-2.679 -19.52,-4.64 -36.523,-13.59 -51.011,-26.848 C 670.914,95.118 658.036,81.09 648.61,63.609 643.569,51.666 638.529,39.721 633.489,27.778 c -7.145,-26.584 -7.145,-53.168 0,-79.752 5.04,-11.944 10.08,-23.888 15.121,-35.832 13.335,-22.54 31.273,-40.478 53.812,-53.813 40.744,-25.297 81.487,-50.593 122.23,-75.89 -17.937,17.937 -35.875,35.875 -53.812,53.813 55.59,-82.76 111.012,-165.644 165.408,-249.195 27.16,-41.718 54.511,-83.443 79.723,-126.382 5.48,-9.334 11.25,-18.763 15.475,-28.758 -5.041,11.944 -10.081,23.888 -15.121,35.832 0.605,-1.448 1.243,-2.959 1.473,-4.523 -1.786,13.292 -3.572,26.584 -5.358,39.876 0.036,-0.276 0.055,-0.551 0.024,-0.828 1.786,13.292 3.572,26.583 5.358,39.875 -0.017,-0.118 -0.044,-0.231 -0.091,-0.342 5.04,11.944 10.081,23.888 15.121,35.832 -0.023,-0.046 -0.046,-0.087 -0.075,-0.129 7.818,10.12 15.636,20.239 23.455,30.359 -0.03,-0.038 -0.059,-0.069 -0.094,-0.101 10.119,7.818 20.238,15.636 30.358,23.454 -0.032,-0.026 -0.065,-0.048 -0.102,-0.067 11.944,5.04 23.888,10.081 35.832,15.121 -0.047,-0.024 -0.097,-0.04 -0.149,-0.05 13.292,1.786 26.584,3.572 39.876,5.358 -0.093,-0.012 -0.17,-0.011 -0.263,-0.002 13.292,-1.786 26.584,-3.572 39.876,-5.358 -0.15,0.028 -0.286,0.074 -0.426,0.133 11.944,-5.041 23.888,-10.081 35.832,-15.121 -0.342,0.162 -0.648,0.371 -0.951,0.597 10.12,-7.818 20.239,-15.636 30.358,-23.454 -3.472,2.711 -6.238,6.523 -9.004,9.905 -5.368,6.564 -10.579,13.256 -15.858,19.892 -16.919,21.272 -34.295,42.172 -52.529,62.334 -24.857,27.484 -51.175,53.662 -79.058,78.078 -41.967,36.749 -86.733,71.302 -134.16,100.761 -51.844,32.202 -108.377,57.699 -165.897,77.83 -27.236,9.532 -55.258,17.516 -83.744,22.288 -18.039,3.021 -36.256,5.403 -54.423,7.411 -5.138,0.568 -10.306,0.982 -15.479,1.006 -32.071,0.15 -64.592,-6.827 -92.479,-23.125 -45.72,-26.72 -79.831,-79.763 -77.583,-133.977 0.199,-4.79 4.114,-35.722 5.384,-40.528 0.087,-0.33 0.131,-0.671 0.223,-1.003 1.195,-4.293 13.333,-32.616 15.442,-36.632 0.211,-0.403 0.467,-0.779 0.682,-1.177 14.256,-26.42 40.063,-47.571 65,-62.933 17.466,-10.761 36.785,-18.747 55.348,-27.368 63.845,-29.65 126.697,-61.494 184.349,-102.174 8.492,-5.993 16.853,-12.166 25.091,-18.503 -10.12,7.818 -20.239,15.636 -30.358,23.455 39.288,-30.379 75.338,-64.883 105.813,-104.169 -7.818,10.12 -15.636,20.239 -23.454,30.359 25.177,-32.71 45.933,-68.371 62.074,-106.359 -5.04,11.944 -10.081,23.888 -15.121,35.832 18.895,-44.974 31.324,-92.367 37.948,-140.668 -1.786,13.292 -3.572,26.584 -5.358,39.876 7.252,-54.304 7.152,-109.378 0.001,-163.687 1.786,13.292 3.572,26.584 5.358,39.876 -7.078,-52.365 -20.696,-103.702 -41.155,-152.443 l 15.121,35.832 c -17.764,-41.876 -40.513,-81.347 -68.265,-117.409 7.819,10.119 15.637,20.239 23.455,30.358 -28.363,-36.523 -61.319,-69.287 -97.885,-97.585 10.119,7.819 20.239,15.637 30.358,23.455 -23.002,-17.686 -47.805,-35.358 -74.637,-46.847 11.944,5.04 23.888,10.081 35.832,15.121 -1.643,-0.692 -3.373,-1.511 -5.15,-1.787 13.292,1.786 26.584,3.572 39.876,5.358 -0.124,-0.013 -0.237,-0.02 -0.362,-0.014 13.292,-1.786 26.584,-3.572 39.876,-5.358 -0.051,0 -0.099,0.017 -0.145,0.041 22.064,-12.859 44.127,-25.718 66.191,-38.576 -0.015,0.011 -0.029,0.023 -0.044,0.035 7.819,-10.119 15.637,-20.239 23.455,-30.358 -0.007,0.011 -0.013,0.022 -0.02,0.034 5.041,-11.944 10.081,-23.888 15.121,-35.832 -0.002,0.013 -0.005,0.026 -0.008,0.039 1.786,-13.292 3.572,-26.584 5.358,-39.876 10e-4,0.016 0.003,0.031 0.004,0.046 -1.787,-13.292 -3.573,-26.584 -5.359,-39.876 0.005,0.017 0.01,0.035 0.015,0.052 l -15.121,-35.832 c 0.032,0.07 0.068,0.127 0.112,0.19 -7.818,-10.119 -15.636,-20.239 -23.455,-30.358 0.401,0.503 0.94,0.899 1.444,1.291 -10.119,-7.818 -20.239,-15.636 -30.358,-23.454 6.77,5.189 14.168,9.637 21.237,14.4 13.711,9.24 27.234,18.756 40.485,28.645 48.944,36.529 96.565,74.641 138.341,119.347 28.376,30.364 54.249,63.385 78.227,97.267 17.667,24.964 33.362,51.353 46.379,79.038 20.801,44.243 39.41,90.037 48.878,138.163 10.432,53.029 16.276,107.786 12.729,161.851 -3.692,56.286 -12.714,113.135 -28.351,167.418 -13.991,48.567 -33.568,95.314 -54.045,141.447 -9.426,17.48 -22.304,31.509 -38.634,42.085 -14.487,13.258 -31.491,22.208 -51.011,26.849 -19.938,6.251 -39.876,7.144 -59.814,2.679 -19.962,-0.905 -38.552,-6.839 -55.77,-17.8 -10.119,-7.819 -20.238,-15.637 -30.358,-23.455 -18.59,-18.716 -31.449,-40.78 -38.576,-66.19 -1.786,-13.292 -3.572,-26.584 -5.358,-39.876 0.084,-27.076 6.911,-52.312 20.48,-75.708 2.528,-5.696 5.006,-11.413 7.431,-17.154 -5.04,11.944 -10.081,23.888 -15.121,35.832 24.167,-57.541 42.443,-117.627 50.846,-179.573 -1.786,13.292 -3.572,26.584 -5.358,39.876 5.778,-43.996 6.405,-88.477 0.565,-132.502 1.786,13.292 3.572,26.584 5.358,39.876 -5.277,-38.079 -15.399,-75.185 -30.223,-110.648 5.04,11.944 10.081,23.888 15.121,35.832 -17.741,-41.941 -41.509,-80.974 -69.294,-116.995 7.818,10.119 15.637,20.238 23.455,30.358 -39.069,-50.346 -85.524,-94.56 -135.88,-133.482 10.119,7.819 20.239,15.637 30.358,23.455 -22.663,-17.466 -46.396,-33.184 -69.917,-49.422 -12.193,-8.417 -24.862,-16.683 -35.266,-27.162 -37.818,-38.086 -53.171,-94.299 -38.838,-146.385 17.754,-64.513 78.45,-110.352 145.22,-110.26 36.723,0.051 69.931,14.906 101.196,32.643 30.202,17.133 57.287,38.672 84.657,59.925 24.808,19.264 48.048,40.47 69.275,63.633 20.195,22.036 38.319,45.955 56.26,69.812 11.186,14.875 21.558,30.358 31.057,46.364 23.524,39.639 41.905,82.704 57.794,125.849 11.8,32.044 20.739,65.13 26.875,98.718 8.453,46.269 14.542,93.608 15.343,140.72 0.803,47.187 -4.92,93.598 -11.901,140.225 -4.992,33.339 -12.838,66.271 -23.729,98.181 -14.551,42.634 -32.443,85.105 -55.068,124.166 -21.544,37.192 -48.305,71.833 -76.332,104.267 -19.427,22.481 -40.752,43.289 -63.391,62.52 -30.865,26.218 -63.281,50.993 -96.977,73.491 -41.031,27.395 -84.472,50.929 -128.857,72.389 -29.629,14.326 -60.586,26.679 -89.287,42.838 -3.803,2.142 -7.566,4.395 -11.034,7.055 10.119,-7.818 20.238,-15.637 30.358,-23.455 -1.659,1.299 -3.255,2.689 -4.548,4.362 7.818,-10.12 15.636,-20.239 23.454,-30.359 -0.439,0.598 -0.824,1.214 -1.132,1.889 5.04,-11.944 10.081,-23.888 15.121,-35.832 -0.212,0.514 -0.362,1.022 -0.438,1.573 1.786,-13.292 3.572,-26.584 5.358,-39.876 -0.033,0.365 -0.03,0.716 0.012,1.08 -1.786,-13.292 -3.573,-26.584 -5.359,-39.876 0.061,0.363 0.156,0.702 0.288,1.045 -5.04,-11.944 -10.08,-23.888 -15.121,-35.832 0.145,0.345 0.327,0.669 0.548,0.971 -7.819,-10.12 -15.637,-20.239 -23.455,-30.359 0.399,0.492 0.787,0.873 1.275,1.279 -10.119,-7.819 -20.239,-15.637 -30.358,-23.455 0.801,0.559 1.617,0.988 2.513,1.378 -11.944,-5.041 -23.888,-10.081 -35.832,-15.122 2.113,0.79 4.259,1.223 6.489,1.538 -13.292,-1.786 -26.584,-3.572 -39.876,-5.358 9.64,1.117 19.449,0.12 29.028,-1.104 -13.292,1.787 -26.584,3.573 -39.876,5.359 44.938,-6.092 89.011,-20.53 130.694,-38.089 -11.944,5.041 -23.888,10.081 -35.832,15.122 56.124,-23.857 108.522,-55.556 156.792,-92.744 -10.119,7.818 -20.239,15.637 -30.358,23.455 57.256,-44.316 108.288,-95.999 154.24,-151.848 12.106,-14.713 23.543,-29.997 35.835,-44.552 10.412,-12.328 24.266,-23.011 37.718,-30.824 23.381,-13.581 49.324,-20.634 76.397,-20.61 13.292,1.786 26.584,3.572 39.876,5.358 0.026,0.007 0.051,0.014 0.077,0.02 0.038,0.013 35.825,15.106 35.904,15.152 0.52,0.304 30.094,23.195 30.539,23.604 9.315,8.565 17.559,19.167 23.544,30.505 0.409,0.774 14.937,35.246 15.177,35.989 4.154,12.864 5.413,26.883 5.408,40.477 -0.014,47.165 -24.389,88.231 -48.087,127.118 -31.891,52.334 -65.613,103.575 -99.281,154.774 -27.912,42.445 -56.032,84.752 -84.25,126.995 -8.567,12.825 -17.144,25.644 -25.73,38.457 -3.894,5.812 -7.79,11.623 -11.688,17.433 -11.132,16.594 -23.095,37.78 -37.016,50.56 -14.44,13.255 -31.061,23.891 -47.655,34.193 -7.302,4.535 -14.606,9.069 -21.909,13.603 -13.837,8.592 -27.674,17.183 -41.512,25.774 -13.837,8.592 -27.674,17.183 -41.512,25.774 -50.472,-86.347 -100.944,-172.694 -151.416,-259.041 40.425,-19.378 78.649,-42.901 114.203,-70.2 -10.12,7.818 -20.239,15.636 -30.358,23.454 47.527,-36.746 89.704,-79.829 126.518,-127.256 -7.819,10.119 -15.637,20.239 -23.455,30.358 49.166,-63.681 88.417,-134.425 119.757,-208.413 -5.041,11.944 -10.081,23.888 -15.122,35.832 4.945,-11.725 9.699,-23.527 14.271,-35.402 91.387,38.528 182.775,77.056 274.162,115.584 -28.291,65.517 -62.228,128.648 -102.667,187.494 -52.76,76.772 -113.233,149.323 -184.65,209.448 -48.624,40.936 -100.134,79.019 -155.435,110.48 -11.944,5.04 -23.888,10.08 -35.832,15.121 -19.938,6.251 -39.876,7.144 -59.814,2.679 -13.538,-0.042 -26.156,-3.456 -37.854,-10.24 -18.596,-6.049 -34.687,-16.388 -48.274,-31.015 -7.748,-6.88 -15.496,-13.761 -23.244,-20.642 -7.818,-10.119 -15.636,-20.238 -23.455,-30.358 -10.961,-17.217 -16.895,-35.807 -17.8,-55.77 -3.572,-13.292 -3.572,-26.584 0,-39.876 0.905,-19.962 6.839,-38.552 17.8,-55.769 14.441,-20.623 28.882,-41.246 43.323,-61.869 13.252,-18.924 29.152,-37.684 38.448,-58.975 -5.04,11.944 -10.08,23.888 -15.121,35.832 2.138,-5.337 3.613,-10.661 4.555,-16.334 -1.786,13.292 -3.572,26.584 -5.358,39.876 1.214,-9.233 0.933,-18.355 -0.175,-27.584 1.787,13.292 3.573,26.584 5.359,39.876 -2.641,-19.262 -7.975,-37.975 -15.44,-55.912 5.041,11.944 10.081,23.888 15.122,35.832 -9.484,-22.256 -22.147,-42.84 -36.903,-61.976 7.818,10.12 15.636,20.239 23.454,30.359 -27.036,-34.629 -60.089,-63.902 -94.722,-90.711 l 30.358,23.455 c -18.343,-14.132 -37.169,-27.614 -56.175,-40.836 -21.21,-14.755 -42.468,-29.814 -66.307,-40.077 11.944,5.04 23.888,10.081 35.832,15.121 -11.349,-4.696 -22.919,-8.017 -35.084,-9.777 13.292,1.786 26.584,3.572 39.876,5.358 -20.943,-2.642 -41.966,-1.089 -62.942,0.286 -21.707,1.423 -43.415,2.846 -65.122,4.269 -43.415,2.846 -86.83,5.691 -130.245,8.537 l 150,-150 c 1.594,33.114 4.588,66.131 8.967,98.992 -1.786,-13.292 -3.572,-26.584 -5.358,-39.876 9.965,73.508 26.915,145.926 50.663,216.204 -34.922,-34.922 -69.844,-69.844 -104.766,-104.766 28.654,11.98 57.307,23.96 85.961,35.941 l 41.716,17.441 c 14.117,5.903 28.547,13.591 43.658,16.452 -13.292,-1.786 -26.584,-3.572 -39.876,-5.358 3.45,0.444 6.681,0.532 10.144,0.2 -13.292,1.786 -26.584,3.572 -39.876,5.359 2.986,-0.531 5.719,-1.331 8.533,-2.457 -11.944,5.041 -23.888,10.081 -35.832,15.121 4.133,-1.941 7.837,-4.332 11.469,-7.096 -10.119,7.818 -20.238,15.636 -30.358,23.454 16.56,-13.334 31.507,-29.215 45.964,-44.759 14.773,-15.884 28.782,-32.453 42.073,-49.595 -7.818,10.12 -15.636,20.239 -23.454,30.358 11.986,-15.568 23.34,-31.592 34.052,-48.064 7.818,60.591 15.636,121.183 23.454,181.774 -55.381,-65.997 -115.261,-128.121 -179.178,-185.891 l 145.942,38.576 c -71.826,19.4 -143.653,38.8 -215.48,58.2 29.882,-73.45 59.763,-146.9 89.645,-220.35 13.53,25.451 27.06,50.902 40.59,76.352 12.146,22.848 22.879,47.807 38.622,68.466 -7.818,-10.119 -15.636,-20.238 -23.454,-30.358 3.689,4.617 7.675,8.806 12.234,12.573 -10.12,-7.818 -20.239,-15.636 -30.358,-23.454 5.391,4.143 11.2,7.353 17.442,10.023 -11.944,-5.041 -23.888,-10.081 -35.832,-15.122 15.873,6.355 32.942,9.62 49.501,13.672 19.067,4.665 38.133,9.33 57.199,13.995 l 55.87,13.67 c 18.692,4.574 37.438,10.125 56.522,12.775 -13.292,-1.786 -26.584,-3.572 -39.876,-5.358 6.987,0.814 13.851,1.032 20.855,0.305 -13.292,1.786 -26.584,3.572 -39.876,5.358 5.725,-0.83 11.058,-2.269 16.445,-4.367 -11.944,5.04 -23.888,10.081 -35.832,15.121 21.183,-9.025 39.314,-25.222 57.384,-39.168 -10.12,7.819 -20.239,15.637 -30.358,23.455 31.125,-24.077 61.656,-48.908 91.569,-74.476 -12.859,48.648 -25.717,97.295 -38.576,145.942 -9.492,-28.374 -19.192,-56.696 -30.822,-84.279 5.041,11.944 10.081,23.887 15.121,35.832 -12.979,-30.483 -28.394,-59.962 -48.693,-86.256 7.818,10.12 15.636,20.239 23.454,30.358 -12.454,-15.874 -26.531,-30.221 -42.451,-42.636 10.12,7.818 20.239,15.636 30.358,23.455 -20.51,-15.68 -43.252,-27.788 -66.99,-37.808 11.944,5.04 23.888,10.081 35.832,15.121 -48.406,-20.142 -99.714,-31.886 -148.837,-50.021 56.466,-22.978 112.931,-45.956 169.397,-68.934 -2.81,6.076 -5.522,12.192 -8.138,18.354 l 15.121,-35.832 c -19.116,45.592 -32.202,93.441 -38.963,142.413 1.786,-13.292 3.572,-26.584 5.358,-39.876 -1.328,9.955 -2.409,19.931 -3.242,29.939 -24.764,-43.174 -49.528,-86.347 -74.292,-129.521 18.945,9.475 35.721,24.162 51.634,37.579 7.423,6.259 14.153,13.289 20.71,20.434 13.053,14.222 25.677,28.558 41.006,40.424 -10.12,-7.818 -20.239,-15.636 -30.358,-23.454 13.912,10.518 29.015,19.094 45.018,26.002 -11.944,-5.04 -23.888,-10.08 -35.832,-15.121 22.342,9.397 45.827,15.373 69.82,18.638 -13.292,-1.786 -26.584,-3.572 -39.876,-5.358 34.517,4.444 69.303,2.931 103.729,-1.628 -13.292,1.786 -26.584,3.572 -39.876,5.358 38.031,-5.216 75.409,-13.983 112.722,-22.843 -29.881,22.978 -59.763,45.956 -89.644,68.934 23.436,-54.537 47.163,-108.959 70.288,-163.628 l -15.122,35.832 c 7.083,-16.902 13.469,-34.068 16.06,-52.297 -1.786,13.292 -3.572,26.584 -5.358,39.876 1.455,-12.062 0.914,-23.973 -0.585,-36.005 1.786,13.292 3.572,26.584 5.359,39.876 -5.079,-37.58 -12.753,-74.954 -19.43,-112.279 -5.836,-32.631 -10.925,-65.834 -23.581,-96.678 5.041,11.944 10.081,23.888 15.122,35.832 -5.295,-12.48 -11.813,-24.234 -20.085,-34.994 7.818,10.119 15.636,20.238 23.454,30.358 -7.392,-9.271 -15.832,-17.43 -25.189,-24.701 10.119,7.818 20.239,15.636 30.358,23.454 -19.416,-14.724 -41.503,-25.074 -63.85,-34.508 l 35.832,15.121 c -28.082,-11.783 -56.447,-22.915 -84.229,-35.402 -16.401,-7.371 -32.363,-15.682 -47.056,-26.096 68.409,-17.937 136.819,-35.875 205.228,-53.812 -31.306,49.293 -61.024,100.874 -84.165,154.571 l 15.121,-35.832 c -3.485,8.39 -6.31,16.859 -7.591,25.88 1.786,-13.292 3.572,-26.584 5.358,-39.876 -0.51,4.933 -0.505,9.697 0.092,14.627 -1.786,-13.292 -3.572,-26.584 -5.358,-39.876 2.843,16.895 11.291,32.829 17.887,48.503 6.831,16.234 13.655,32.47 20.496,48.7 l -15.122,-35.832 c 16.308,38.631 33.37,77.489 59.159,110.888 -7.818,-10.12 -15.636,-20.239 -23.454,-30.359 10.773,13.698 22.883,26.119 36.664,36.809 -10.119,-7.818 -20.239,-15.636 -30.358,-23.455 12.967,9.831 26.998,17.918 41.955,24.318 -11.944,-5.04 -23.888,-10.081 -35.832,-15.121 18.671,7.769 38.218,12.728 58.236,15.464 -13.292,-1.786 -26.584,-3.572 -39.876,-5.358 29.07,3.744 58.417,2.833 87.429,-0.979 -13.292,1.786 -26.584,3.572 -39.876,5.358 39.472,-5.389 78.017,-15.981 115.377,-29.683 -36.708,48.214 -73.416,96.428 -110.124,144.642 0.049,-3.734 0.355,-7.381 0.807,-11.083 1.924,-15.75 3.171,-31.952 6.814,-47.454 1.616,-6.872 3.998,-13.51 6.655,-20.04 10.076,-24.766 21.549,-48.618 32.094,-73.105 l -15.122,35.832 c 5.008,-11.944 8.606,-24.1 10.479,-36.931 -1.786,13.292 -3.572,26.584 -5.358,39.876 2.153,-16.781 1.56,-33.568 -0.573,-50.32 1.786,13.292 3.572,26.584 5.358,39.876 -5.771,-42.143 -19.007,-83.35 -29.891,-124.376 -5.574,-21.011 -11.149,-42.022 -16.723,-63.034 -5.148,-19.404 -10.14,-38.884 -17.826,-57.476 l 15.121,35.832 c -5.05,-11.791 -11.194,-22.853 -18.999,-33.05 7.818,10.119 15.636,20.239 23.454,30.358 -18.73,-23.647 -43.753,-41.306 -67.379,-59.674 -26.703,-20.76 -53.376,-41.56 -80.112,-62.278 10.119,7.819 20.239,15.637 30.358,23.455 -12.784,-9.859 -25.833,-19.335 -40.679,-25.869 l 35.832,15.121 c -8.462,-3.489 -17.119,-5.741 -26.163,-7.106 13.292,1.786 26.584,3.572 39.876,5.358 -18.959,-2.486 -38.186,-1.444 -57.211,-0.287 -19.728,1.199 -39.398,3.142 -58.991,5.731 13.292,-1.786 26.584,-3.572 39.876,-5.358 -33.09,4.48 -65.857,10.911 -98.183,19.28 L 644.82,-960.972 c -14.019,37.955 -28.038,75.911 -42.057,113.866 -6.888,18.648 -13.823,37.279 -20.657,55.947 -6.649,18.164 -12.803,36.513 -15.536,55.728 1.786,-13.292 3.572,-26.584 5.358,-39.876 -1.505,12.13 -1.351,24.095 0.118,36.223 -1.786,-13.292 -3.572,-26.584 -5.358,-39.876 3.443,25.321 11.169,49.984 18.076,74.523 6.907,24.536 14.071,49 21.493,73.385 7.421,24.385 15.099,48.693 23.033,72.917 7.641,23.331 14.75,47.131 24.258,69.786 -5.04,-11.944 -10.081,-23.888 -15.121,-35.832 4.012,9.234 8.698,18.003 14.775,26.052 -7.818,-10.119 -15.636,-20.239 -23.454,-30.358 5.164,6.471 11.029,12.084 17.544,17.183 -10.12,-7.818 -20.239,-15.637 -30.359,-23.455 19.749,14.872 43.053,24.577 65.192,35.266 24.859,12.001 49.477,24.963 74.849,35.837 -11.944,-5.041 -23.888,-10.081 -35.832,-15.122 6.732,2.751 13.516,4.932 20.721,6.007 l -39.876,-5.358 c 4.949,0.521 9.722,0.438 14.664,-0.171 -13.292,1.786 -26.584,3.572 -39.876,5.358 17.73,-2.886 34.326,-11.29 50.796,-18.118 17.081,-7.082 34.203,-14.073 51.24,-21.261 -11.944,5.04 -23.888,10.081 -35.832,15.121 7.206,-3.105 14.165,-6.493 20.451,-11.237 -10.12,7.818 -20.239,15.636 -30.358,23.454 2.722,-2.24 5.12,-4.612 7.334,-7.352 -7.818,10.119 -15.636,20.239 -23.454,30.358 1.699,-2.372 3.104,-4.78 4.361,-7.412 l -15.121,35.832 c 2.554,-6.135 3.875,-12.494 4.81,-19.05 -1.786,13.292 -3.572,26.584 -5.358,39.876 8.884,-68.678 16.061,-139.383 7.227,-208.411 1.786,13.292 3.572,26.584 5.358,39.876 -5.842,-43.462 -19.501,-84.82 -36.456,-125.119 l 15.121,35.832 c -33.188,-78.283 -73.07,-154.858 -125.175,-222.324 7.818,10.12 15.636,20.239 23.454,30.359 -28.435,-36.566 -60.587,-70.119 -97.164,-98.623 10.12,7.818 20.239,15.636 30.358,23.454 -16.032,-12.374 -32.845,-25.147 -51.527,-33.223 l 35.832,15.121 c -6.003,-2.405 -12.026,-4.093 -18.432,-5.01 13.292,1.786 26.584,3.572 39.876,5.358 -11.961,-1.275 -23.785,0.02 -35.652,1.609 13.292,-1.786 26.584,-3.572 39.876,-5.358 -40.88,5.697 -80.783,16.635 -118.862,32.561 11.944,-5.04 23.888,-10.08 35.832,-15.121 -13.764,5.845 -27.805,11.81 -39.924,20.698 10.119,-7.818 20.238,-15.636 30.358,-23.454 -4.211,3.288 -7.932,6.825 -11.305,10.973 7.818,-10.119 15.637,-20.239 23.455,-30.358 -3.541,4.729 -6.329,9.747 -8.672,15.165 l 15.122,-35.832 c -5.934,14.791 -8.333,30.715 -11.049,46.335 -3.054,17.56 -5.755,35.178 -8.152,52.84 1.786,-13.292 3.572,-26.584 5.358,-39.876 -13.093,97.831 -16.056,196.939 -8.698,295.373 2.107,28.18 5.077,56.286 8.834,84.294 -1.786,-13.292 -3.572,-26.584 -5.358,-39.876 4.511,33.168 10.136,66.178 16.964,98.949 3.37,16.172 7.025,32.284 10.965,48.326 3.805,15.494 7.488,31.132 13.568,45.925 -5.041,-11.944 -10.081,-23.888 -15.121,-35.832 3.366,7.757 7.408,14.996 12.582,21.696 -7.818,-10.119 -15.636,-20.238 -23.454,-30.358 4.655,5.738 9.868,10.797 15.662,15.377 -10.119,-7.819 -20.238,-15.637 -30.358,-23.455 8.659,6.57 18.087,11.758 28.047,16.075 l -35.832,-15.121 c 15.327,6.417 31.357,10.685 47.595,14.078 -48.647,12.858 -97.295,25.717 -145.942,38.575 27.928,-26.985 61.206,-47.782 91.92,-71.366 -10.12,7.818 -20.239,15.636 -30.359,23.454 12.614,-9.799 24.51,-20.385 34.327,-33.047 -7.818,10.119 -15.636,20.239 -23.454,30.358 5.865,-7.834 10.676,-16.199 14.632,-25.147 -5.041,11.944 -10.081,23.888 -15.121,35.832 6.362,-15.096 10.059,-30.955 12.342,-47.14 -1.786,13.292 -3.572,26.584 -5.358,39.876 5.367,-40.64 3.956,-82.192 -1.475,-122.741 1.786,13.292 3.572,26.584 5.358,39.876 -8.954,-64.681 -29.089,-127.079 -54.404,-187.096 l 15.121,35.832 c -29.155,-68.689 -64.882,-134.281 -101.069,-199.454 43.174,24.764 86.347,49.528 129.521,74.293 l -178.443,-22.436 c 43.173,-24.764 86.347,-49.528 129.52,-74.293 -24.795,32.645 -49.59,65.29 -74.385,97.935 -11.973,15.764 -23.989,31.496 -35.916,47.294 -10.931,14.479 -21.489,29.282 -28.734,46.005 l 15.121,-35.832 c -3.402,8.308 -5.766,16.733 -7.042,25.625 1.786,-13.292 3.572,-26.584 5.358,-39.876 -2.387,20.389 0.705,40.692 3.335,60.899 2.69,20.677 5.381,41.353 8.072,62.029 5.278,40.556 10.413,81.133 15.851,121.667 -1.786,-13.292 -3.572,-26.584 -5.358,-39.876 4.004,29.495 8.952,59.145 20.315,86.824 -5.04,-11.944 -10.081,-23.888 -15.121,-35.832 5.131,12.102 11.458,23.518 19.46,33.965 -7.818,-10.12 -15.637,-20.239 -23.455,-30.358 6.376,8.046 13.553,15.152 21.611,21.516 -10.119,-7.818 -20.239,-15.637 -30.358,-23.455 18.624,14.203 40.049,23.641 61.433,32.852 l -151.416,0 c 3.645,-2.25 7.142,-4.658 10.541,-7.265 -10.12,7.818 -20.239,15.637 -30.359,23.455 7.496,-5.952 14.123,-12.719 19.983,-20.283 -7.818,10.119 -15.636,20.238 -23.454,30.358 6.472,-8.62 11.747,-17.925 16.049,-27.802 l -15.121,35.832 c 6.003,-14.26 9.823,-29.202 12.016,-44.501 l -5.358,39.876 c 2.789,-20.813 2.568,-41.834 -0.084,-62.649 1.786,13.292 3.572,26.584 5.358,39.876 -3.121,-23.114 -9.096,-45.938 -18.117,-67.459 5.041,11.944 10.081,23.888 15.122,35.832 -5.659,-13.098 -12.546,-25.498 -21.134,-36.91 7.819,10.12 15.637,20.239 23.455,30.358 -6.743,-8.676 -14.253,-16.462 -22.895,-23.261 10.12,7.818 20.239,15.636 30.358,23.455 -7.987,-6.054 -16.514,-11.07 -25.722,-15.036 l 35.832,15.122 c -8.515,-3.472 -17.251,-5.896 -26.368,-7.133 13.292,1.786 26.584,3.572 39.876,5.358 -7.676,-0.864 -15.249,-0.836 -22.908,0.189 13.292,-1.786 26.584,-3.572 39.876,-5.359 -6.856,1.101 -13.41,2.965 -19.84,5.581 11.944,-5.04 23.888,-10.081 35.832,-15.121 -7.453,3.237 -14.325,7.332 -20.835,12.187 10.12,-7.818 20.239,-15.636 30.358,-23.455 -9.841,7.626 -18.334,16.6 -26.016,26.372 7.818,-10.119 15.636,-20.239 23.454,-30.358 -18.445,23.996 -32.525,51.622 -44.423,79.35 l 15.121,-35.832 c -11.166,26.46 -19.492,53.934 -23.375,82.433 1.786,-13.292 3.572,-26.584 5.359,-39.876 -3.245,24.817 -3.309,49.783 -0.031,74.6 -1.786,-13.292 -3.572,-26.584 -5.358,-39.876 6.608,48.035 24.43,93.711 43.14,138.141 -5.04,-11.944 -10.08,-23.888 -15.121,-35.832 9.735,23.037 19.898,45.89 30.099,68.723 9.125,20.426 17.75,40.539 31.268,58.548 -7.819,-10.119 -15.637,-20.239 -23.455,-30.358 9.334,12.056 20.024,22.753 32.054,32.116 -10.119,-7.818 -20.239,-15.636 -30.358,-23.455 16.293,12.364 34.238,21.559 53,29.535 -11.944,-5.041 -23.888,-10.081 -35.832,-15.122 67.715,28.446 140.357,45.383 213.01,55.209 -13.292,-1.786 -26.584,-3.572 -39.876,-5.358 54.814,7.338 110.866,10.464 166.108,8.762 24.702,-0.761 49.342,-2.76 73.843,-5.993 -13.292,1.786 -26.584,3.572 -39.876,5.358 32.053,-4.344 63.495,-11.173 94.797,-19.246 27.616,-7.123 55.072,-14.855 81.427,-25.868 -11.944,5.04 -23.888,10.081 -35.832,15.121 28.371,-12.068 54.837,-27.832 79.25,-46.646 -10.12,7.818 -20.239,15.636 -30.358,23.454 28.21,-22.029 52.843,-47.893 74.768,-76.126 -7.818,10.119 -15.636,20.238 -23.454,30.358 22.391,-29.058 42.357,-60.034 61.775,-91.135 21.538,-34.496 40.518,-70.517 56.364,-107.982 -5.041,11.944 -10.081,23.888 -15.122,35.832 22.328,-53.352 38.913,-109.253 50.343,-165.925 3.586,-17.781 6.606,-35.671 9.037,-53.646 -1.786,13.292 -3.572,26.584 -5.358,39.876 6.609,-49.755 8.756,-100.449 2.056,-150.315 1.786,13.292 3.572,26.584 5.358,39.876 -3.775,-27.188 -10.265,-53.978 -20.87,-79.343 5.04,11.944 10.081,23.888 15.121,35.832 -7.295,-17.135 -16.419,-33.365 -27.716,-48.189 7.818,10.119 15.637,20.239 23.455,30.358 -10.739,-13.858 -23.203,-25.919 -37.061,-36.647 10.119,7.819 20.238,15.637 30.358,23.455 -14.644,-11.131 -30.434,-21.464 -47.412,-28.691 11.945,5.041 23.889,10.081 35.833,15.122 -2.829,-1.159 -5.727,-2.329 -8.771,-2.768 l 39.876,5.358 c -0.505,-0.04 -0.949,-0.053 -1.451,10e-4 l 39.876,-5.358 c -0.116,0.03 -0.231,0.061 -0.347,0.091 11.944,-5.04 23.888,-10.081 35.832,-15.121 -0.091,0.046 -0.183,0.091 -0.274,0.137 10.119,-7.818 20.238,-15.636 30.358,-23.454 -0.067,0.061 -0.135,0.123 -0.202,0.184 7.819,-10.119 15.637,-20.239 23.455,-30.358 -0.029,0.045 -0.057,0.089 -0.086,0.134 5.041,-11.944 10.081,-23.888 15.121,-35.832 -0.052,0.105 -0.087,0.215 -0.103,0.331 1.785,-13.292 3.572,-26.584 5.358,-39.876 -0.022,0.227 -0.014,0.423 0.01,0.65 -1.786,-13.291 -3.572,-26.583 -5.358,-39.875 0.094,0.512 0.255,0.989 0.446,1.473 -5.041,-11.944 -10.081,-23.888 -15.122,-35.832 1.696,3.936 4.491,7.439 7.079,10.814 -7.818,-10.12 -15.636,-20.239 -23.455,-30.358 23.376,30.151 52.093,58.214 82.151,81.643 -10.119,-7.818 -20.239,-15.636 -30.358,-23.455 6.788,5.242 13.869,10.56 21.782,13.997 -11.944,-5.041 -23.888,-10.081 -35.832,-15.121 1.769,0.729 3.561,1.342 5.463,1.6 -13.292,-1.786 -26.584,-3.572 -39.876,-5.358 0.726,0.067 1.423,0.075 2.146,-0.014 -13.292,1.786 -26.584,3.572 -39.876,5.358 0.378,-0.072 0.719,-0.161 1.082,-0.288 -11.943,5.04 -23.887,10.081 -35.831,15.121 0.334,-0.148 0.618,-0.303 0.921,-0.506 -10.119,7.818 -20.239,15.636 -30.358,23.454 0.307,-0.237 0.571,-0.501 0.819,-0.799 -7.818,10.119 -15.636,20.238 -23.455,30.358 0.357,-0.468 0.635,-0.969 0.873,-1.507 -5.04,11.944 -10.081,23.888 -15.121,35.832 0.459,-1.12 0.714,-2.292 0.884,-3.488 -1.786,13.291 -3.572,26.583 -5.358,39.875 0.511,-4.032 0.125,-8.145 -0.413,-12.153 1.786,13.292 3.572,26.584 5.358,39.876 -3.329,-23.751 -12.607,-46.93 -21.854,-68.886 5.041,11.944 10.081,23.888 15.122,35.832 -20.888,-49.342 -47.676,-96.251 -77.816,-140.494 -10.373,-15.228 -21.21,-30.132 -32.463,-44.721 7.819,10.12 15.637,20.239 23.455,30.358 -43.039,-55.587 -92.374,-106.331 -148.003,-149.405 10.119,7.819 20.239,15.637 30.358,23.455 -49.492,-38.119 -103.579,-68.711 -161.055,-93.056 11.944,5.041 23.888,10.081 35.831,15.121 -38.168,-16.044 -77.815,-27.811 -118.909,-33.339 13.292,1.786 26.584,3.573 39.876,5.359 -36.96,-4.755 -74.31,-4.639 -111.244,0.266 13.292,-1.786 26.584,-3.572 39.876,-5.358 -40.134,5.513 -79.206,16.616 -116.557,32.238 l 35.832,-15.122 c -47.368,20.01 -91.452,46.936 -132.15,78.27 10.12,-7.818 20.239,-15.636 30.359,-23.455 -47.695,36.898 -90.761,79.617 -129.221,126.015 -6.876,8.296 -13.598,16.717 -20.188,25.241 7.818,-10.12 15.637,-20.239 23.455,-30.358 -46.725,60.528 -84.97,126.716 -114.799,197.112 l 15.122,-35.831 c -25.173,59.771 -46.073,122.937 -54.916,187.398 1.786,-13.292 3.572,-26.584 5.358,-39.876 -2.089,15.587 -3.912,31.837 -1.881,47.533 -1.786,-13.292 -3.572,-26.584 -5.358,-39.876 0.446,3.2 1.071,6.389 2.293,9.392 -5.04,-11.944 -10.081,-23.888 -15.121,-35.832 0.467,1.081 1.007,2.108 1.701,3.061 -7.818,-10.119 -15.636,-20.239 -23.454,-30.358 0.404,0.516 0.835,0.981 1.336,1.406 -10.12,-7.819 -20.239,-15.637 -30.359,-23.455 0.392,0.302 0.792,0.555 1.236,0.772 -11.944,-5.04 -23.888,-10.081 -35.832,-15.121 0.512,0.231 1.047,0.38 1.605,0.448 -13.292,-1.786 -26.584,-3.573 -39.876,-5.359 0.595,0.07 1.19,0.065 1.784,-0.016 -13.292,1.786 -26.584,3.572 -39.876,5.358 1.057,-0.192 1.971,-0.462 2.981,-0.836 l -35.832,15.122 c 2.504,-1.129 4.714,-2.608 6.901,-4.264 -10.12,7.818 -20.239,15.637 -30.358,23.455 10.191,-8.196 18.497,-18.636 26.496,-28.9 -7.818,10.119 -15.636,20.239 -23.454,30.358 3.382,-4.391 6.674,-8.843 9.957,-13.308 4.183,-5.829 8.55,-11.522 13.099,-17.078 10.577,-16.329 24.605,-29.207 42.086,-38.633 21.201,-12.407 25.533,-12.81 40.916,-16.131 8.908,-1.923 17.566,-4.7 25.988,-8.17 l -35.831,15.121 c 11.345,-4.856 21.959,-10.991 31.812,-18.423 -10.119,7.819 -20.238,15.637 -30.358,23.455 9.917,-7.688 18.753,-16.486 26.443,-26.403 -7.818,10.119 -15.637,20.239 -23.455,30.358 6.993,-9.271 12.805,-19.237 17.348,-29.927 -5.041,11.944 -10.081,23.888 -15.122,35.832 4.096,-10.023 6.958,-20.379 8.494,-31.1 -1.786,13.292 -3.572,26.584 -5.358,39.876 1.305,-10.203 1.354,-20.4 0.101,-30.609 1.786,13.292 3.572,26.584 5.358,39.876 -1.472,-10.557 -4.286,-20.743 -8.367,-30.587 5.041,11.944 10.081,23.888 15.122,35.832 -4.26,-9.848 -9.656,-19.031 -16.107,-27.602 7.818,10.119 15.637,20.239 23.455,30.358 -7.521,-9.699 -16.176,-18.275 -25.881,-25.783 10.119,7.818 20.239,15.636 30.358,23.454 -9.597,-7.214 -19.911,-13.189 -30.923,-17.972 l 35.832,15.122 c -5.053,-2.113 -10.178,-3.965 -15.413,-5.576 56.466,-22.978 112.931,-45.956 169.397,-68.934 -3.3,7.314 -6.51,14.667 -9.636,22.057 l 15.121,-35.832 c -24.222,57.445 -43.735,117.052 -57.257,177.926 -5.08,22.867 -9.243,45.926 -12.41,69.136 1.786,-13.292 3.572,-26.584 5.358,-39.876 -8.19,61.501 -7.348,122.742 0.88,184.193 -1.786,-13.292 -3.572,-26.584 -5.358,-39.876 9.165,67.225 27.781,131.739 53.328,194.63 -98.214,13.292 -196.428,26.584 -294.642,39.876 -0.656,-9.917 -1.313,-19.834 -1.97,-29.751 -0.779,-20.652 3.527,-39.916 12.919,-57.792 6.049,-18.596 16.388,-34.687 31.015,-48.274 10.12,-7.818 20.239,-15.636 30.358,-23.454 17.218,-10.962 35.808,-16.895 55.77,-17.801 13.292,-3.572 26.584,-3.572 39.876,0 19.963,0.906 38.553,6.839 55.77,17.801 10.119,7.818 20.239,15.636 30.358,23.454 18.591,18.716 31.449,40.779 38.576,66.19 4.45,13.606 9.453,27.006 14.998,40.203 -5.04,-11.944 -10.081,-23.888 -15.121,-35.832 17.127,40.254 39.302,78.121 65.973,112.793 -7.818,-10.119 -15.636,-20.239 -23.454,-30.358 18.491,23.818 38.978,45.958 61.346,66.182 14.628,13.587 24.966,29.678 31.015,48.274 9.392,17.876 13.698,37.14 12.919,57.792 0.779,20.652 -3.527,39.916 -12.919,57.792 C 237.098,-29.678 226.76,-13.586 212.132,0 202.013,7.818 191.893,15.636 181.774,23.455 158.378,37.023 133.142,43.85 106.066,43.934 92.774,42.148 79.482,40.362 66.19,38.576 40.779,31.449 18.716,18.591 0,0" /></g></g></g></g><g
           id="g6095"><g
             id="g6097" /><g
             id="g6103"><g
               style="opacity:0.52999902"
               id="g6105"
               clip-path="url(#clipPath6099)"><g
                 id="g6107"
                 transform="translate(1861.4053,2415.377)"><path
                   id="path6109"
                   style="fill:#cccae6;fill-opacity:1;fill-rule:nonzero;stroke:none"
                   d="m 0,0 c 29.671,-33.079 70.825,-51.687 107.371,-75.653 9.414,-6.173 18.577,-12.72 27.487,-19.599 -1.686,1.303 -3.373,2.606 -5.06,3.909 23.563,-18.246 45.276,-38.842 64.764,-61.387 5.486,-6.347 10.789,-12.85 15.918,-19.487 l -3.909,5.059 c 18.391,-23.869 34.433,-49.534 47.718,-76.584 3.745,-7.626 7.265,-15.361 10.57,-23.188 -0.84,1.991 -1.681,3.981 -2.521,5.972 10.463,-24.886 19.508,-50.969 23.125,-77.816 -0.298,2.215 -0.595,4.43 -0.893,6.646 1.585,-12.127 1.971,-24.404 0.388,-36.551 l 0.892,6.646 c -1.158,-8.473 -3.284,-16.755 -6.574,-24.655 0.84,1.99 1.68,3.981 2.52,5.972 -1.19,-2.796 -2.511,-5.524 -3.969,-8.189 11.402,2.989 22.803,5.979 34.205,8.968 -0.166,0.126 -0.331,0.252 -0.496,0.378 1.686,-1.303 3.373,-2.606 5.059,-3.909 -4.841,3.753 -9.106,8.119 -12.856,12.959 1.303,-1.687 2.606,-3.373 3.909,-5.06 -5.731,7.516 -10.102,15.91 -13.786,24.59 0.84,-1.991 1.68,-3.982 2.521,-5.972 -4.972,11.831 -8.711,24.117 -12.805,36.266 -5.065,15.034 -11.077,29.786 -18.324,43.906 -14.152,27.574 -32.918,52.581 -52.719,76.313 -19.632,23.53 -40.715,45.831 -61.445,68.385 -22.983,25.006 -45.967,50.012 -68.951,75.018 -22.984,25.006 -45.967,50.012 -68.951,75.019 -2.85,3.099 -5.699,6.2 -8.548,9.299 L -6.392,-14.529 c 1.302,0.258 2.606,0.476 3.921,0.654 -2.215,-0.297 -4.431,-0.595 -6.646,-0.893 4.909,0.608 9.825,0.567 14.728,-0.077 -2.215,0.298 -4.43,0.595 -6.646,0.893 5.945,-0.846 11.685,-2.543 17.222,-4.85 -1.991,0.839 -3.981,1.679 -5.972,2.52 8.89,-3.788 17.047,-9.009 24.702,-14.872 -1.687,1.303 -3.373,2.606 -5.06,3.909 10.299,-7.959 19.653,-17.035 28.694,-26.376 9.822,-10.148 19.637,-20.304 29.387,-30.522 19.516,-20.453 38.77,-41.17 57.207,-62.607 10.408,-12.101 20.547,-24.435 30.318,-37.057 -1.303,1.686 -2.606,3.373 -3.909,5.06 15.359,-19.88 29.794,-40.489 42.757,-62.016 3.728,-6.191 7.33,-12.456 10.806,-18.792 14.392,8.412 28.783,16.824 43.174,25.236 -18.824,27.191 -35.309,55.958 -49.253,85.945 -13.088,-10.099 -26.176,-20.197 -39.265,-30.296 1.385,-1.706 2.749,-3.428 4.094,-5.165 -1.303,1.687 -2.606,3.373 -3.909,5.06 15.243,-19.798 27.61,-41.611 38.182,-64.211 3.061,-6.542 5.973,-13.153 8.781,-19.808 -0.84,1.991 -1.68,3.982 -2.52,5.972 8.755,-20.81 16.446,-42.041 24.093,-63.277 2.139,-5.939 5.663,-11.862 11.489,-14.941 1.991,-0.84 3.982,-1.68 5.972,-2.52 3.323,-1.042 6.646,-1.19 9.969,-0.446 5.246,0.704 10.668,2.859 14.355,6.875 4.251,4.631 7.917,11.159 7.322,17.678 -2.754,30.197 -8.359,60.124 -17.543,89.037 -9.131,28.747 -21.347,56.765 -36.404,82.906 -15.474,26.864 -34.32,51.793 -55.053,74.809 -19.671,21.837 -41.039,42.514 -63.583,61.376 -12.107,10.13 -24.733,19.875 -38.285,28.012 -5.806,3.485 -11.797,6.667 -17.989,9.411 -7.936,3.517 -15.974,6.835 -24.376,9.069 -16.604,4.415 -34.007,5.52 -50.932,2.484 -1.44,-0.258 -2.87,-0.602 -4.247,-1.099 -3.306,-1.191 -6.833,-2.436 -9.761,-4.447 -2.703,-1.855 -5.563,-3.846 -7.646,-6.428 -3.755,-4.654 -6.14,-8.334 -8.01,-14.12 -0.222,-0.687 -0.344,-1.385 -0.464,-2.095 -0.451,-2.667 -0.972,-5.47 -0.987,-8.19 -0.02,-3.57 0.575,-7.309 1.414,-10.768 0.823,-3.394 2.422,-6.65 3.808,-9.814 0.7,-1.598 1.471,-3.15 2.349,-4.658 3.243,-5.565 7.282,-10.752 11.101,-15.93 4.876,-6.609 9.897,-13.115 14.988,-19.559 7.895,-9.99 16.115,-19.722 24.557,-29.253 16.974,-19.165 34.837,-37.519 52.898,-55.655 18.077,-18.152 36.368,-36.093 54.235,-54.453 17.694,-18.183 34.987,-36.788 51.121,-56.379 3.899,-4.734 7.725,-9.527 11.477,-14.379 -1.303,1.687 -2.606,3.373 -3.909,5.06 14.688,-19.045 28.146,-39.067 39.523,-60.274 10.766,-20.071 18.187,-42.421 32.055,-60.691 4.772,-6.286 9.559,-12.402 15.784,-17.314 3.884,-3.064 7.745,-6.181 12.106,-8.546 4.415,-2.395 9.131,-4.344 13.895,-5.923 5.969,-1.977 13.943,-0.594 19.264,2.52 5.186,3.035 10.131,8.981 11.489,14.941 1.458,6.4 1.142,13.584 -2.52,19.264 -3.634,5.637 -8.526,9.364 -14.941,11.489 -1.29,0.428 -2.558,0.9 -3.813,1.423 1.991,-0.841 3.981,-1.681 5.972,-2.521 -3.827,1.648 -7.391,3.759 -10.712,6.274 1.687,-1.303 3.374,-2.606 5.06,-3.909 -4.523,3.499 -8.452,7.635 -11.965,12.137 1.303,-1.687 2.606,-3.373 3.91,-5.06 -8.088,10.511 -13.849,22.565 -19.403,34.54 -5.84,12.592 -11.874,25.025 -18.825,37.05 -15.094,26.113 -33.254,50.411 -52.604,73.503 -18.422,21.984 -38.238,42.753 -58.395,63.141 -20.182,20.412 -40.733,40.457 -60.762,61.02 -20.096,20.631 -39.69,41.8 -57.705,64.289 -2.174,2.714 -4.323,5.448 -6.449,8.199 1.303,-1.687 2.606,-3.373 3.909,-5.06 -3.647,4.731 -7.223,9.515 -10.71,14.366 -3.576,4.974 -7.368,9.926 -9.806,15.584 0.84,-1.991 1.68,-3.982 2.52,-5.972 -0.758,1.869 -1.344,3.764 -1.659,5.758 0.298,-2.215 0.595,-4.43 0.893,-6.646 -0.151,1.261 -0.182,2.485 -0.056,3.75 -0.298,-2.215 -0.596,-4.431 -0.893,-6.646 0.155,1.033 0.406,1.993 0.783,2.966 -0.841,-1.991 -1.681,-3.981 -2.521,-5.972 0.36,0.788 0.77,1.505 1.262,2.217 -1.303,-1.686 -2.606,-3.373 -3.909,-5.059 0.632,0.809 1.315,1.507 2.105,2.16 -1.686,-1.303 -3.373,-2.606 -5.059,-3.909 0.982,0.733 2.008,1.322 3.123,1.832 -1.99,-0.84 -3.981,-1.68 -5.972,-2.52 2.333,0.968 4.762,1.495 7.258,1.837 L 1.946,-5.17 c 7.684,0.948 15.469,0.788 23.136,-0.225 -2.215,0.298 -4.43,0.595 -6.646,0.893 9.945,-1.385 19.573,-4.251 28.821,-8.131 -1.991,0.84 -3.981,1.68 -5.972,2.52 15.655,-6.661 29.977,-16.015 43.406,-26.388 -1.687,1.303 -3.373,2.606 -5.06,3.909 13.519,-10.494 26.195,-22.047 38.618,-33.804 13.029,-12.33 25.651,-25.102 37.556,-38.524 6.795,-7.66 13.346,-15.534 19.611,-23.635 -1.303,1.687 -2.606,3.373 -3.909,5.06 15.85,-20.574 29.641,-42.681 41.089,-65.995 3.254,-6.627 6.314,-13.347 9.195,-20.144 -0.84,1.99 -1.68,3.981 -2.52,5.972 10.487,-24.871 18.453,-50.788 23.635,-77.281 1.463,-7.483 2.699,-15.007 3.723,-22.562 -0.298,2.216 -0.595,4.431 -0.893,6.646 0.737,-5.518 1.36,-11.049 1.865,-16.594 16.369,2.215 32.738,4.431 49.107,6.646 -15.76,43.768 -31.738,88.235 -56.212,128.035 -7.625,12.4 -16.198,24.155 -25.367,35.458 -2.265,2.438 -4.947,4.161 -8.046,5.169 -2.979,1.565 -6.19,2.283 -9.632,2.153 -5.645,-0.253 -10.654,-1.896 -15.148,-5.368 -4.131,-3.192 -7.767,-7.751 -8.959,-12.986 -0.297,-2.215 -0.595,-4.431 -0.893,-6.646 0.014,-4.513 1.152,-8.719 3.413,-12.618 13.944,-29.987 30.43,-58.754 49.253,-85.945 3.758,-5.428 8.402,-9.688 14.941,-11.489 5.984,-1.648 13.953,-0.904 19.264,2.52 5.338,3.442 10.037,8.566 11.489,14.941 1.519,6.666 0.811,13.194 -2.52,19.264 -12.274,22.367 -26.181,43.799 -41.224,64.398 -16.179,22.155 -33.45,43.516 -51.473,64.193 -16.854,19.336 -34.339,38.111 -52.041,56.669 -8.802,9.226 -17.658,18.399 -26.523,27.564 -8.315,8.597 -16.707,17.125 -25.877,24.823 -10.225,8.583 -21.108,16.918 -33.311,22.511 -6.721,3.08 -13.639,6.014 -20.892,7.59 -7.178,1.561 -14.802,2.587 -22.178,2.167 -4.841,-0.276 -9.7,-0.97 -14.456,-1.911 -8.363,-1.656 -15.278,-9.535 -17.461,-17.461 -2.447,-8.887 0.325,-17.682 6.43,-24.324 30.201,-32.859 60.403,-65.719 90.605,-98.578 29.594,-32.197 59.336,-64.266 88.756,-96.622 14.582,-16.037 28.91,-32.326 42.174,-49.481 -1.303,1.687 -2.606,3.373 -3.909,5.06 17.127,-22.218 32.418,-45.96 43.38,-71.856 -0.84,1.991 -1.68,3.982 -2.52,5.972 5.694,-13.565 9.84,-27.671 14.669,-41.55 5.189,-14.915 11.021,-30.258 20.234,-43.215 3.267,-4.593 6.736,-9.15 10.615,-13.258 4.091,-4.333 8.767,-7.879 13.507,-11.482 2.87,-1.827 5.968,-2.816 9.295,-2.967 3.323,-0.744 6.646,-0.595 9.969,0.447 6.101,1.974 11.786,5.72 14.941,11.489 10.193,18.642 14.866,39.597 14.985,60.776 0.061,10.778 -1.263,21.508 -2.925,32.14 -1.369,8.761 -3.339,17.422 -5.707,25.965 -4.437,15.998 -10.136,31.676 -16.545,46.983 -7.065,16.875 -14.74,33.42 -23.615,49.427 -16.644,30.023 -36.822,58.173 -59.451,83.972 -22.847,26.048 -48.709,49.1 -76.64,69.568 -13.55,9.93 -27.724,18.881 -42.156,27.462 -14.952,8.891 -30.063,17.567 -44.351,27.514 -3.444,2.398 -6.833,4.873 -10.16,7.431 1.687,-1.304 3.373,-2.607 5.06,-3.909 -8.66,6.699 -16.824,14.011 -24.141,22.167 -4.139,4.614 -11.62,7.323 -17.677,7.323 C 11.546,42.678 4.222,39.954 0,35.355 -4.374,30.591 -7.621,24.336 -7.322,17.678 -7.016,10.844 -4.598,5.126 0,0" /></g></g></g></g><g
           transform="translate(1403.9678,985.6451)"
           id="g6111"><path
             id="path6113"
             style="fill:#cdcccd;fill-opacity:1;fill-rule:nonzero;stroke:none"
             d="M 0,0 C 5.231,0 10.242,4.6 10,10 9.757,15.418 5.606,20 0,20 -5.231,20 -10.242,15.4 -10,10 -9.757,4.582 -5.606,0 0,0" /></g><g
           transform="translate(1402.3429,983.8203)"
           id="g6115"><path
             id="path6117"
             style="fill:#cdcccd;fill-opacity:1;fill-rule:nonzero;stroke:none"
             d="m 0,0 c 1.948,-1.278 3.986,-2.414 6.105,-3.384 2.833,-1.298 5.731,-2.489 8.725,-3.361 1.33,-0.417 2.659,-0.477 3.988,-0.179 1.331,0.06 2.57,0.456 3.718,1.187 1.165,0.628 2.101,1.487 2.806,2.575 0.884,0.966 1.48,2.1 1.79,3.401 0.583,2.56 0.457,5.433 -1.008,7.706 -1.426,2.21 -3.412,3.848 -5.977,4.595 -1.705,0.497 -3.378,1.089 -5.016,1.773 0.796,-0.336 1.592,-0.672 2.388,-1.008 -2.59,1.097 -5.072,2.421 -7.425,3.964 C 8.947,18 7.707,18.396 6.376,18.456 5.047,18.754 3.718,18.694 2.389,18.278 1.087,17.968 -0.046,17.372 -1.012,16.488 -2.101,15.783 -2.959,14.847 -3.588,13.682 -4.814,11.361 -5.428,8.55 -4.596,5.976 -4.26,5.18 -3.924,4.384 -3.588,3.588 -2.698,2.085 -1.503,0.889 0,0" /></g><g
           transform="translate(1408.7645,979.5414)"
           id="g6119"><path
             id="path6121"
             style="fill:#cdcccd;fill-opacity:1;fill-rule:nonzero;stroke:none"
             d="m 0,0 c 0.828,-0.83 1.886,-1.579 2.79,-2.228 0.306,-0.219 0.624,-0.417 0.961,-0.585 1.073,-0.537 2.186,-1.018 3.327,-1.394 0.357,-0.118 0.724,-0.207 1.096,-0.267 1.203,-0.194 2.441,-0.425 3.67,-0.447 0.788,-0.014 1.564,0.129 2.342,0.233 0.791,0.107 1.605,0.17 2.375,0.399 0.18,0.054 0.358,0.115 0.532,0.185 0.956,0.379 1.927,0.765 2.853,1.214 1.166,0.628 2.101,1.487 2.806,2.576 0.884,0.965 1.481,2.099 1.79,3.4 0.417,1.33 0.476,2.659 0.179,3.988 -0.061,1.331 -0.456,2.57 -1.187,3.718 -0.521,0.675 -1.043,1.349 -1.564,2.024 -1.247,1.239 -2.718,2.096 -4.412,2.572 -0.886,0.119 -1.773,0.238 -2.659,0.357 C 13.094,15.739 11.412,15.284 9.852,14.379 9.75,14.33 9.648,14.283 9.544,14.237 c 0.797,0.336 1.593,0.672 2.389,1.008 -0.558,-0.233 -1.135,-0.386 -1.734,-0.468 0.886,0.119 1.772,0.238 2.658,0.357 -0.601,-0.072 -1.2,-0.07 -1.801,0.003 0.886,-0.119 1.772,-0.238 2.659,-0.357 -0.638,0.087 -1.254,0.252 -1.849,0.496 0.796,-0.336 1.592,-0.672 2.389,-1.008 -0.521,0.224 -1.007,0.502 -1.46,0.841 0.674,-0.521 1.349,-1.042 2.023,-1.563 -0.238,0.185 -0.463,0.382 -0.676,0.596 -0.906,0.975 -1.978,1.665 -3.218,2.068 C 9.732,16.836 8.448,17.123 7.071,17.071 5.694,17.123 4.41,16.836 3.218,16.21 1.979,15.807 0.906,15.117 0,14.142 L -1.564,12.118 C -2.468,10.559 -2.923,8.876 -2.929,7.071 -2.81,6.185 -2.691,5.299 -2.572,4.413 -2.097,2.719 -1.239,1.248 0,0" /></g><g
           transform="translate(1414.8872,979.4116)"
           id="g6123"><path
             id="path6125"
             style="fill:#cdcccd;fill-opacity:1;fill-rule:nonzero;stroke:none"
             d="m 0,0 c 4.227,-2.612 9.075,-4.148 13.853,-5.402 4.566,-1.199 9.137,-2.374 13.705,-3.56 2.535,-0.658 5.434,-0.322 7.706,1.008 2.074,1.214 4.053,3.592 4.596,5.976 1.189,5.221 -1.568,10.895 -6.985,12.301 -3.75,0.974 -7.5,1.948 -11.25,2.922 -3.405,0.884 -6.828,1.728 -10.09,3.066 0.797,-0.336 1.593,-0.672 2.389,-1.008 -1.326,0.565 -2.603,1.208 -3.83,1.966 C 5.638,20.023 -1.107,18.377 -3.588,13.682 -6.172,8.791 -4.757,2.939 0,0" /></g><g
           transform="translate(1434.0906,973.7322)"
           id="g6127"><path
             id="path6129"
             style="fill:#cdcccd;fill-opacity:1;fill-rule:nonzero;stroke:none"
             d="m 0,0 c 7.947,-3.766 16.234,-6.677 24.893,-8.263 2.693,-0.493 5.271,-0.417 7.706,1.008 2.074,1.214 4.052,3.592 4.595,5.976 0.583,2.56 0.457,5.434 -1.008,7.706 -1.341,2.08 -3.447,4.132 -5.976,4.596 -6.42,1.176 -12.686,3.037 -18.708,5.553 0.796,-0.336 1.592,-0.672 2.389,-1.008 -1.278,0.54 -2.543,1.107 -3.797,1.701 -2.473,1.173 -4.98,1.759 -7.705,1.008 C 0.069,17.639 -2.444,15.845 -3.588,13.682 -4.814,11.361 -5.428,8.55 -4.596,5.976 -3.833,3.621 -2.324,1.101 0,0" /></g><g
           transform="translate(1458.9635,964.2344)"
           id="g6131"><path
             id="path6133"
             style="fill:#cdcccd;fill-opacity:1;fill-rule:nonzero;stroke:none"
             d="m 0,0 c 5.933,-1.529 11.772,-3.394 17.491,-5.589 2.285,-0.877 5.675,-0.18 7.706,1.008 2.074,1.214 4.053,3.592 4.596,5.976 0.583,2.56 0.457,5.434 -1.008,7.706 -0.522,0.675 -1.043,1.349 -1.564,2.024 -1.248,1.239 -2.719,2.096 -4.413,2.572 -5.72,2.194 -11.558,4.06 -17.491,5.589 -2.538,0.654 -5.43,0.323 -7.706,-1.008 C -4.463,17.064 -6.441,14.685 -6.984,12.301 -7.567,9.741 -7.441,6.868 -5.976,4.596 -4.576,2.424 -2.559,0.659 0,0" /></g><g
           transform="translate(1480.2427,956.0402)"
           id="g6135"><path
             id="path6137"
             style="fill:#cdcccd;fill-opacity:1;fill-rule:nonzero;stroke:none"
             d="m 0,0 21.728,-4.802 c 2.615,-0.578 5.353,-0.369 7.706,1.008 2.074,1.214 4.053,3.593 4.596,5.977 0.583,2.559 0.456,5.433 -1.009,7.705 -1.371,2.127 -3.429,4.033 -5.976,4.596 L 5.317,19.286 C 2.702,19.863 -0.036,19.655 -2.389,18.277 -4.463,17.064 -6.441,14.685 -6.984,12.301 -7.568,9.741 -7.441,6.868 -5.976,4.596 -4.605,2.469 -2.547,0.563 0,0" /></g><g
           transform="translate(1501.2009,950.4498)"
           id="g6139"><path
             id="path6141"
             style="fill:#cdcccd;fill-opacity:1;fill-rule:nonzero;stroke:none"
             d="m 0,0 c 9.202,-3.134 18.622,-5.576 28.187,-7.307 2.698,-0.488 5.266,-0.42 7.706,1.008 2.074,1.214 4.053,3.593 4.596,5.977 0.583,2.559 0.456,5.433 -1.009,7.705 -1.338,2.077 -3.448,4.138 -5.976,4.596 -9.565,1.73 -18.985,4.172 -28.187,7.307 -2.369,0.806 -5.595,0.227 -7.706,-1.009 C -4.463,17.064 -6.441,14.685 -6.984,12.301 -8.248,6.753 -5.307,1.808 0,0" /></g><g
           transform="translate(1522.8584,944.1862)"
           id="g6143"><path
             id="path6145"
             style="fill:#cdcccd;fill-opacity:1;fill-rule:nonzero;stroke:none"
             d="m 0,0 c 3.348,-4.147 8.389,-7.677 13.723,-8.533 3.533,-0.567 7.113,-0.676 10.508,0.649 1.601,0.624 3.061,1.282 4.508,2.166 0.921,0.563 1.826,1.133 2.807,1.587 -0.797,-0.336 -1.593,-0.672 -2.389,-1.008 1.322,0.548 2.696,0.787 4.107,0.979 -0.886,-0.119 -1.772,-0.238 -2.658,-0.358 1.867,0.246 3.776,0.401 5.616,0.83 1.736,0.404 3.388,1.177 4.992,1.927 1.865,0.872 3.577,2.033 5.463,2.862 -0.796,-0.336 -1.592,-0.672 -2.389,-1.008 0.814,0.333 1.621,0.583 2.49,0.725 C 45.892,0.699 45.006,0.58 44.12,0.461 c 0.378,0.043 0.741,0.065 1.122,0.069 2.58,0.025 5.24,1.098 7.071,2.929 1.734,1.734 3.041,4.58 2.929,7.071 -0.241,5.374 -4.395,10.055 -10,10 -3.548,-0.035 -6.556,-1.072 -9.689,-2.639 -1.731,-0.866 -3.352,-1.93 -5.136,-2.693 0.797,0.336 1.593,0.672 2.389,1.008 -1.299,-0.516 -2.628,-0.777 -4.008,-0.969 0.886,0.12 1.772,0.239 2.658,0.358 -3.694,-0.49 -6.626,-0.864 -10.005,-2.457 -1.705,-0.804 -3.213,-1.955 -4.925,-2.745 0.796,0.336 1.592,0.672 2.388,1.008 -0.791,-0.327 -1.581,-0.543 -2.428,-0.673 l 2.659,0.357 c -0.858,-0.093 -1.692,-0.092 -2.551,-0.005 0.886,-0.119 1.772,-0.238 2.658,-0.357 -1.146,0.161 -2.226,0.464 -3.292,0.913 0.796,-0.336 1.592,-0.672 2.389,-1.008 -0.989,0.456 -1.902,1.006 -2.778,1.65 0.674,-0.521 1.349,-1.043 2.024,-1.564 -1.295,1.003 -2.425,2.155 -3.453,3.428 -1.509,1.869 -4.779,2.929 -7.071,2.929 C 4.618,17.071 1.689,15.982 0,14.142 -1.749,12.236 -3.048,9.734 -2.929,7.071 -2.81,6.185 -2.691,5.299 -2.572,4.413 -2.097,2.719 -1.239,1.248 0,0" /></g><g
           transform="translate(1554.5436,962.5582)"
           id="g6147"><path
             id="path6149"
             style="fill:#cdcccd;fill-opacity:1;fill-rule:nonzero;stroke:none"
             d="m 0,0 c -5.511,0.295 -11.023,0.591 -16.534,0.886 -5.191,0.278 -10.474,0.298 -15.636,0.926 l 2.658,-0.357 c -1.254,0.174 -2.47,0.439 -3.649,0.908 0.796,-0.336 1.593,-0.672 2.389,-1.008 -0.681,0.302 -1.304,0.657 -1.901,1.104 0.675,-0.521 1.349,-1.042 2.024,-1.563 -0.195,0.153 -0.382,0.317 -0.56,0.491 -1.471,-5.571 -2.942,-11.143 -4.413,-16.714 0.533,0.135 1.065,0.244 1.609,0.331 -0.887,-0.119 -1.773,-0.238 -2.659,-0.357 1.371,0.179 2.724,0.18 4.096,0.008 -0.887,0.119 -1.773,0.238 -2.659,0.358 1.228,-0.189 2.406,-0.506 3.56,-0.964 -0.796,0.336 -1.592,0.672 -2.388,1.008 0.632,-0.273 1.238,-0.576 1.834,-0.921 2.569,6.093 5.137,12.185 7.706,18.278 -3.712,0.502 -7.313,1.486 -10.766,2.938 0.796,-0.336 1.593,-0.672 2.389,-1.008 -0.685,0.297 -1.362,0.609 -2.034,0.936 -3.365,-5.757 -6.729,-11.513 -10.094,-17.27 3.321,-1.535 6.642,-3.071 9.963,-4.607 2.499,-1.155 4.956,-1.765 7.706,-1.008 2.319,0.639 4.833,2.432 5.976,4.596 1.226,2.321 1.841,5.132 1.008,7.705 -0.758,2.342 -2.27,4.901 -4.595,5.977 -3.322,1.535 -6.643,3.071 -9.964,4.607 -2.498,1.155 -4.956,1.765 -7.705,1.008 -2.32,-0.639 -4.834,-2.432 -5.977,-4.596 -1.226,-2.32 -1.84,-5.132 -1.008,-7.705 0.768,-2.372 2.274,-4.845 4.596,-5.977 4.831,-2.353 9.851,-4.159 15.188,-4.882 2.667,-0.361 5.299,-0.543 7.705,1.008 1.858,1.198 3.229,2.738 4.092,4.782 1.906,4.517 0.25,9.978 -4.092,12.488 -5.7,3.295 -12.435,4.162 -18.804,2.553 -7.128,-1.801 -9.917,-11.628 -4.413,-16.714 2.233,-2.063 4.378,-3.271 7.218,-4.304 2.018,-0.734 4.232,-0.94 6.346,-1.175 3.335,-0.371 6.721,-0.422 10.071,-0.602 C -14.478,-19.224 -7.239,-19.612 0,-20 5.232,-20.28 10.233,-15.2 10,-10 9.747,-4.342 5.605,-0.3 0,0" /></g><g
           transform="translate(1533.6451,945.3871)"
           id="g6151"><path
             id="path6153"
             style="fill:#cdcccd;fill-opacity:1;fill-rule:nonzero;stroke:none"
             d="m 0,0 c 0.49,-0.006 0.979,-0.013 1.469,-0.019 1.377,-0.052 2.661,0.235 3.853,0.861 1.24,0.403 2.312,1.092 3.218,2.067 0.975,0.906 1.665,1.979 2.068,3.219 0.626,1.191 0.913,2.476 0.861,3.853 -0.119,0.886 -0.238,1.772 -0.357,2.658 -0.475,1.694 -1.332,3.165 -2.572,4.413 -0.674,0.521 -1.349,1.042 -2.024,1.563 -1.559,0.905 -3.242,1.36 -5.047,1.366 -0.182,0.004 -0.363,0.018 -0.544,0.042 0.886,-0.119 1.772,-0.238 2.658,-0.358 -0.437,0.061 -0.861,0.178 -1.268,0.348 0.796,-0.336 1.592,-0.672 2.388,-1.008 -0.279,0.12 -0.546,0.263 -0.8,0.43 -1.148,0.731 -2.387,1.127 -3.718,1.187 -1.329,0.298 -2.658,0.238 -3.987,-0.179 -1.302,-0.309 -2.435,-0.906 -3.401,-1.79 -1.089,-0.705 -1.947,-1.64 -2.576,-2.805 l -1.008,-2.389 c -0.476,-1.772 -0.476,-3.545 0,-5.317 0.336,-0.796 0.672,-1.592 1.008,-2.389 C -8.89,4.251 -7.694,3.055 -6.191,2.166 -5.989,2.032 -5.777,1.912 -5.557,1.81 -4.678,1.398 -3.779,1.029 -2.876,0.676 -2.77,0.634 -2.662,0.597 -2.554,0.563 -2.33,0.492 -2.1,0.438 -1.868,0.4 -0.881,0.239 0.11,0.098 1.106,0.002 1.227,-0.01 1.348,-0.016 1.469,-0.019 l 0,20 C 0.979,19.987 0.49,19.994 0,20 -1.377,20.052 -2.661,19.765 -3.853,19.139 -5.093,18.735 -6.165,18.046 -7.071,17.071 -8.046,16.165 -8.735,15.093 -9.139,13.853 -9.765,12.661 -10.052,11.377 -10,10 -9.881,9.114 -9.762,8.228 -9.643,7.342 -9.168,5.648 -8.31,4.177 -7.071,2.929 -6.396,2.408 -5.722,1.887 -5.047,1.365 -3.487,0.461 -1.805,0.006 0,0" /></g><g
           transform="translate(1393.2401,1002.7605)"
           id="g6155"><path
             id="path6157"
             style="fill:#9b9b9b;fill-opacity:1;fill-rule:nonzero;stroke:none"
             d="m 0,0 c -2.455,-2.18 -1.136,-6.628 -0.177,-9.243 1.147,-3.128 2.846,-5.99 4.707,-8.739 3.486,-5.151 7.692,-10.01 13.305,-12.892 2.857,-1.467 5.39,2.846 2.523,4.318 -4.482,2.301 -7.944,6.009 -10.816,10.09 -1.515,2.153 -2.962,4.384 -4.12,6.752 C 4.849,-8.541 4.39,-7.325 4.061,-6.06 3.9,-5.443 3.76,-4.813 3.691,-4.178 3.665,-3.93 3.672,-3.677 3.642,-3.43 3.566,-2.794 3.818,-3.284 3.536,-3.536 5.947,-1.395 2.4,2.131 0,0" /></g><g
           transform="translate(1411.1925,971.4125)"
           id="g6159"><path
             id="path6161"
             style="fill:#9b9b9b;fill-opacity:1;fill-rule:nonzero;stroke:none"
             d="m 0,0 c 4.028,-2.37 8.656,-2.087 13.142,-2.513 4.859,-0.461 9.583,-1.989 14.232,-3.396 9.807,-2.968 19.613,-5.937 29.419,-8.905 9.806,-2.969 19.612,-5.937 29.419,-8.905 9.529,-2.885 19.016,-5.755 28.27,-9.446 5.173,-2.063 10.325,-3.514 15.917,-3.785 5.55,-0.27 11.092,0.407 16.59,1.086 1.34,0.165 2.5,1.03 2.5,2.5 0,1.222 -1.151,2.666 -2.5,2.5 -4.8,-0.593 -9.62,-1.179 -14.464,-1.144 -4.808,0.035 -9.35,0.899 -13.859,2.56 -4.561,1.681 -9.025,3.573 -13.636,5.122 -4.682,1.572 -9.415,2.984 -14.141,4.415 C 71.516,-14.047 52.143,-8.183 32.77,-2.319 27.53,-0.732 22.289,1.057 16.881,1.983 14.286,2.428 11.692,2.584 9.07,2.745 6.795,2.885 4.522,3.142 2.524,4.317 -0.256,5.952 -2.775,1.632 0,0" /></g><g
           transform="translate(1395.7253,999.8199)"
           id="g6163"><path
             id="path6165"
             style="fill:#9b9b9b;fill-opacity:1;fill-rule:nonzero;stroke:none"
             d="m 0,0 c 4.145,2.595 9.183,2.364 13.745,1.119 5.448,-1.487 10.572,-4.053 15.871,-5.98 10.947,-3.981 22.11,-7.418 33.171,-11.067 11.214,-3.699 22.408,-7.469 33.777,-10.672 11.103,-3.128 22.331,-5.807 33.643,-8.064 6.329,-1.262 12.684,-2.393 19.059,-3.397 6.246,-0.983 12.76,-2.073 18.915,-0.017 3.036,1.014 1.734,5.845 -1.33,4.821 -5.208,-1.739 -10.72,-0.851 -16.016,-0.02 -5.738,0.901 -11.46,1.904 -17.162,3.014 -11.401,2.219 -22.721,4.864 -33.916,7.963 -11.371,3.149 -22.561,6.879 -33.763,10.574 -11.226,3.703 -22.53,7.229 -33.668,11.19 C 21.618,3.272 8.617,11.291 -2.524,4.317 -5.245,2.614 -2.738,-1.714 0,0" /></g><g
           transform="translate(1564.4655,963.0051)"
           id="g6167"><path
             id="path6169"
             style="fill:#9b9b9b;fill-opacity:1;fill-rule:nonzero;stroke:none"
             d="m 0,0 c -0.478,-1.192 -0.645,-0.509 -0.224,-0.61 0.453,-0.109 1.124,0.042 1.595,0.043 1.065,0.002 2.143,-0.028 3.2,-0.174 1.947,-0.267 3.966,-0.89 5.508,-2.148 1.258,-1.026 2.309,-2.487 2.481,-4.137 0.179,-1.717 -0.664,-3.362 -1.742,-4.641 -2.756,-3.27 -6.878,-5.497 -10.638,-7.399 -4.098,-2.074 -8.433,-3.601 -12.901,-4.657 -3.13,-0.74 -1.805,-5.562 1.329,-4.821 4.461,1.054 8.787,2.602 12.921,4.582 3.999,1.916 8.048,4.229 11.336,7.235 3.174,2.9 5.345,6.87 4.486,11.26 -0.83,4.242 -4.465,7.341 -8.353,8.768 C 6.587,4.185 3.924,4.439 1.371,4.433 -1.272,4.427 -3.733,4.041 -4.821,1.329 -5.324,0.076 -4.273,-1.417 -3.075,-1.746 -1.65,-2.138 -0.505,-1.258 0,0" /></g></g></g></g></svg>